<?xml version="1.0" encoding="UTF-8"?>
<svg xmlns="http://www.w3.org/2000/svg" xmlns:xlink="http://www.w3.org/1999/xlink" width="183px" height="100px" viewBox="0 0 183 100" version="1.1">
  <!-- Generator: Sketch 58 (84663) - https://sketch.com -->
  <title>Bpi-CP-BLANC-Rectangle Copy</title>
  <desc>Created with Sketch.</desc>
  <defs>
    <polygon id="path-1" points="0 30.6095015 162.616112 30.6095015 162.616112 0.0187517667 0 0.0187517667"></polygon>
    <polygon id="path-3" points="0 30.6095015 162.616112 30.6095015 162.616112 0.0187517667 0 0.0187517667"></polygon>
    <polygon id="path-5" points="0 30.6095015 162.616112 30.6095015 162.616112 0.0187517667 0 0.0187517667"></polygon>
    <polygon id="path-7" points="0 30.6095015 162.616112 30.6095015 162.616112 0.0187517667 0 0.0187517667"></polygon>
    <polygon id="path-9" points="0 30.6095015 162.616112 30.6095015 162.616112 0.0187517667 0 0.0187517667"></polygon>
    <polygon id="path-11" points="0 30.6095015 162.616112 30.6095015 162.616112 0.0187517667 0 0.0187517667"></polygon>
    <polygon id="path-13" points="0 30.6095015 162.616112 30.6095015 162.616112 0.0187517667 0 0.0187517667"></polygon>
    <polygon id="path-15" points="0 30.6095015 162.616112 30.6095015 162.616112 0.0187517667 0 0.0187517667"></polygon>
    <polygon id="path-17" points="0 30.6095015 162.616112 30.6095015 162.616112 0.0187517667 0 0.0187517667"></polygon>
    <polygon id="path-19" points="0 30.6095015 162.616112 30.6095015 162.616112 0.0187517667 0 0.0187517667"></polygon>
    <polygon id="path-21" points="0 30.6095015 162.616112 30.6095015 162.616112 0.0187517667 0 0.0187517667"></polygon>
    <polygon id="path-23" points="0 30.6095015 162.616112 30.6095015 162.616112 0.0187517667 0 0.0187517667"></polygon>
    <polygon id="path-25" points="0 30.6095015 162.616112 30.6095015 162.616112 0.0187517667 0 0.0187517667"></polygon>
    <polygon id="path-27" points="0 30.6095015 162.616112 30.6095015 162.616112 0.0187517667 0 0.0187517667"></polygon>
    <polygon id="path-29" points="0 30.6095015 162.616112 30.6095015 162.616112 0.0187517667 0 0.0187517667"></polygon>
    <polygon id="path-31" points="0 30.6095015 162.616112 30.6095015 162.616112 0.0187517667 0 0.0187517667"></polygon>
    <polygon id="path-33" points="0 30.6095015 162.616112 30.6095015 162.616112 0.0187517667 0 0.0187517667"></polygon>
    <polygon id="path-35" points="0 30.6095015 162.616112 30.6095015 162.616112 0.0187517667 0 0.0187517667"></polygon>
    <polygon id="path-37" points="0 30.6095015 162.616112 30.6095015 162.616112 0.0187517667 0 0.0187517667"></polygon>
    <polygon id="path-39" points="0 30.6095015 162.616112 30.6095015 162.616112 0.0187517667 0 0.0187517667"></polygon>
    <polygon id="path-41" points="0 30.6095015 162.616112 30.6095015 162.616112 0.0187517667 0 0.0187517667"></polygon>
    <polygon id="path-43" points="0 30.6095015 162.616112 30.6095015 162.616112 0.0187517667 0 0.0187517667"></polygon>
    <polygon id="path-45" points="0 30.6095015 162.616112 30.6095015 162.616112 0.0187517667 0 0.0187517667"></polygon>
    <polygon id="path-47" points="0 30.6095015 162.616112 30.6095015 162.616112 0.0187517667 0 0.0187517667"></polygon>
    <polygon id="path-49" points="0 30.6095015 162.616112 30.6095015 162.616112 0.0187517667 0 0.0187517667"></polygon>
    <polygon id="path-51" points="0 30.6095015 162.616112 30.6095015 162.616112 0.0187517667 0 0.0187517667"></polygon>
    <polygon id="path-53" points="0 30.6095015 162.616112 30.6095015 162.616112 0.0187517667 0 0.0187517667"></polygon>
    <polygon id="path-55" points="0 30.6095015 162.616112 30.6095015 162.616112 0.0187517667 0 0.0187517667"></polygon>
    <polygon id="path-57" points="0 30.6095015 162.616112 30.6095015 162.616112 0.0187517667 0 0.0187517667"></polygon>
    <polygon id="path-59" points="0 30.6095015 162.616112 30.6095015 162.616112 0.0187517667 0 0.0187517667"></polygon>
    <polygon id="path-61" points="0 30.6095015 162.616112 30.6095015 162.616112 0.0187517667 0 0.0187517667"></polygon>
    <polygon id="path-63" points="0 30.6095015 162.616112 30.6095015 162.616112 0.0187517667 0 0.0187517667"></polygon>
    <polygon id="path-65" points="0 30.6095015 162.616112 30.6095015 162.616112 0.0187517667 0 0.0187517667"></polygon>
    <polygon id="path-67" points="0 30.6095015 162.616112 30.6095015 162.616112 0.0187517667 0 0.0187517667"></polygon>
    <polygon id="path-69" points="0 30.6095015 162.616112 30.6095015 162.616112 0.0187517667 0 0.0187517667"></polygon>
    <polygon id="path-71" points="0 30.6095015 162.616112 30.6095015 162.616112 0.0187517667 0 0.0187517667"></polygon>
    <polygon id="path-73" points="0 30.6095015 162.616112 30.6095015 162.616112 0.0187517667 0 0.0187517667"></polygon>
    <polygon id="path-75" points="0 30.6095015 162.616112 30.6095015 162.616112 0.0187517667 0 0.0187517667"></polygon>
    <polygon id="path-77" points="0 30.6095015 162.616112 30.6095015 162.616112 0.0187517667 0 0.0187517667"></polygon>
    <polygon id="path-79" points="0 30.6095015 162.616112 30.6095015 162.616112 0.0187517667 0 0.0187517667"></polygon>
    <polygon id="path-81" points="0 30.6095015 162.616112 30.6095015 162.616112 0.0187517667 0 0.0187517667"></polygon>
    <polygon id="path-83" points="0 30.6095015 162.616112 30.6095015 162.616112 0.0187517667 0 0.0187517667"></polygon>
    <polygon id="path-85" points="0 30.6095015 162.616112 30.6095015 162.616112 0.0187517667 0 0.0187517667"></polygon>
    <polygon id="path-87" points="0 30.6095015 162.616112 30.6095015 162.616112 0.0187517667 0 0.0187517667"></polygon>
    <polygon id="path-89" points="0 30.6095015 162.616112 30.6095015 162.616112 0.0187517667 0 0.0187517667"></polygon>
    <polygon id="path-91" points="0 30.6095015 162.616112 30.6095015 162.616112 0.0187517667 0 0.0187517667"></polygon>
  </defs>
  <g id="Page-1" stroke="none" stroke-width="1" fill="none" fill-rule="evenodd">
    <g id="Bpi-CP-BLANC-Rectangle">
      <g id="Bpi-CP-BLANC" transform="translate(10.000000, 34.000000)">
        <g transform="translate(0.000000, -0.000000)">
          <polygon id="Fill-1" fill="#FFFFFF" points="110.103369 2.55404577 110.103369 5.4848366 148.920823 5.4848366 145.322537 8.41590319 110.103369 8.41590319 110.103369 11.346694 134.897323 11.346694 131.299585 14.2777606 110.103369 14.2777606 110.103369 17.2085514 120.908923 17.2085514 117.311185 20.1393423 110.103369 20.1393423 110.103369 23.0701331 118.258882 23.0701331 125.450793 17.2085514 132.239878 17.2085514 139.439193 11.346694 146.271056 11.346694 153.462693 5.4848366 162.616085 5.48125171 162.616085 2.54963359"></polygon>
          <polygon id="Fill-2" fill="#FFFFFF" points="154.409924 8.41518621 147.211706 14.2767679 140.37902 14.2767679 133.189028 20.1386253 126.398298 20.1386253 119.20008 26.0004827 110.102629 26.0004827 110.102629 28.9315493 162.615344 28.9315493 162.615344 26.0004827 123.743047 26.0004827 127.340236 23.0694161 162.615344 23.0694161 162.615344 20.1386253 137.731995 20.1386253 141.328636 17.2078345 162.615344 17.2078345 162.615344 14.2767679 151.755221 14.2767679 155.351588 11.345977 162.615344 11.345977 162.614796 8.4124286"></polygon>
          <g id="Group-52" transform="translate(0.000000, 0.257010)">
            <path d="M2.03949515,4.12081103 L1.50175397,4.12081103 L1.50175397,6.34510147 L2.03949515,6.34510147 C2.7091351,6.34510147 3.22658415,6.19232973 3.22658415,5.21282568 C3.22658415,4.39629655 2.87147206,4.12081103 2.03949515,4.12081103 M2.06993333,1.11087672 L1.50175397,1.11087672 L1.50175397,3.08008798 L2.03949515,3.08008798 C2.8105957,3.08008798 3.16570779,2.86582147 3.16570779,2.06997443 C3.16570779,1.27412739 2.7091351,1.11087672 2.06993333,1.11087672 M2.2018321,7.41670979 L0.000137108917,7.41670979 L0.000137108917,0.0392684055 L2.52650602,0.0392684055 C3.74403321,0.0392684055 4.64703254,0.386176089 4.64703254,1.86591109 C4.64703254,2.81480564 4.27190254,3.35584926 3.37877505,3.53950627 C4.40380132,3.71296011 4.74849314,4.30446804 4.74849314,5.38627952 C4.74849314,7.15142744 3.68315685,7.41670979 2.2018321,7.41670979" id="Fill-3" fill="#FFFFFF" fill-rule="nonzero"></path>
            <g id="Fill-5-Clipped">
              <mask id="mask-2" fill="white">
                <use xlink:href="#path-1"></use>
              </mask>
              <g id="path-1"></g>
              <path d="M5.90500685,7.41659948 L7.3356013,7.41659948 L7.3356013,2.27392747 L5.90500685,2.27392747 L5.90500685,7.41659948 Z M5.90500685,1.25361075 L7.3356013,1.25361075 L7.3356013,0.100377104 L5.90500685,0.100377104 L5.90500685,1.25361075 Z" id="Fill-5" fill="#FFFFFF" fill-rule="nonzero" mask="url(#mask-2)"></path>
            </g>
            <g id="Fill-7-Clipped">
              <mask id="mask-4" fill="white">
                <use xlink:href="#path-3"></use>
              </mask>
              <g id="path-1"></g>
              <path d="M10.7749785,2.99835234 C10.1357767,2.99835234 10.0749004,3.81488147 10.0749004,4.81479186 C10.0749004,5.84531174 10.1357767,6.67176828 10.7546864,6.67176828 C11.3330118,6.67176828 11.4040342,5.876197 11.4040342,4.75357285 C11.4040342,3.78427197 11.3837421,2.99835234 10.7749785,2.99835234 M11.2315512,7.51890692 C10.6430797,7.51890692 10.2981137,7.33524991 10.014024,6.86562846 L10.014024,7.41659948 L8.62401379,7.41659948 C8.62401379,7.36585941 8.65445197,6.51899653 8.65445197,6.46770494 L8.65445197,0.0394338623 L10.0749004,0.0394338623 L10.0749004,2.77415842 C10.3894282,2.32521907 10.8257088,2.15148947 11.36345,2.15148947 C12.7636062,2.15148947 12.8349029,3.29424419 12.8349029,4.80458869 C12.8349029,6.19221942 12.7128759,7.51890692 11.2315512,7.51890692" id="Fill-7" fill="#FFFFFF" fill-rule="nonzero" mask="url(#mask-4)"></path>
            </g>
            <g id="Fill-8-Clipped">
              <mask id="mask-6" fill="white">
                <use xlink:href="#path-5"></use>
              </mask>
              <g id="path-1"></g>
              <polygon id="Fill-8" fill="#FFFFFF" mask="url(#mask-6)" points="13.9404121 7.41687525 15.3710065 7.41687525 15.3710065 0.0394338623 13.9404121 0.0394338623"></polygon>
            </g>
            <g id="Fill-9-Clipped">
              <mask id="mask-8" fill="white">
                <use xlink:href="#path-7"></use>
              </mask>
              <g id="path-1"></g>
              <path d="M16.6897201,7.41659948 L18.1203145,7.41659948 L18.1203145,2.27392747 L16.6897201,2.27392747 L16.6897201,7.41659948 Z M16.6897201,1.25361075 L18.1203145,1.25361075 L18.1203145,0.100377104 L16.6897201,0.100377104 L16.6897201,1.25361075 Z" id="Fill-9" fill="#FFFFFF" fill-rule="nonzero" mask="url(#mask-8)"></path>
            </g>
            <g id="Fill-10-Clipped">
              <mask id="mask-10" fill="white">
                <use xlink:href="#path-9"></use>
              </mask>
              <g id="path-1"></g>
              <path d="M21.9861643,4.28425474 C21.9861643,3.62104887 21.9455711,3.02898942 21.3469535,3.02898942 C20.6773136,3.02898942 20.6671675,3.83503962 20.6671675,4.50844866 L20.6671675,5.4474158 C20.6671675,5.95757416 20.6874596,6.66159269 21.3368075,6.66159269 C21.9963013,6.66159269 21.9861643,5.91676149 21.9861643,5.32470203 L21.9861643,4.28425474 Z M21.3368075,7.53934083 C19.5003706,7.53934083 19.226427,6.48813885 19.226427,4.86555951 C19.226427,3.32488127 19.5305346,2.15151704 21.3570996,2.15151704 C23.1833904,2.15151704 23.4373161,3.13102109 23.4373161,4.74339726 C23.4373161,6.37590401 23.2341207,7.53934083 21.3368075,7.53934083 Z" id="Fill-10" fill="#FFFFFF" fill-rule="nonzero" mask="url(#mask-10)"></path>
            </g>
            <g id="Fill-11-Clipped">
              <mask id="mask-12" fill="white">
                <use xlink:href="#path-11"></use>
              </mask>
              <g id="path-1"></g>
              <path d="M26.1762861,7.48810438 C25.1008037,7.48810438 24.7251253,7.16160303 24.7251253,6.09027048 L24.7251253,3.15148258 L24.0656314,3.15148258 L24.0656314,2.2740102 L24.7251253,2.2740102 L24.7251253,1.39653782 L26.1458479,0.845291035 L26.1458479,2.2740102 L26.9372406,2.2740102 L26.9372406,3.15148258 L26.1458479,3.15148258 L26.1458479,5.92701981 C26.1458479,6.41677183 26.2473085,6.5800225 26.6632969,6.5800225 C26.7749036,6.5800225 26.8763642,6.56981934 26.9778248,6.549413 L26.9778248,7.42688538 C26.8154878,7.45777064 26.4705218,7.48810438 26.1762861,7.48810438" id="Fill-11" fill="#FFFFFF" mask="url(#mask-12)"></path>
            </g>
            <g id="Fill-12-Clipped">
              <mask id="mask-14" fill="white">
                <use xlink:href="#path-13"></use>
              </mask>
              <g id="path-1"></g>
              <path d="M30.5087359,7.41673736 L30.5087359,3.9984006 C30.5087359,3.50864858 30.4782977,3.00869339 29.9405566,3.00869339 C29.4634175,3.00869339 29.2807884,3.52905491 29.2807884,4.10070804 L29.2807884,7.41673736 L27.850194,7.41673736 L27.850194,0.0392959816 L29.2807884,0.0392959816 L29.2807884,2.77402054 C29.6057366,2.34521176 30.0420172,2.15135158 30.6000504,2.15135158 C31.6349486,2.15135158 31.9393304,2.74341104 31.9393304,3.71271192 L31.9393304,7.41673736 L30.5087359,7.41673736 Z" id="Fill-12" fill="#FFFFFF" mask="url(#mask-14)"></path>
            </g>
            <g id="Fill-13-Clipped">
              <mask id="mask-16" fill="white">
                <use xlink:href="#path-15"></use>
              </mask>
              <g id="path-1"></g>
              <path d="M35.6729433,3.56981243 C35.622213,3.24331108 35.4801681,2.99843507 35.11491,2.99843507 C34.7293597,2.99843507 34.5670228,3.26399318 34.5061464,3.6412346 C34.475434,3.83509478 34.4655622,4.01875178 34.4655622,4.24322146 L35.7033815,4.24322146 C35.7033815,4.01875178 35.7033815,3.77387577 35.6729433,3.56981243 Z M35.0134494,1.47816316 L33.5622886,0.0188344951 L34.9322809,0.0188344951 L35.8555724,1.47816316 L35.0134494,1.47816316 Z M34.4554161,5.00873476 C34.4554161,5.04927167 34.4655622,5.42678885 34.4655622,5.45767412 C34.4960003,6.29433382 34.607607,6.69225734 35.1047639,6.69225734 C35.6425051,6.69225734 35.7236736,6.18209899 35.7236736,5.7127533 L37.1035377,5.7127533 C37.0629535,6.98814919 36.4338978,7.53939598 35.11491,7.53939598 C33.298491,7.53939598 33.0346935,6.44738133 33.0346935,4.88602099 C33.0346935,3.33513958 33.4100977,2.15129643 35.1656403,2.15129643 C36.9716389,2.15129643 37.1339759,3.33513958 37.1339759,4.87581783 L37.1339759,5.00873476 L34.4554161,5.00873476 Z" id="Fill-13" fill="#FFFFFF" fill-rule="nonzero" mask="url(#mask-16)"></path>
            </g>
            <g id="Fill-14-Clipped">
              <mask id="mask-18" fill="white">
                <use xlink:href="#path-17"></use>
              </mask>
              <g id="path-1"></g>
              <path d="M40.0864245,3.0188414 C39.4573688,3.0188414 39.4370767,4.09044972 39.4370767,4.94724 C39.4370767,5.76376913 39.4675148,6.65144467 40.0762784,6.65144467 C40.7256263,6.65144467 40.7662188,5.79410287 40.7662188,4.92710942 C40.7662188,4.21261196 40.7763566,3.0188414 40.0864245,3.0188414 M42.206951,3.44765018 L42.206951,9.37596607 L40.7763566,9.37596607 L40.7763566,6.92693019 C40.4821208,7.33505687 40.0864245,7.51871388 39.5791215,7.51871388 C38.0977967,7.51871388 38.0064822,6.29433382 38.0064822,5.00873476 C38.0064822,3.5494061 38.0569383,2.17197853 39.5588294,2.17197853 C40.0965705,2.17197853 40.5531432,2.3658387 40.8372329,2.83518439 L40.857525,2.2740102 L42.2373892,2.2740102 C42.2275173,2.3352292 42.206951,3.38615542 42.206951,3.44765018" id="Fill-14" fill="#FFFFFF" fill-rule="nonzero" mask="url(#mask-18)"></path>
            </g>
            <g id="Fill-15-Clipped">
              <mask id="mask-20" fill="white">
                <use xlink:href="#path-19"></use>
              </mask>
              <g id="path-1"></g>
              <path d="M46.2449457,7.41673736 L46.2347997,6.86576634 C45.9304179,7.32490886 45.5042834,7.51876904 44.9462501,7.51876904 C43.9823744,7.51876904 43.5661117,7.05962651 43.5661117,6.05971613 L43.5661117,2.27406535 L44.9969804,2.27406535 L44.9969804,5.69212635 C44.9969804,6.18187838 45.0274185,6.67190616 45.5651597,6.67190616 C46.0724627,6.67190616 46.2145075,6.1311383 46.2145075,5.61050101 L46.2145075,2.27406535 L47.645102,2.27406535 L47.645102,6.58007766 C47.645102,6.82495367 47.6555223,7.19226769 47.6758144,7.41673736 L46.2449457,7.41673736 Z" id="Fill-15" fill="#FFFFFF" mask="url(#mask-20)"></path>
            </g>
            <g id="Fill-16-Clipped">
              <mask id="mask-22" fill="white">
                <use xlink:href="#path-21"></use>
              </mask>
              <g id="path-1"></g>
              <path d="M51.4395364,3.56981243 C51.3888061,3.24331108 51.2467613,2.99843507 50.8815031,2.99843507 C50.4959529,2.99843507 50.3336159,3.26399318 50.2727396,3.6412346 C50.2423014,3.83509478 50.2321553,4.01875178 50.2321553,4.24322146 L51.4699746,4.24322146 C51.4699746,4.01875178 51.4699746,3.77387577 51.4395364,3.56981243 Z M50.2220093,5.00873476 C50.2220093,5.04927167 50.2321553,5.42678885 50.2321553,5.45767412 C50.2625935,6.29433382 50.3742001,6.69225734 50.8713571,6.69225734 C51.4090983,6.69225734 51.4902667,6.18209899 51.4902667,5.7127533 L52.8701309,5.7127533 C52.8295466,6.98814919 52.2004909,7.53939598 50.8815031,7.53939598 C49.0650842,7.53939598 48.8012866,6.44738133 48.8012866,4.88602099 C48.8012866,3.33513958 49.1766909,2.15129643 50.9322334,2.15129643 C52.7382321,2.15129643 52.9005691,3.33513958 52.9005691,4.87581783 L52.9005691,5.00873476 L50.2220093,5.00873476 Z" id="Fill-16" fill="#FFFFFF" fill-rule="nonzero" mask="url(#mask-22)"></path>
            </g>
            <g id="Fill-17-Clipped">
              <mask id="mask-24" fill="white">
                <use xlink:href="#path-23"></use>
              </mask>
              <g id="path-1"></g>
              <path d="M58.8359318,2.99835234 C58.186584,2.99835234 58.1459998,3.91691315 58.1459998,4.88621403 C58.1459998,5.90653074 58.2576064,6.67176828 58.8359318,6.67176828 C59.4348236,6.67176828 59.4754078,5.65145156 59.4754078,4.75357285 C59.4754078,3.74318354 59.4244033,2.99835234 58.8359318,2.99835234 M59.3127966,7.51890692 C58.8054936,7.51890692 58.4097973,7.36585941 58.1459998,6.95745696 L58.1459998,9.37588334 L56.7255514,9.37588334 L56.7255514,3.39627586 C56.7255514,3.33533262 56.704985,2.33514647 56.6951132,2.27392747 L58.0952695,2.27392747 L58.1054155,2.83510167 C58.4097973,2.35555281 58.8968082,2.15148947 59.4142572,2.15148947 C60.8248338,2.15148947 60.9060023,3.28404102 60.9060023,4.79438552 C60.9060023,6.24351102 60.7943956,7.51890692 59.3127966,7.51890692" id="Fill-17" fill="#FFFFFF" fill-rule="nonzero" mask="url(#mask-24)"></path>
            </g>
            <g id="Fill-18-Clipped">
              <mask id="mask-26" fill="white">
                <use xlink:href="#path-25"></use>
              </mask>
              <g id="path-1"></g>
              <path d="M64.6799252,7.41673736 L64.6697792,6.86576634 C64.3653974,7.32490886 63.9392628,7.51876904 63.3812295,7.51876904 C62.4173539,7.51876904 62.0010912,7.05962651 62.0010912,6.05971613 L62.0010912,2.27406535 L63.4319598,2.27406535 L63.4319598,5.69212635 C63.4319598,6.18187838 63.462398,6.67190616 64.0001392,6.67190616 C64.5074422,6.67190616 64.649487,6.1311383 64.649487,5.61050101 L64.649487,2.27406535 L66.0800815,2.27406535 L66.0800815,6.58007766 C66.0800815,6.82495367 66.0905018,7.19226769 66.1107939,7.41673736 L64.6799252,7.41673736 Z" id="Fill-18" fill="#FFFFFF" mask="url(#mask-26)"></path>
            </g>
            <g id="Fill-19-Clipped">
              <mask id="mask-28" fill="white">
                <use xlink:href="#path-27"></use>
              </mask>
              <g id="path-1"></g>
              <path d="M69.5195684,2.99835234 C68.8803666,2.99835234 68.8194902,3.81488147 68.8194902,4.81479186 C68.8194902,5.84531174 68.8803666,6.67176828 69.4992762,6.67176828 C70.0776017,6.67176828 70.1486241,5.876197 70.1486241,4.75357285 C70.1486241,3.78427197 70.128332,2.99835234 69.5195684,2.99835234 M69.9761411,7.51890692 C69.3876696,7.51890692 69.0427035,7.33524991 68.7586139,6.86562846 L68.7586139,7.41659948 L67.3686037,7.41659948 C67.3686037,7.36585941 67.3990418,6.51899653 67.3990418,6.46770494 L67.3990418,0.0394338623 L68.8194902,0.0394338623 L68.8194902,2.77415842 C69.1340181,2.32521907 69.5702987,2.15148947 70.1080398,2.15148947 C71.5081961,2.15148947 71.5794927,3.29424419 71.5794927,4.80458869 C71.5794927,6.19221942 71.4574658,7.51890692 69.9761411,7.51890692" id="Fill-19" fill="#FFFFFF" fill-rule="nonzero" mask="url(#mask-28)"></path>
            </g>
            <g id="Fill-20-Clipped">
              <mask id="mask-30" fill="white">
                <use xlink:href="#path-29"></use>
              </mask>
              <g id="path-1"></g>
              <polygon id="Fill-20" fill="#FFFFFF" mask="url(#mask-30)" points="72.6847277 7.41687525 74.1153222 7.41687525 74.1153222 0.0394338623 72.6847277 0.0394338623"></polygon>
            </g>
            <g id="Fill-21-Clipped">
              <mask id="mask-32" fill="white">
                <use xlink:href="#path-31"></use>
              </mask>
              <g id="path-1"></g>
              <path d="M75.4343099,7.41659948 L76.8649044,7.41659948 L76.8649044,2.27392747 L75.4343099,2.27392747 L75.4343099,7.41659948 Z M75.4343099,1.25361075 L76.8649044,1.25361075 L76.8649044,0.100377104 L75.4343099,0.100377104 L75.4343099,1.25361075 Z" id="Fill-21" fill="#FFFFFF" fill-rule="nonzero" mask="url(#mask-32)"></path>
            </g>
            <g id="Fill-22-Clipped">
              <mask id="mask-34" fill="white">
                <use xlink:href="#path-33"></use>
              </mask>
              <g id="path-1"></g>
              <path d="M80.0508495,3.0188414 C79.4217937,3.0188414 79.4015016,4.09044972 79.4015016,4.94724 C79.4015016,5.76376913 79.4319398,6.65144467 80.0407034,6.65144467 C80.6900512,6.65144467 80.7306438,5.79410287 80.7306438,4.92710942 C80.7306438,4.21261196 80.7407815,3.0188414 80.0508495,3.0188414 M82.171376,3.44765018 L82.171376,9.37596607 L80.7407815,9.37596607 L80.7407815,6.92693019 C80.4465458,7.33505687 80.0508495,7.51871388 79.5435465,7.51871388 C78.0622217,7.51871388 77.9709072,6.29433382 77.9709072,5.00873476 C77.9709072,3.5494061 78.0213633,2.17197853 79.5232543,2.17197853 C80.0609955,2.17197853 80.5175682,2.3658387 80.8016579,2.83518439 L80.82195,2.2740102 L82.2018142,2.2740102 C82.1919423,2.3352292 82.171376,3.38615542 82.171376,3.44765018" id="Fill-22" fill="#FFFFFF" fill-rule="nonzero" mask="url(#mask-34)"></path>
            </g>
            <g id="Fill-23-Clipped">
              <mask id="mask-36" fill="white">
                <use xlink:href="#path-35"></use>
              </mask>
              <g id="path-1"></g>
              <path d="M86.1586404,7.41673736 L86.1487686,6.86576634 C85.8443868,7.32490886 85.417978,7.51876904 84.8599447,7.51876904 C83.896069,7.51876904 83.4800806,7.05962651 83.4800806,6.05971613 L83.4800806,2.27406535 L84.910675,2.27406535 L84.910675,5.69212635 C84.910675,6.18187838 84.9413874,6.67190616 85.4788544,6.67190616 C85.9861574,6.67190616 86.1284764,6.1311383 86.1284764,5.61050101 L86.1284764,2.27406535 L87.5587967,2.27406535 L87.5587967,6.58007766 C87.5587967,6.82495367 87.5692169,7.19226769 87.5895091,7.41673736 L86.1586404,7.41673736 Z" id="Fill-23" fill="#FFFFFF" mask="url(#mask-36)"></path>
            </g>
            <g id="Fill-24-Clipped">
              <mask id="mask-38" fill="white">
                <use xlink:href="#path-37"></use>
              </mask>
              <g id="path-1"></g>
              <path d="M91.3026105,3.56981243 C91.251606,3.24331108 91.1098354,2.99843507 90.7445772,2.99843507 C90.3590269,2.99843507 90.19669,3.26399318 90.1355394,3.6412346 C90.1053754,3.83509478 90.0952294,4.01875178 90.0952294,4.24322146 L91.3327745,4.24322146 C91.3327745,4.01875178 91.3327745,3.77387577 91.3026105,3.56981243 Z M90.0850833,5.00873476 C90.0850833,5.04927167 90.0952294,5.42678885 90.0952294,5.45767412 C90.1253933,6.29433382 90.237,6.69225734 90.7344311,6.69225734 C91.2721723,6.69225734 91.3533408,6.18209899 91.3533408,5.7127533 L92.7332049,5.7127533 C92.6926207,6.98814919 92.0632908,7.53939598 90.7445772,7.53939598 C88.9281583,7.53939598 88.6643607,6.44738133 88.6643607,4.88602099 C88.6643607,3.33513958 89.0397649,2.15129643 90.7950333,2.15129643 C92.6013062,2.15129643 92.7636431,3.33513958 92.7636431,4.87581783 L92.7636431,5.00873476 L90.0850833,5.00873476 Z" id="Fill-24" fill="#FFFFFF" fill-rule="nonzero" mask="url(#mask-38)"></path>
            </g>
            <g id="Fill-25-Clipped">
              <mask id="mask-40" fill="white">
                <use xlink:href="#path-39"></use>
              </mask>
              <g id="path-1"></g>
              <path d="M38.1280704,13.7530421 C37.5395989,13.7530421 37.4787226,14.5080764 37.4787226,15.6307006 C37.4787226,16.5285793 37.5294529,17.426458 38.1382165,17.426458 C38.7469801,17.426458 38.7977104,16.5897983 38.7977104,15.6307006 C38.7977104,14.6409934 38.7571261,13.7530421 38.1280704,13.7530421 Z M38.8687328,18.1712892 L38.8687328,17.6203182 C38.574497,18.0794607 38.1788007,18.2735966 37.6410595,18.2735966 C36.1696066,18.2735966 36.0481281,16.9673155 36.0481281,15.6100185 C36.0481281,14.0900223 36.2000448,12.9061792 37.559891,12.9061792 C38.0976322,12.9061792 38.5034746,13.0799088 38.8078564,13.5288481 L38.8078564,10.7941236 L40.2384509,10.7941236 L40.2384509,17.2121915 C40.2384509,17.2632073 40.2691633,18.1205491 40.2691633,18.1712892 L38.8687328,18.1712892 Z" id="Fill-25" fill="#FFFFFF" fill-rule="nonzero" mask="url(#mask-40)"></path>
            </g>
            <g id="Fill-26-Clipped">
              <mask id="mask-42" fill="white">
                <use xlink:href="#path-41"></use>
              </mask>
              <g id="path-1"></g>
              <polygon id="Fill-26" fill="#FFFFFF" mask="url(#mask-42)" points="42.3994519 13.1102425 41.4254302 13.1102425 41.7805423 10.7941236 43.1502604 10.7941236"></polygon>
            </g>
            <g id="Fill-27-Clipped">
              <mask id="mask-44" fill="white">
                <use xlink:href="#path-43"></use>
              </mask>
              <g id="path-1"></g>
              <path d="M44.3270388,18.1712892 L45.7576332,18.1712892 L45.7576332,13.0286172 L44.3270388,13.0286172 L44.3270388,18.1712892 Z M44.3270388,12.0083005 L45.7576332,12.0083005 L45.7576332,10.8550668 L44.3270388,10.8550668 L44.3270388,12.0083005 Z" id="Fill-27" fill="#FFFFFF" fill-rule="nonzero" mask="url(#mask-44)"></path>
            </g>
            <g id="Fill-28-Clipped">
              <mask id="mask-46" fill="white">
                <use xlink:href="#path-45"></use>
              </mask>
              <g id="path-1"></g>
              <path d="M49.7350532,18.1714271 L49.7350532,14.7428871 C49.7350532,14.2021193 49.704615,13.7633831 49.1668739,13.7633831 C48.6595709,13.7633831 48.5071058,14.3449636 48.5071058,14.8755283 L48.5071058,18.1714271 L47.0765113,18.1714271 L47.0765113,13.8552116 C47.0765113,13.6409451 47.0765113,13.2430216 47.0460731,13.0287551 L48.4870879,13.0287551 L48.4969597,13.5491166 C48.8117618,13.0999015 49.2480423,12.9060413 49.8060756,12.9060413 C50.8003895,12.9060413 51.1656477,13.4164754 51.1656477,14.4674016 L51.1656477,18.1714271 L49.7350532,18.1714271 Z" id="Fill-28" fill="#FFFFFF" mask="url(#mask-46)"></path>
            </g>
            <g id="Fill-29-Clipped">
              <mask id="mask-48" fill="white">
                <use xlink:href="#path-47"></use>
              </mask>
              <g id="path-1"></g>
              <path d="M54.7875991,11.6409589 C54.2092737,11.6409589 54.1078131,11.8654286 54.1078131,12.4572122 L54.1078131,13.0285896 L54.8789136,13.0285896 L54.8789136,13.9063377 L54.1078131,13.9063377 L54.1078131,18.1715374 L52.6870905,18.1715374 L52.6870905,13.9063377 L52.0073045,13.9063377 L52.0073045,13.0285896 L52.6870905,13.0285896 L52.6870905,12.2225394 C52.6870905,11.1716132 53.0523486,10.7226738 54.0672288,10.7226738 C54.3310264,10.7226738 54.6455543,10.732877 54.9093518,10.7532833 L54.9093518,11.651162 C54.8586215,11.6409589 54.8281833,11.6409589 54.7875991,11.6409589" id="Fill-29" fill="#FFFFFF" mask="url(#mask-48)"></path>
            </g>
            <g id="Fill-30-Clipped">
              <mask id="mask-50" fill="white">
                <use xlink:href="#path-49"></use>
              </mask>
              <g id="path-1"></g>
              <path d="M58.3286105,15.0389445 C58.3286105,14.3757386 58.2880172,13.7836791 57.6893996,13.7836791 C57.0197597,13.7836791 57.0096136,14.5897293 57.0096136,15.2631384 L57.0096136,16.2021055 C57.0096136,16.7122639 57.0299057,17.4162824 57.6792536,17.4162824 C58.3387475,17.4162824 58.3286105,16.6714512 58.3286105,16.0793917 L58.3286105,15.0389445 Z M57.6792536,18.2940305 C55.8428167,18.2940305 55.5688731,17.2428286 55.5688731,15.6202492 C55.5688731,14.079571 55.8729807,12.9062068 57.6995457,12.9062068 C59.5258365,12.9062068 59.7797622,13.8857108 59.7797622,15.498087 C59.7797622,17.1305937 59.5765668,18.2940305 57.6792536,18.2940305 Z" id="Fill-30" fill="#FFFFFF" fill-rule="nonzero" mask="url(#mask-50)"></path>
            </g>
            <g id="Fill-31-Clipped">
              <mask id="mask-52" fill="white">
                <use xlink:href="#path-51"></use>
              </mask>
              <g id="path-1"></g>
              <path d="M63.36091,14.1306144 C62.5289331,14.1306144 62.3155916,14.6305696 62.3155916,15.3756765 L62.3155916,18.1713444 L60.8849972,18.1713444 L60.8849972,13.998249 C60.8849972,13.9469574 60.854559,13.0796882 60.854559,13.0286723 L62.2242771,13.0286723 L62.2448434,13.6918782 C62.518787,13.1000945 62.9855058,12.9266407 63.5029548,12.9266407 C63.523247,12.9266407 63.5536851,12.9266407 63.6044154,12.9368438 L63.6044154,14.1510207 C63.5435391,14.1408176 63.4319324,14.1306144 63.36091,14.1306144" id="Fill-31" fill="#FFFFFF" mask="url(#mask-52)"></path>
            </g>
            <g id="Fill-32-Clipped">
              <mask id="mask-54" fill="white">
                <use xlink:href="#path-53"></use>
              </mask>
              <g id="path-1"></g>
              <path d="M69.6008465,18.1714271 L69.6008465,14.7224808 C69.6008465,14.242932 69.5907005,13.7735863 69.0732514,13.7735863 C68.5862405,13.7735863 68.4441957,14.3551668 68.4441957,14.8653252 L68.4441957,18.1714271 L67.013327,18.1714271 L67.013327,14.6408555 C67.013327,14.2021193 66.9625967,13.7735863 66.495878,13.7735863 C65.9784289,13.7735863 65.8566762,14.3551668 65.8566762,14.8857315 L65.8566762,18.1714271 L64.4362278,18.1714271 L64.4362278,13.7735863 C64.4362278,13.5899293 64.4362278,13.2019331 64.4057896,13.0287551 L65.8059459,13.0287551 L65.816092,13.6001324 C66.1001816,13.1715994 66.5364622,12.9060413 67.1046416,12.9060413 C67.7742815,12.9060413 68.0888094,13.1307867 68.3120227,13.6001324 C68.667409,13.1511931 69.0732514,12.9060413 69.6718689,12.9060413 C70.7574974,12.9060413 71.031441,13.5695229 71.031441,14.5898396 L71.031441,18.1714271 L69.6008465,18.1714271 Z" id="Fill-32" fill="#FFFFFF" mask="url(#mask-54)"></path>
            </g>
            <g id="Fill-33-Clipped">
              <mask id="mask-56" fill="white">
                <use xlink:href="#path-55"></use>
              </mask>
              <g id="path-1"></g>
              <path d="M74.7038759,15.6817716 L74.4806626,15.6817716 C73.8008766,15.6817716 73.4964948,15.9470539 73.4964948,16.6306661 C73.4964948,17.0183865 73.5979554,17.4061068 74.0342359,17.4061068 C74.5821232,17.4061068 74.7038759,16.7633073 74.7038759,16.2630763 L74.7038759,15.6817716 Z M74.8053365,18.1713444 L74.7748983,17.5594301 C74.4705165,18.0693127 74.0342359,18.273376 73.4356184,18.273376 C72.4714685,18.273376 72.0656261,17.6305765 72.0656261,16.7020883 C72.0656261,15.1713374 73.1210906,14.916534 74.3690559,14.916534 L74.7038759,14.916534 L74.7038759,14.6410485 C74.7038759,14.2023123 74.7038759,13.7122845 74.1762808,13.7122845 C73.7704384,13.7122845 73.6182475,13.998249 73.6182475,14.3757662 L73.6182475,14.4675947 L72.2076709,14.4675947 L72.2076709,14.3757662 C72.2076709,13.1715167 73.3037196,12.9062343 74.2270111,12.9062343 C75.5459989,12.9062343 76.1040322,13.37558 76.1040322,14.6815854 L76.1040322,16.5592439 C76.1040322,17.1000118 76.1243243,17.6407797 76.1953467,18.1713444 L74.8053365,18.1713444 Z" id="Fill-33" fill="#FFFFFF" fill-rule="nonzero" mask="url(#mask-56)"></path>
            </g>
            <g id="Fill-34-Clipped">
              <mask id="mask-58" fill="white">
                <use xlink:href="#path-57"></use>
              </mask>
              <g id="path-1"></g>
              <path d="M79.0158417,18.2427941 C77.9403593,18.2427941 77.5646809,17.9162927 77.5646809,16.8449602 L77.5646809,13.9061723 L76.905187,13.9061723 L76.905187,13.0286999 L77.5646809,13.0286999 L77.5646809,12.1512275 L78.9854035,11.5999807 L78.9854035,13.0286999 L79.7767962,13.0286999 L79.7767962,13.9061723 L78.9854035,13.9061723 L78.9854035,16.6817095 C78.9854035,17.1714615 79.0868641,17.3347122 79.5028525,17.3347122 C79.6144592,17.3347122 79.7159198,17.3245091 79.8173804,17.3041027 L79.8173804,18.1815751 C79.6550434,18.2124604 79.3100774,18.2427941 79.0158417,18.2427941" id="Fill-34" fill="#FFFFFF" mask="url(#mask-58)"></path>
            </g>
            <g id="Fill-35-Clipped">
              <mask id="mask-60" fill="white">
                <use xlink:href="#path-59"></use>
              </mask>
              <g id="path-1"></g>
              <path d="M80.6896947,18.1712892 L82.1202892,18.1712892 L82.1202892,13.0286172 L80.6896947,13.0286172 L80.6896947,18.1712892 Z M80.6896947,12.0083005 L82.1202892,12.0083005 L82.1202892,10.8550668 L80.6896947,10.8550668 L80.6896947,12.0083005 Z" id="Fill-35" fill="#FFFFFF" fill-rule="nonzero" mask="url(#mask-60)"></path>
            </g>
            <g id="Fill-36-Clipped">
              <mask id="mask-62" fill="white">
                <use xlink:href="#path-61"></use>
              </mask>
              <g id="path-1"></g>
              <path d="M85.9047786,15.0389445 C85.9047786,14.3757386 85.8644595,13.7836791 85.2655678,13.7836791 C84.5959278,13.7836791 84.5857817,14.5897293 84.5857817,15.2631384 L84.5857817,16.2021055 C84.5857817,16.7122639 84.6060739,17.4162824 85.2554217,17.4162824 C85.9149156,17.4162824 85.9047786,16.6714512 85.9047786,16.0793917 L85.9047786,15.0389445 Z M85.2554217,18.2940305 C83.4189849,18.2940305 83.1450412,17.2428286 83.1450412,15.6202492 C83.1450412,14.079571 83.449423,12.9062068 85.2757138,12.9062068 C87.1020046,12.9062068 87.3559303,13.8857108 87.3559303,15.498087 C87.3559303,17.1305937 87.1530091,18.2940305 85.2554217,18.2940305 Z" id="Fill-36" fill="#FFFFFF" fill-rule="nonzero" mask="url(#mask-62)"></path>
            </g>
            <g id="Fill-37-Clipped">
              <mask id="mask-64" fill="white">
                <use xlink:href="#path-63"></use>
              </mask>
              <g id="path-1"></g>
              <path d="M91.0385936,18.1714271 L91.0385936,14.7428871 C91.0385936,14.2021193 91.0081554,13.7633831 90.4704142,13.7633831 C89.9631112,13.7633831 89.8106461,14.3449636 89.8106461,14.8755283 L89.8106461,18.1714271 L88.3803259,18.1714271 L88.3803259,13.8552116 C88.3803259,13.6409451 88.3803259,13.2430216 88.3496135,13.0287551 L89.7906282,13.0287551 L89.8005,13.5491166 C90.1153021,13.0999015 90.5515827,12.9060413 91.109616,12.9060413 C92.1042041,12.9060413 92.4694622,13.4164754 92.4694622,14.4674016 L92.4694622,18.1714271 L91.0385936,18.1714271 Z" id="Fill-37" fill="#FFFFFF" mask="url(#mask-64)"></path>
            </g>
            <g id="Fill-38-Clipped">
              <mask id="mask-66" fill="white">
                <use xlink:href="#path-65"></use>
              </mask>
              <g id="path-1"></g>
              <path d="M27.6270355,28.7930896 C25.4557787,28.7930896 25.334026,27.2934997 25.334026,24.9666261 C25.334026,22.8443673 25.4151945,21.1302353 27.6879119,21.1302353 C29.1796569,21.1302353 29.7579823,21.8546601 29.7579823,23.2626972 L29.7579823,23.4259479 L28.6317697,23.4259479 L28.6317697,23.2933067 C28.6317697,22.6709135 28.4995967,21.9972287 27.6574737,21.9972287 C26.5515532,21.9972287 26.4906768,23.1402592 26.4906768,24.8952039 C26.4906768,27.0075353 26.5718453,27.9362993 27.6168895,27.9362993 C28.550327,27.9362993 28.6822258,27.2218018 28.6822258,26.4871738 L28.6822258,26.3239231 L29.8188587,26.3239231 L29.8188587,26.5177833 C29.8188587,28.0482584 29.1185063,28.7930896 27.6270355,28.7930896" id="Fill-38" fill="#FFFFFF" mask="url(#mask-66)"></path>
            </g>
            <g id="Fill-39-Clipped">
              <mask id="mask-68" fill="white">
                <use xlink:href="#path-67"></use>
              </mask>
              <g id="path-1"></g>
              <path d="M33.3391576,24.8850283 C33.2884273,24.4564953 33.1260903,24.1095876 32.6390794,24.1095876 C32.1317764,24.1095876 31.9288552,24.4462922 31.8679789,24.925841 C31.8375407,25.1403833 31.8273946,25.3342435 31.8273946,25.5686405 L33.3594497,25.5686405 C33.3594497,25.3342435 33.3695957,25.119977 33.3391576,24.8850283 Z M31.8273946,26.2117158 L31.8273946,26.6198425 C31.8273946,27.4871117 31.9491473,28.0482859 32.6086412,28.0482859 C33.247843,28.0482859 33.3594497,27.5177212 33.3695957,26.9871565 L34.3740557,26.9871565 C34.3233254,28.1605208 33.8467348,28.7627834 32.6086412,28.7627834 C30.9243953,28.7627834 30.7722044,27.5993466 30.7722044,26.2012369 C30.7722044,24.8136062 30.9243953,23.3851628 32.6695176,23.3851628 C34.0595278,23.3851628 34.3438917,24.2626351 34.394622,25.354374 C34.4044938,25.6298595 34.4044938,25.9257514 34.4044938,26.2117158 L31.8273946,26.2117158 Z" id="Fill-39" fill="#FFFFFF" fill-rule="nonzero" mask="url(#mask-68)"></path>
            </g>
            <g id="Fill-40-Clipped">
              <mask id="mask-70" fill="white">
                <use xlink:href="#path-69"></use>
              </mask>
              <g id="path-1"></g>
              <path d="M38.2092115,28.6503555 L38.2092115,25.2728314 C38.2092115,24.7116572 38.1990654,24.1198735 37.5294254,24.1198735 C36.9003697,24.1198735 36.6771564,24.8442984 36.6771564,25.3646599 L36.6771564,28.6503555 L35.621692,28.6503555 L35.621692,24.4769844 C35.621692,24.150483 35.6115459,23.8341849 35.5813819,23.5076835 L36.6467182,23.5076835 L36.6467182,24.1298009 C36.8800776,23.72195 37.3366503,23.3849697 37.9352678,23.3849697 C38.9600199,23.3849697 39.2644017,24.0790609 39.2644017,24.9769396 L39.2644017,28.6503555 L38.2092115,28.6503555 Z" id="Fill-40" fill="#FFFFFF" mask="url(#mask-70)"></path>
            </g>
            <g id="Fill-41-Clipped">
              <mask id="mask-72" fill="white">
                <use xlink:href="#path-71"></use>
              </mask>
              <g id="path-1"></g>
              <path d="M42.2268592,28.701261 C41.1919611,28.701261 40.9180175,28.3543534 40.9180175,27.354443 L40.9180175,24.2319981 L40.2075191,24.2319981 L40.2075191,23.5075732 L40.9180175,23.5075732 L40.9180175,22.5994913 L41.9732077,22.150552 L41.9732077,23.5075732 L42.8254768,23.5075732 L42.8254768,24.2319981 L41.9732077,24.2319981 L41.9732077,27.2218018 C41.9732077,27.7421633 42.0645223,27.9258203 42.521095,27.9258203 C42.6327016,27.9258203 42.7544543,27.9156172 42.8762071,27.8952108 L42.8762071,28.6607241 C42.6631398,28.6913336 42.4500725,28.701261 42.2268592,28.701261" id="Fill-41" fill="#FFFFFF" mask="url(#mask-72)"></path>
            </g>
            <g id="Fill-42-Clipped">
              <mask id="mask-74" fill="white">
                <use xlink:href="#path-73"></use>
              </mask>
              <g id="path-1"></g>
              <path d="M46.0213211,24.3647495 C45.2096363,24.3647495 44.8951084,24.8749079 44.8951084,25.6299423 L44.8951084,28.6503555 L43.839644,28.6503555 L43.839644,24.4361717 C43.839644,24.3035305 43.8092058,23.6403247 43.7990598,23.5076835 L44.81394,23.5076835 L44.8443781,24.1810925 C45.1386139,23.6199183 45.6053326,23.4053761 46.1126356,23.4053761 C46.1329277,23.4053761 46.173512,23.4053761 46.2140962,23.415855 L46.2140962,24.3851559 C46.173512,24.3749527 46.0821974,24.3647495 46.0213211,24.3647495" id="Fill-42" fill="#FFFFFF" mask="url(#mask-74)"></path>
            </g>
            <g id="Fill-43-Clipped">
              <mask id="mask-76" fill="white">
                <use xlink:href="#path-75"></use>
              </mask>
              <g id="path-1"></g>
              <path d="M49.3897307,24.8850283 C49.3390004,24.4564953 49.1766634,24.1095876 48.6896526,24.1095876 C48.1823496,24.1095876 47.9794284,24.4462922 47.918552,24.925841 C47.8881138,25.1403833 47.8779678,25.3342435 47.8779678,25.5686405 L49.4100228,25.5686405 C49.4100228,25.3342435 49.4201689,25.119977 49.3897307,24.8850283 Z M47.8779678,26.2117158 L47.8779678,26.6198425 C47.8779678,27.4871117 47.9997205,28.0482859 48.6592144,28.0482859 C49.2984162,28.0482859 49.4100228,27.5177212 49.4201689,26.9871565 L50.4246288,26.9871565 C50.3738985,28.1605208 49.8973079,28.7627834 48.6592144,28.7627834 C46.9749684,28.7627834 46.8227775,27.5993466 46.8227775,26.2012369 C46.8227775,24.8136062 46.9749684,23.3851628 48.7200907,23.3851628 C50.110101,23.3851628 50.3944648,24.2626351 50.4451951,25.354374 C50.455067,25.6298595 50.455067,25.9257514 50.455067,26.2117158 L47.8779678,26.2117158 Z" id="Fill-43" fill="#FFFFFF" fill-rule="nonzero" mask="url(#mask-76)"></path>
            </g>
            <g id="Fill-44-Clipped">
              <mask id="mask-78" fill="white">
                <use xlink:href="#path-77"></use>
              </mask>
              <g id="path-1"></g>
              <path d="M56.1163765,22.1301181 L55.538051,22.1301181 L55.538051,24.5893571 L56.0656462,24.5893571 C57.0092297,24.5893571 57.4052003,24.323799 57.4052003,23.3238886 C57.4052003,22.3749941 56.9990837,22.1301181 56.1163765,22.1301181 M56.1569607,25.4566263 L55.538051,25.4566263 L55.538051,28.6504934 L54.4016923,28.6504934 L54.4016923,21.273052 L56.3598819,21.273052 C57.8414809,21.273052 58.551705,21.7423977 58.551705,23.3136854 C58.551705,25.2321566 57.5878294,25.4566263 56.1569607,25.4566263" id="Fill-44" fill="#FFFFFF" fill-rule="nonzero" mask="url(#mask-78)"></path>
            </g>
            <g id="Fill-45-Clipped">
              <mask id="mask-80" fill="white">
                <use xlink:href="#path-79"></use>
              </mask>
              <g id="path-1"></g>
              <path d="M61.9401663,25.6810684 C61.9401663,24.966571 61.950306,24.1097807 61.1589134,24.1097807 C60.3167904,24.1097807 60.3269306,25.0994879 60.3269306,25.7014748 L60.3269306,26.5891503 C60.3269306,27.1914129 60.3167904,28.0482032 61.1386213,28.0482032 C61.9198679,28.0482032 61.9401663,27.242153 61.9401663,26.6404419 L61.9401663,25.6810684 Z M61.1386213,28.7627007 C59.403645,28.7627007 59.261326,27.6808892 59.261326,26.0993983 C59.261326,24.6403454 59.4642472,23.38508 61.1792055,23.38508 C62.8735975,23.38508 63.0054963,24.4462094 63.0054963,25.9769603 C63.0054963,27.670686 62.8127211,28.7627007 61.1386213,28.7627007 Z" id="Fill-45" fill="#FFFFFF" fill-rule="nonzero" mask="url(#mask-80)"></path>
            </g>
            <g id="Fill-46-Clipped">
              <mask id="mask-82" fill="white">
                <use xlink:href="#path-81"></use>
              </mask>
              <g id="path-1"></g>
              <path d="M69.1236526,28.6503555 L69.1236526,25.1707998 C69.1236526,24.6708446 69.1135066,24.1298009 68.504743,24.1298009 C67.9162715,24.1298009 67.7435143,24.7728762 67.7435143,25.2830346 L67.7435143,28.6503555 L66.6883241,28.6503555 L66.6883241,25.1605966 C66.6883241,24.5586097 66.6578859,24.1298009 66.0897065,24.1298009 C65.4403587,24.1298009 65.3084599,24.9463301 65.3084599,25.3850663 L65.3084599,28.6503555 L64.2532697,28.6503555 L64.2532697,24.2933274 C64.2532697,24.028045 64.2431236,23.7729659 64.2126854,23.5076835 L65.2678757,23.5076835 L65.2678757,24.1198735 C65.5215272,23.6913405 65.9780999,23.3849697 66.4854029,23.3849697 C67.2263394,23.3849697 67.4797167,23.7321532 67.6217616,24.1298009 C67.9061255,23.7423564 68.3221139,23.3849697 68.9004393,23.3849697 C70.0469441,23.3849697 70.1788429,24.3035305 70.1788429,25.1299871 L70.1788429,28.6503555 L69.1236526,28.6503555 Z" id="Fill-46" fill="#FFFFFF" mask="url(#mask-82)"></path>
            </g>
            <g id="Fill-47-Clipped">
              <mask id="mask-84" fill="white">
                <use xlink:href="#path-83"></use>
              </mask>
              <g id="path-1"></g>
              <path d="M73.4962754,24.1097255 C72.6744445,24.1097255 72.6541524,25.2422771 72.6541524,26.1401558 C72.6541524,27.068644 72.7150288,28.0178143 73.4962754,28.0178143 C74.2572299,28.0178143 74.2676502,26.7523458 74.2676502,25.9769051 C74.2676502,25.0583443 74.2369378,24.1097255 73.4962754,24.1097255 M73.8209493,28.7422392 C73.3237924,28.7422392 72.9483882,28.5891917 72.6744445,28.181065 L72.6744445,30.6094188 L71.6192543,30.6094188 L71.6192543,24.7117124 C71.6192543,24.5382585 71.5989622,23.6809167 71.5786701,23.5074629 L72.6135682,23.5074629 L72.6237142,24.079116 C72.91795,23.6097703 73.3948148,23.3850249 73.9021178,23.3850249 C75.2721101,23.3850249 75.3329865,24.630087 75.3329865,26.0177178 C75.3329865,27.3852179 75.2416719,28.7422392 73.8209493,28.7422392" id="Fill-47" fill="#FFFFFF" fill-rule="nonzero" mask="url(#mask-84)"></path>
            </g>
            <g id="Fill-48-Clipped">
              <mask id="mask-86" fill="white">
                <use xlink:href="#path-85"></use>
              </mask>
              <g id="path-1"></g>
              <path d="M76.5829449,28.6502176 L77.7614966,28.6502176 L77.7614966,23.5075456 L76.5829449,23.5075456 L76.5829449,28.6502176 Z M76.5599742,22.3647909 L77.7838548,22.3647909 L77.7838548,21.3648805 L76.5599742,21.3648805 L76.5599742,22.3647909 Z" id="Fill-48" fill="#FFFFFF" fill-rule="nonzero" mask="url(#mask-86)"></path>
            </g>
            <g id="Fill-49-Clipped">
              <mask id="mask-88" fill="white">
                <use xlink:href="#path-87"></use>
              </mask>
              <g id="path-1"></g>
              <path d="M80.740425,24.1097255 C79.9997627,24.1097255 79.9490324,25.0790264 79.9490324,26.0993431 C79.9490324,27.0278313 80.0302009,28.0280175 80.730279,28.0280175 C81.5115256,28.0280175 81.5521098,27.0278313 81.5521098,26.1299526 C81.5521098,25.1096359 81.5013795,24.1097255 80.740425,24.1097255 Z M81.6231323,28.6504107 L81.6028401,28.0790333 C81.3086044,28.5381758 80.9433462,28.7422392 80.4056051,28.7422392 C79.0051746,28.7422392 78.8836961,27.3648116 78.8836961,26.0687336 C78.8836961,24.6708997 79.0457588,23.3850249 80.3548748,23.3850249 C80.902762,23.3850249 81.2578741,23.5686819 81.5419638,23.9872875 L81.5419638,21.2729693 L82.597154,21.2729693 L82.597154,27.7012404 C82.597154,27.8443605 82.6275922,28.5075663 82.6377382,28.6504107 L81.6231323,28.6504107 Z" id="Fill-49" fill="#FFFFFF" fill-rule="nonzero" mask="url(#mask-88)"></path>
            </g>
            <g id="Fill-50-Clipped">
              <mask id="mask-90" fill="white">
                <use xlink:href="#path-89"></use>
              </mask>
              <g id="path-1"></g>
              <path d="M86.5236307,25.6810684 C86.5236307,24.966571 86.5337704,24.1097807 85.7421035,24.1097807 C84.8999805,24.1097807 84.9101207,25.0994879 84.9101207,25.7014748 L84.9101207,26.5891503 C84.9101207,27.1914129 84.8999805,28.0482032 85.7218114,28.0482032 C86.5033322,28.0482032 86.5236307,27.242153 86.5236307,26.6404419 L86.5236307,25.6810684 Z M85.7218114,28.7627007 C83.9871094,28.7627007 83.8447903,27.6808892 83.8447903,26.0993983 C83.8447903,24.6403454 84.0477115,23.38508 85.7626698,23.38508 C87.4570618,23.38508 87.5889606,24.4462094 87.5889606,25.9769603 C87.5889606,27.670686 87.3961855,28.7627007 85.7218114,28.7627007 Z" id="Fill-50" fill="#FFFFFF" fill-rule="nonzero" mask="url(#mask-90)"></path>
            </g>
            <g id="Fill-51-Clipped">
              <mask id="mask-92" fill="white">
                <use xlink:href="#path-91"></use>
              </mask>
              <g id="path-1"></g>
              <path d="M91.4442714,28.6503555 L91.4343996,28.0585718 C91.1401639,28.5177143 90.7340472,28.742184 90.18616,28.742184 C89.2220101,28.742184 88.836734,28.191213 88.836734,27.2318395 L88.836734,23.5076835 L89.8919243,23.5076835 L89.8919243,26.8750044 C89.8919243,27.3851628 89.9020703,28.0177592 90.5818563,28.0177592 C91.2717884,28.0177592 91.4141075,27.3134649 91.4141075,26.7522907 L91.4141075,23.5076835 L92.4690235,23.5076835 L92.4690235,27.6807789 C92.4690235,28.0381655 92.4895898,28.313651 92.5098819,28.6503555 L91.4442714,28.6503555 Z" id="Fill-51" fill="#FFFFFF" mask="url(#mask-92)"></path>
            </g>
          </g>
        </g>
      </g>
    </g>
  </g>
</svg>
