<?xml version="1.0" encoding="UTF-8"?>
<svg xmlns="http://www.w3.org/2000/svg" xmlns:xlink="http://www.w3.org/1999/xlink" width="183px" height="100px" viewBox="0 0 183 100" version="1.1">
  <!-- Generator: Sketch 58 (84663) - https://sketch.com -->
  <title>CP-Kana-BLANC-Rectangle Copy</title>
  <desc>Created with Sketch.</desc>
  <defs>
    <polygon id="path-1" points="0.0294896641 0.441327273 105.844302 0.441327273 105.844302 26.9705455 0.0294896641 26.9705455"></polygon>
  </defs>
  <g id="Page-1" stroke="none" stroke-width="1" fill="none" fill-rule="evenodd">
    <g id="CP-Kana-BLANC-Rectangle">
      <g id="CP-Kana-BLANC" transform="translate(9.000000, 36.000000)">
        <g id="Group">
          <g id="Group-4">
            <mask id="mask-2" fill="white">
              <use xlink:href="#path-1"></use>
            </mask>
            <g id="Clip-2"></g>
            <path d="M105.844302,26.9990182 L105.844302,21.8145273 L99.8018702,21.8145273 L99.8018702,0.441327273 L93.9270376,0.441327273 L93.9270376,26.9990182 L105.844302,26.9990182 Z M85.8891381,18.1631455 L83.7860336,18.1631455 L84.5704587,5.42601818 L85.1042216,5.42601818 L85.8891381,18.1631455 Z M80.2974063,0.441327273 L77.2929011,26.9990182 L83.001117,26.9990182 L83.3687548,22.9981091 L86.339347,22.9981091 L86.7571172,26.9990182 L92.4319116,26.9990182 L89.4942496,0.441327273 L80.2974063,0.441327273 Z M70.146081,0.441327273 L70.146081,13.1450727 L67.4423703,0.441327273 L61.3999381,0.441327273 L61.3999381,26.9990182 L67.1410842,26.9990182 L67.1410842,13.7120727 L70.0792377,26.9990182 L75.8208753,26.9990182 L75.8208753,0.441327273 L70.146081,0.441327273 Z M53.3615472,18.1631455 L51.2584426,18.1631455 L52.0433592,5.42601818 L52.5771221,5.42601818 L53.3615472,18.1631455 Z M47.7698154,0.441327273 L44.7653101,26.9990182 L50.4740175,26.9990182 L50.8411639,22.9981091 L53.8122475,22.9981091 L54.2295263,26.9990182 L59.9048121,26.9990182 L56.9671501,0.441327273 L47.7698154,0.441327273 Z M34.7093346,0.441327273 L28.9008538,0.441327273 L28.9008538,26.9990182 L34.7432477,26.9990182 L34.7432477,14.1288545 L37.9477912,26.9990182 L44.0403558,26.9990182 L40.0676066,12.5947636 L43.3557041,0.441327273 L37.4469584,0.441327273 L34.7093346,11.0606727 L34.7093346,0.441327273 Z" id="Fill-1" fill="#FFFFFF" mask="url(#mask-2)"></path>
            <path d="M1.20612726,25.7948182 L1.20612726,2.49823636 L24.5304856,25.7948182 L1.20612726,25.7948182 Z M24.535892,1.64650909 L13.3258877,12.9001091 L2.05887005,1.64650909 L24.535892,1.64650909 Z M14.1786305,13.7518364 L26.4138921,1.4688 C26.5289018,1.35392727 26.5898471,1.19978182 26.5898471,1.04367273 C26.5898471,0.965618182 26.5746108,0.887563636 26.5436466,0.812454545 C26.4502627,0.588109091 26.2300732,0.441625596 25.9867835,0.441625596 L0.606995586,0.441625596 C0.593233742,0.441327273 0.577505922,0.441625596 0.562269595,0.4428 C0.438413006,0.451145455 0.324877799,0.4968 0.232476852,0.568472727 C0.202004199,0.592036364 0.174480512,0.618545455 0.149414298,0.647018182 C0.0570133506,0.752072727 0.000491494401,0.890018182 0,1.04072727 C0,1.04121818 0,1.04121818 0,1.04121818 C0,1.0422 0,1.04318182 0,1.04416364 L0,26.5257818 L0.0137618432,26.5257818 C0.0727411714,26.7967636 0.314064922,27 0.60306363,27 L25.9867835,27 C26.2305647,27 26.4507542,26.8527273 26.5441381,26.6278909 C26.5751023,26.5532727 26.5898471,26.4747273 26.5898471,26.3971636 C26.5893556,26.2400727 26.5284103,26.0869091 26.4134006,25.9720364 L14.1786305,13.7518364 L14.1786305,13.7518364 Z" id="Fill-3" fill="#FFFFFF" mask="url(#mask-2)"></path>
          </g>
          <path d="M116.907985,25.743803 L158.665513,25.743803 L158.665513,1.25569789 L116.907985,1.25569789 L105.073546,13.4992514 L116.907985,25.743803 Z M159.274133,27 L116.65524,27 C116.493039,27 116.3381,26.9331226 116.223348,26.8148395 L103.782226,13.9424389 C103.54546,13.6973881 103.54546,13.3011146 103.782226,13.0560639 L116.223348,0.184162369 C116.3381,0.0658792214 116.493039,0 116.65524,0 L159.274133,0 C159.611125,0 159.883721,0.280485776 159.883721,0.627349859 L159.883721,26.3721511 C159.883721,26.7185161 159.611125,27 159.274133,27 L159.274133,27 Z" id="Fill-5" fill="#FFFFFF"></path>
          <path d="M134.75174,7.74642244 C134.75174,7.54035489 134.797895,7.38580424 134.89261,7.2832611 C134.986363,7.17973669 135.113291,7.12871044 135.273392,7.12871044 C135.433974,7.12871044 135.560902,7.17973669 135.654655,7.2832611 C135.748889,7.38580424 135.795525,7.54035489 135.795525,7.74642244 L135.795525,8.36462507 L134.75174,8.36462507 L134.75174,7.74642244 Z M136.860465,7.72532505 C136.860465,7.24204759 136.721037,6.84070652 136.443143,6.52081119 C136.303715,6.37214817 136.13496,6.25439529 135.936395,6.16951509 C135.737831,6.08414425 135.51715,6.04145883 135.273392,6.04145883 C134.939246,6.04145883 134.655102,6.11260119 134.422883,6.25439529 C134.189702,6.39668002 134.010369,6.584594 133.884884,6.81960913 C133.808439,6.96140322 133.755552,7.12478535 133.728628,7.30926486 C133.700262,7.49423502 133.686319,7.6968681 133.686319,7.91667348 L133.686319,9.69670455 C133.686319,9.91650994 133.700262,10.119143 133.728628,10.3036225 C133.755552,10.4885927 133.808439,10.6519748 133.884884,10.7937689 C134.010369,11.0282934 134.189702,11.216698 134.422883,11.3584921 C134.655102,11.5007768 134.939246,11.5714286 135.273392,11.5714286 C135.51715,11.5714286 135.736389,11.5287432 135.931587,11.4438629 C136.126306,11.3584921 136.293138,11.2412299 136.432566,11.0920762 C136.717672,10.8011285 136.860465,10.4174503 136.860465,9.94153242 L135.795525,9.94153242 C135.781582,10.0622291 135.741196,10.1829258 135.675329,10.3036225 C135.609461,10.4243192 135.474841,10.4851582 135.273392,10.4851582 C135.113291,10.4851582 134.986363,10.4385477 134.89261,10.346308 C134.797895,10.2540682 134.75174,10.1225775 134.75174,9.95232644 L134.75174,9.21686156 L136.860465,9.21686156 L136.860465,7.72532505 Z M132.047321,11.5081364 L132.047321,8.30035162 C132.047321,8.08005561 132.081938,7.89557609 132.151652,7.74642244 C132.220885,7.59726879 132.311273,7.47657208 132.423296,7.38433232 C132.527626,7.29209257 132.643976,7.22634721 132.772346,7.18660561 C132.901196,7.14784529 133.021874,7.12871044 133.132935,7.12871044 C133.244477,7.12871044 133.352173,7.14980783 133.456984,7.19249325 L133.456984,6.04145883 C133.150243,6.04145883 132.893023,6.09837272 132.684362,6.21220051 C132.47522,6.32553766 132.263194,6.48205086 132.047321,6.68075885 L132.047321,6.10524164 L130.982381,6.10524164 L130.982381,11.5081364 L132.047321,11.5081364 Z M128.006319,6.10524164 L128.006319,6.95796876 L128.539029,6.95796876 L128.539029,10.2398397 C128.539029,10.3821245 128.561626,10.5293156 128.606339,10.6819037 C128.652014,10.8344918 128.72317,10.9713795 128.821251,11.0920762 C128.918369,11.2127729 129.048662,11.3123722 129.21261,11.3908742 C129.376077,11.4688854 129.579449,11.5081364 129.823208,11.5081364 L130.261684,11.5081364 L130.261684,10.4851582 C130.143891,10.4851582 130.044369,10.4812331 129.964078,10.4743642 C129.884267,10.4670047 129.816477,10.4459073 129.760705,10.4100908 C129.704453,10.3747649 129.664548,10.3217761 129.640509,10.2506337 C129.615989,10.1794914 129.603969,10.0798921 129.603969,9.95232644 L129.603969,6.95796876 L130.261684,6.95796876 L130.261684,6.10524164 L129.603969,6.10524164 L129.603969,4.46406084 L128.539029,4.46406084 L128.539029,6.10524164 L128.006319,6.10524164 Z M125.437482,11.5081364 L125.437482,7.87398806 C125.437482,7.63259465 125.476426,7.44811514 125.552871,7.32005888 C125.628835,7.19249325 125.768262,7.12871044 125.970192,7.12871044 C126.137506,7.12871044 126.265875,7.1851337 126.357225,7.29896148 C126.446651,7.41229863 126.492325,7.56930248 126.492325,7.76751983 L126.492325,11.5081364 L127.557746,11.5081364 L127.557746,7.3627443 C127.557746,7.12184152 127.526014,6.91724589 127.463512,6.75042931 C127.400529,6.58312209 127.317353,6.446725 127.213023,6.33976613 C127.108212,6.2332979 126.989938,6.15724916 126.857722,6.11063865 C126.725506,6.0650094 126.59329,6.04145883 126.460594,6.04145883 C126.217797,6.04145883 126.017309,6.09641017 125.860573,6.20631286 C125.703837,6.31670619 125.570179,6.45702838 125.458637,6.62777005 L125.437482,6.62777005 L125.437482,6.10524164 L124.373023,6.10524164 L124.373023,11.5081364 L125.437482,11.5081364 Z M121.584948,7.74642244 C121.584948,7.54035489 121.631584,7.38580424 121.725818,7.2832611 C121.819571,7.17973669 121.946979,7.12871044 122.107081,7.12871044 C122.267182,7.12871044 122.39411,7.17973669 122.487863,7.2832611 C122.582097,7.38580424 122.629214,7.54035489 122.629214,7.74642244 L122.629214,8.36462507 L121.584948,8.36462507 L121.584948,7.74642244 Z M123.694635,7.72532505 C123.694635,7.24204759 123.554726,6.84070652 123.27587,6.52081119 C123.136923,6.37214817 122.968648,6.25439529 122.770084,6.16951509 C122.572,6.08414425 122.350839,6.04145883 122.107081,6.04145883 C121.772454,6.04145883 121.489271,6.11260119 121.25561,6.25439529 C121.022909,6.39668002 120.843576,6.584594 120.718091,6.81960913 C120.642127,6.96140322 120.589722,7.12478535 120.561355,7.30926486 C120.533951,7.49423502 120.520008,7.6968681 120.520008,7.91667348 L120.520008,9.69670455 C120.520008,9.91650994 120.533951,10.119143 120.561355,10.3036225 C120.589722,10.4885927 120.642127,10.6519748 120.718091,10.7937689 C120.843576,11.0282934 121.022909,11.216698 121.25561,11.3584921 C121.489271,11.5007768 121.772454,11.5714286 122.107081,11.5714286 C122.350839,11.5714286 122.570077,11.5287432 122.764795,11.4438629 C122.959513,11.3584921 123.126827,11.2412299 123.266255,11.0920762 C123.55136,10.8011285 123.694635,10.4174503 123.694635,9.94153242 L122.629214,9.94153242 C122.615271,10.0622291 122.574885,10.1829258 122.509017,10.3036225 C122.44315,10.4243192 122.309011,10.4851582 122.107081,10.4851582 C121.946979,10.4851582 121.819571,10.4385477 121.725818,10.346308 C121.631584,10.2540682 121.584948,10.1225775 121.584948,9.95232644 L121.584948,9.21686156 L123.694635,9.21686156 L123.694635,7.72532505 Z M118.776199,9.34491782 L118.776199,9.71780195 C118.776199,9.8669556 118.755525,9.99108676 118.713216,10.0906861 C118.671868,10.1902854 118.619463,10.2682967 118.556961,10.3252106 C118.487247,10.3821245 118.412244,10.4228473 118.332434,10.4473792 C118.252143,10.4728923 118.17714,10.4851582 118.107907,10.4851582 C117.864149,10.4851582 117.695393,10.4100908 117.60164,10.2609371 C117.507406,10.1117835 117.46077,9.92681331 117.46077,9.70700793 L117.46077,5.82803173 C117.46077,5.57240985 117.504521,5.36143593 117.591062,5.19412871 C117.678085,5.02780276 117.853571,4.94390384 118.118484,4.94390384 C118.319933,4.94390384 118.480516,5.02240576 118.598789,5.17842833 C118.717062,5.33494153 118.776199,5.51942105 118.776199,5.73284815 L118.776199,6.09493826 L119.841619,6.09493826 L119.841619,5.66906534 C119.841619,5.4060839 119.797868,5.16272794 119.710846,4.93899747 C119.623824,4.71477635 119.503627,4.52146537 119.350257,4.35808324 C119.037265,4.02445008 118.63004,3.85714286 118.128581,3.85714286 C117.87136,3.85714286 117.636256,3.90130019 117.42423,3.99010549 C117.211242,4.07891079 117.029024,4.20157004 116.876134,4.35808324 C116.722764,4.51410581 116.604491,4.69907597 116.520834,4.91250307 C116.437177,5.12494889 116.395349,5.35603892 116.395349,5.60479189 L116.395349,9.78109412 C116.395349,10.1294464 116.449197,10.4154878 116.557854,10.6392183 C116.66507,10.8629487 116.803055,11.0459563 116.969888,11.1882411 C117.13672,11.3305258 117.324707,11.4296345 117.533849,11.4865484 C117.742991,11.5434623 117.947805,11.5714286 118.149735,11.5714286 C118.386282,11.5714286 118.607443,11.5238368 118.812738,11.4276719 C119.018034,11.3319977 119.197367,11.2024695 119.350257,11.0390874 C119.503627,10.8757053 119.623824,10.6892632 119.710846,10.4797612 C119.797868,10.2702592 119.841619,10.0480007 119.841619,9.81347616 L119.841619,9.34491782 L118.776199,9.34491782 L118.776199,9.34491782 Z" id="Fill-7" fill="#FFFFFF"></path>
          <path d="M154.927684,16.4430314 L154.927684,20.266671 C154.927684,20.5212704 154.887275,20.7154477 154.806457,20.8502356 C154.726144,20.9850236 154.579661,21.0526757 154.367513,21.0526757 C154.192238,21.0526757 154.056868,20.9922536 153.961906,20.8729585 C153.866945,20.753147 153.819464,20.5884062 153.819464,20.3792525 L153.819464,16.4430314 L152.700637,16.4430314 L152.700637,20.8053063 C152.700637,21.0593893 152.732964,21.2747402 152.799134,21.450326 C152.864799,21.6264282 152.953194,21.7699955 153.062298,21.8820606 C153.172413,21.9941256 153.296166,22.0746885 153.435578,22.1232328 C153.573979,22.1722936 153.712885,22.1960493 153.852297,22.1960493 C154.108389,22.1960493 154.318517,22.1382093 154.483184,22.0220128 C154.647851,21.9063327 154.787768,21.758634 154.905459,21.5794332 L154.927684,21.5794332 L154.927684,22.1289136 L156.046512,22.1289136 L156.046512,16.4430314 L154.927684,16.4430314 Z M149.826538,18.1699697 C149.826538,17.9530695 149.87604,17.7903944 149.974537,17.6819444 C150.073034,17.5734943 150.206384,17.5192693 150.374587,17.5192693 C150.54279,17.5192693 150.676645,17.5734943 150.775142,17.6819444 C150.87364,17.7903944 150.923141,17.9530695 150.923141,18.1699697 L150.923141,20.4014589 C150.923141,20.6188755 150.87364,20.7815506 150.775142,20.8894842 C150.676645,20.9984507 150.54279,21.0526757 150.374587,21.0526757 C150.206384,21.0526757 150.073034,20.9984507 149.974537,20.8894842 C149.87604,20.7815506 149.826538,20.6188755 149.826538,20.4014589 L149.826538,18.1699697 Z M148.707711,20.2222581 C148.707711,20.4536182 148.721854,20.6669034 148.751151,20.8615971 C148.780447,21.0557743 148.835,21.2277451 148.915818,21.3769931 C149.047653,21.6238461 149.235555,21.8226712 149.48104,21.9719192 C149.726021,22.1216836 150.024038,22.1960493 150.374587,22.1960493 C150.725641,22.1960493 151.023658,22.1216836 151.269144,21.9719192 C151.514124,21.8226712 151.702026,21.6238461 151.833861,21.3769931 C151.914174,21.2277451 151.968727,21.0557743 151.998528,20.8615971 C152.027825,20.6669034 152.042473,20.4536182 152.042473,20.2222581 L152.042473,18.3491705 C152.042473,18.1178103 152.027825,17.9045252 151.998528,17.7103479 C151.968727,17.5156543 151.914174,17.3436834 151.833861,17.193919 C151.702026,16.9475825 151.514124,16.7497902 151.269144,16.5995094 C151.023658,16.449745 150.725641,16.3753793 150.374587,16.3753793 C150.024038,16.3753793 149.726021,16.449745 149.48104,16.5995094 C149.235555,16.7497902 149.047653,16.9475825 148.915818,17.193919 C148.835,17.3436834 148.780447,17.5156543 148.751151,17.7103479 C148.721854,17.9045252 148.707711,18.1178103 148.707711,18.3491705 L148.707711,20.2222581 Z M148.049547,22.1289136 L148.049547,14.1433736 L146.930215,14.1433736 L146.930215,16.9584275 L146.908495,16.9584275 C146.784237,16.7714802 146.636239,16.627913 146.463995,16.5266929 C146.292256,16.4259893 146.096777,16.3753793 145.877557,16.3753793 C145.59924,16.3753793 145.391133,16.42444 145.252226,16.5210122 C144.952189,16.707443 144.78045,16.9883803 144.736505,17.3622749 C144.714785,17.5569686 144.703673,17.8595959 144.703673,18.2711897 L144.703673,20.4350268 C144.703673,20.749532 144.718321,21 144.747618,21.1869473 C144.776409,21.3738945 144.824395,21.5308889 144.89006,21.657414 C145.072406,22.0168485 145.398709,22.1960493 145.86594,22.1960493 C146.005351,22.1960493 146.126074,22.1810729 146.228107,22.15112 C146.330645,22.1216836 146.42207,22.0803692 146.502889,22.0276935 C146.582697,21.9760506 146.656443,21.9140791 146.722108,21.842812 C146.788278,21.7715448 146.856973,21.6956297 146.930215,21.6130011 L146.930215,22.1289136 L148.049547,22.1289136 Z M145.8225,18.1921761 C145.8225,18.0124588 145.861394,17.8554645 145.937666,17.7206765 C146.014443,17.586405 146.158906,17.5192693 146.371054,17.5192693 C146.53168,17.5192693 146.66503,17.5776257 146.771104,17.6933058 C146.877178,17.8089859 146.930215,17.9561681 146.930215,18.1364018 L146.930215,20.3451682 C146.930215,20.5548383 146.879198,20.7252598 146.77666,20.8559163 C146.674627,20.9870893 146.539257,21.0526757 146.371054,21.0526757 C146.180626,21.0526757 146.042225,20.9814086 145.954335,20.8388742 C145.86594,20.6973727 145.8225,20.5104254 145.8225,20.2785488 L145.8225,18.1921761 Z M142.828184,15.2872636 L143.947012,15.2872636 L143.947012,14.1428571 L142.828184,14.1428571 L142.828184,15.2872636 Z M142.828184,22.1289136 L143.947012,22.1289136 L143.947012,16.4430314 L142.828184,16.4430314 L142.828184,22.1289136 Z M140.788029,20.3792525 C140.788029,20.5584533 140.749135,20.7154477 140.672358,20.8502356 C140.595581,20.9850236 140.451623,21.0526757 140.239475,21.0526757 C140.077839,21.0526757 139.944489,20.9943193 139.83892,20.8781228 C139.732341,20.7624427 139.679304,20.614744 139.679304,20.4350268 L139.679304,18.225744 C139.679304,18.0171067 139.730826,17.8466852 139.832859,17.7160287 C139.935902,17.5848557 140.071272,17.5192693 140.239475,17.5192693 C140.429398,17.5192693 140.568305,17.5905364 140.656194,17.7325544 C140.743579,17.8740559 140.788029,18.0615196 140.788029,18.2933962 L140.788029,20.3792525 Z M139.679304,24.4285714 L139.679304,21.6130011 L139.701024,21.6130011 C139.825787,21.7999484 139.973786,21.9435156 140.145524,22.0442192 C140.317768,22.1459557 140.513247,22.1960493 140.732972,22.1960493 C141.010279,22.1960493 141.222427,22.147505 141.36891,22.0504164 C141.661371,21.8639855 141.829574,21.5830482 141.873519,21.2091537 C141.895744,21.0222064 141.905846,20.7195791 141.905846,20.3002388 L141.905846,18.1364018 C141.905846,17.822413 141.891198,17.5714286 141.862912,17.3844813 C141.83311,17.1980505 141.785629,17.0410561 141.719964,16.9140146 C141.529536,16.5545801 141.204243,16.3753793 140.743579,16.3753793 C140.465261,16.3753793 140.253619,16.4311536 140.107641,16.5437351 C139.961158,16.6552837 139.81821,16.7942031 139.679304,16.9584275 L139.679304,16.4430314 L138.560477,16.4430314 L138.560477,24.4285714 L139.679304,24.4285714 Z M133.185559,22.1289136 L133.185559,18.3042412 C133.185559,18.0501582 133.225968,17.8554645 133.306281,17.7206765 C133.386594,17.586405 133.532572,17.5192693 133.74472,17.5192693 C133.9205,17.5192693 134.055365,17.579175 134.150832,17.6984701 C134.245288,17.8182816 134.293274,17.9830224 134.293274,18.1921761 L134.293274,22.1289136 L135.412606,22.1289136 L135.412606,18.3042412 C135.412606,18.0501582 135.45251,17.8554645 135.532824,17.7206765 C135.613137,17.586405 135.760125,17.5192693 135.971263,17.5192693 C136.147547,17.5192693 136.282918,17.579175 136.377879,17.6984701 C136.472841,17.8182816 136.520321,17.9830224 136.520321,18.1921761 L136.520321,22.1289136 L137.639149,22.1289136 L137.639149,17.7661223 C137.639149,17.5120392 137.602781,17.2966884 137.529034,17.1211026 C137.456298,16.9450003 137.360831,16.8014331 137.24415,16.6888516 C137.127468,16.577303 136.995634,16.49674 136.849151,16.4481957 C136.703678,16.3996514 136.560225,16.3753793 136.421824,16.3753793 C136.121281,16.3753793 135.887414,16.4311536 135.719211,16.5437351 C135.551008,16.6552837 135.397958,16.7900717 135.258547,16.9475825 C135.156009,16.8050481 135.024174,16.674908 134.864053,16.5545801 C134.702921,16.4347686 134.501886,16.3753793 134.260442,16.3753793 C134.004854,16.3753793 133.794221,16.4332193 133.630059,16.5494158 C133.465392,16.6650959 133.324465,16.813311 133.207784,16.9919954 L133.185559,16.9919954 L133.185559,16.4430314 L132.066732,16.4430314 L132.066732,22.1289136 L133.185559,22.1289136 Z M129.027966,18.1699697 C129.027966,17.9530695 129.077467,17.7903944 129.175964,17.6819444 C129.275472,17.5734943 129.408317,17.5192693 129.57652,17.5192693 C129.744723,17.5192693 129.878073,17.5734943 129.97657,17.6819444 C130.076078,17.7903944 130.125074,17.9530695 130.125074,18.1699697 L130.125074,20.4014589 C130.125074,20.6188755 130.076078,20.7815506 129.97657,20.8894842 C129.878073,20.9984507 129.744723,21.0526757 129.57652,21.0526757 C129.408317,21.0526757 129.275472,20.9984507 129.175964,20.8894842 C129.077467,20.7815506 129.027966,20.6188755 129.027966,20.4014589 L129.027966,18.1699697 Z M127.909139,20.2222581 C127.909139,20.4536182 127.923787,20.6669034 127.952578,20.8615971 C127.98238,21.0557743 128.036932,21.2277451 128.117751,21.3769931 C128.24908,21.6238461 128.436983,21.8226712 128.682468,21.9719192 C128.927448,22.1216836 129.225466,22.1960493 129.57652,22.1960493 C129.927574,22.1960493 130.225086,22.1216836 130.470572,21.9719192 C130.715047,21.8226712 130.903959,21.6238461 131.035794,21.3769931 C131.116107,21.2277451 131.171165,21.0557743 131.199956,20.8615971 C131.229253,20.6669034 131.243901,20.4536182 131.243901,20.2222581 L131.243901,18.3491705 C131.243901,18.1178103 131.229253,17.9045252 131.199956,17.7103479 C131.171165,17.5156543 131.116107,17.3436834 131.035794,17.193919 C130.903959,16.9475825 130.715047,16.7497902 130.470572,16.5995094 C130.225086,16.449745 129.927574,16.3753793 129.57652,16.3753793 C129.225466,16.3753793 128.927448,16.449745 128.682468,16.5995094 C128.436983,16.7497902 128.24908,16.9475825 128.117751,17.193919 C128.036932,17.3436834 127.98238,17.5156543 127.952578,17.7103479 C127.923787,17.9045252 127.909139,18.1178103 127.909139,18.3491705 L127.909139,20.2222581 Z M125.769981,15.2206442 C125.9892,15.2206442 126.157909,15.2536957 126.27459,15.3213479 C126.391776,15.3884836 126.479161,15.4850558 126.537754,15.6126138 C126.596347,15.7396553 126.62918,15.8873539 126.636251,16.0557098 C126.643828,16.2240656 126.647364,16.4017171 126.647364,16.588148 C126.647364,16.7900717 126.642313,16.9734039 126.630695,17.1376283 C126.620088,17.3028855 126.58473,17.4407721 126.526642,17.5528371 C126.468049,17.6726486 126.376623,17.7661223 126.252365,17.833258 C126.128107,17.9009102 125.952327,17.9339617 125.726036,17.9339617 L125.188595,17.9339617 L125.188595,15.2206442 L125.769981,15.2206442 Z M125.188595,22.1289136 L125.188595,19.0107159 L125.758869,19.0107159 C126.176093,19.0107159 126.511993,18.9378994 126.768086,18.7922665 C127.024179,18.6461171 127.22875,18.4431605 127.382305,18.1808147 C127.513634,17.964431 127.600009,17.7325544 127.639913,17.4851849 C127.679817,17.2393648 127.700527,16.936221 127.700527,16.577303 C127.700527,16.0990898 127.663653,15.7189981 127.590917,15.4385772 C127.517675,15.1581563 127.385841,14.9133691 127.195918,14.7042154 C127.00549,14.4950616 126.793847,14.3494287 126.559979,14.2668001 C126.326111,14.1841715 126.05537,14.1433736 125.747756,14.1433736 L124.069767,14.1433736 L124.069767,22.1289136 L125.188595,22.1289136 L125.188595,22.1289136 Z" id="Fill-6" fill="#FFFFFF"></path>
        </g>
      </g>
    </g>
  </g>
</svg>
