<?xml version="1.0" encoding="UTF-8"?>
<svg xmlns="http://www.w3.org/2000/svg" xmlns:xlink="http://www.w3.org/1999/xlink" width="183px" height="100px" viewBox="0 0 183 100" version="1.1">
  <!-- Generator: Sketch 58 (84663) - https://sketch.com -->
  <title>CP-Malag-BLANC-Rectangle Copy</title>
  <desc>Created with Sketch.</desc>
  <defs>
    <polygon id="path-1" points="0.0109322034 0.168727567 7.54686441 0.168727567 7.54686441 16.8485743 0.0109322034 16.8485743"></polygon>
  </defs>
  <g id="Page-1" stroke="none" stroke-width="1" fill="none" fill-rule="evenodd">
    <g id="CP-Malag-BLANC-Rectangle">
      <g id="CP-Malaga-BLANC" transform="translate(49.000000, 20.000000)">
        <g id="Group">
          <g id="Group-3">
            <mask id="mask-2" fill="white">
              <use xlink:href="#path-1"></use>
            </mask>
            <g id="Clip-2"></g>
            <path d="M7.54686441,13.047166 C7.54686441,15.0746448 5.91978814,16.8485743 3.84194068,16.8485743 C2.06236017,16.8485743 0,15.9732428 0,12.9779163 L0,3.94723579 C0,1.80470713 1.53542797,0.168727567 3.79657203,0.168727567 C5.94274576,0.168727567 7.54686441,1.80470713 7.54686441,4.08518569 L7.54686441,5.0068669 L5.20955932,5.0068669 L5.20955932,4.22368519 C5.20955932,3.30218719 4.66240254,2.51882228 3.77361441,2.51882228 C2.61079237,2.51882228 2.33730508,3.32527044 2.33730508,4.43106805 L2.33730508,12.8168831 C2.33730508,13.7614644 2.70207627,14.4984796 3.75083898,14.4984796 C4.38909746,14.4984796 5.20955932,14.1300636 5.20955932,12.8399664 L5.20955932,12.0337014 L7.54686441,12.0337014 L7.54686441,13.047166" id="Fill-1" fill="#FFFFFF" mask="url(#mask-2)"></path>
          </g>
          <path d="M11.4562203,8.57780907 C11.4562203,7.70760718 11.8929619,7.24923978 12.6053771,7.24923978 C13.318339,7.24923978 13.7552627,7.70760718 13.7552627,8.57780907 L13.7552627,9.90601196 L11.4562203,9.90601196 L11.4562203,8.57780907 Z M16.0920212,11.7491912 L16.0920212,8.53219217 C16.0920212,6.48895813 14.7632119,4.89914506 12.6053771,4.89914506 C11.1810932,4.89914506 10.1042712,5.56764332 9.55456356,6.58129113 C9.23370339,7.17999003 9.11946186,8.00494143 9.11946186,8.94420987 L9.11946186,12.7890366 C9.11946186,13.7363659 9.23370339,14.5677293 9.55456356,15.1667946 C10.1042712,16.1806256 11.1810932,16.8485743 12.6053771,16.8485743 C13.6860254,16.8485743 14.5341822,16.457075 15.1525805,15.81166 C15.7485678,15.1889619 16.0920212,14.2901807 16.0920212,13.3221498 L13.7552627,13.3221498 C13.7088008,13.8286989 13.5018178,14.4984796 12.6053771,14.4984796 C11.8929619,14.4984796 11.4562203,14.0827979 11.4562203,13.343401 L11.4562203,11.7491912 L16.0920212,11.7491912 L16.0920212,11.7491912 Z" id="Fill-4" fill="#FFFFFF"></path>
          <path d="M17.9180636,5.03764457 L20.2553686,5.03764457 L20.2553686,6.16634222 L20.3012839,6.16634222 C20.7839407,5.42914382 21.4276653,4.89914506 22.5079492,4.89914506 C23.6767839,4.89914506 24.9141271,5.65979312 24.9141271,7.75578888 L24.9141271,16.7119068 L22.576822,16.7119068 L22.576822,8.63093719 C22.576822,7.77887213 22.1630381,7.24923978 21.4276653,7.24923978 C20.5541822,7.24923978 20.2553686,7.82503863 20.2553686,8.86085369 L20.2553686,16.7119068 L17.9180636,16.7119068 L17.9180636,5.03764457" id="Fill-5" fill="#FFFFFF"></path>
          <path d="M27.357839,1.48923604 L29.6953263,1.48923604 L29.6953263,5.03727817 L31.1385593,5.03727817 L31.1385593,6.88045738 L29.6953263,6.88045738 L29.6953263,13.3476147 C29.6953263,14.4299626 30.1074703,14.4986628 31.1385593,14.4986628 L31.1385593,16.7100748 L30.1763432,16.7100748 C28.06825,16.7100748 27.357839,15.2129611 27.357839,13.9693968 L27.357839,6.88045738 L26.1893686,6.88045738 L26.1893686,5.03727817 L27.357839,5.03727817 L27.357839,1.48923604" id="Fill-6" fill="#FFFFFF"></path>
          <path d="M32.788411,5.03764457 L35.1257161,5.03764457 L35.1257161,6.28157527 C36.08775,5.42914382 36.8670339,4.89914506 38.2188008,4.89914506 L38.2188008,7.38755608 C37.9897712,7.29540628 37.7609237,7.24923978 37.5083898,7.24923978 C36.5230339,7.24923978 35.1257161,7.87083873 35.1257161,9.78180209 L35.1257161,16.7119068 L32.788411,16.7119068 L32.788411,5.03764457" id="Fill-7" fill="#FFFFFF"></path>
          <path d="M41.1745042,8.57780907 C41.1745042,7.70760718 41.6110636,7.24923978 42.323661,7.24923978 C43.0366229,7.24923978 43.4733644,7.70760718 43.4733644,8.57780907 L43.4733644,9.90601196 L41.1745042,9.90601196 L41.1745042,8.57780907 Z M45.8103051,11.7491912 L45.8103051,8.53219217 C45.8103051,6.48895813 44.4811314,4.89914506 42.323661,4.89914506 C40.8995593,4.89914506 39.8223729,5.56764332 39.2728475,6.58129113 C38.9518051,7.17999003 38.8373814,8.00494143 38.8373814,8.94420987 L38.8373814,12.7890366 C38.8373814,13.7363659 38.9518051,14.5677293 39.2728475,15.1667946 C39.8223729,16.1806256 40.8995593,16.8485743 42.323661,16.8485743 C43.4039449,16.8485743 44.2521017,16.457075 44.8712288,15.81166 C45.4666695,15.1889619 45.8103051,14.2901807 45.8103051,13.3221498 L43.4733644,13.3221498 C43.4274492,13.8286989 43.2202839,14.4984796 42.323661,14.4984796 C41.6110636,14.4984796 41.1745042,14.0827979 41.1745042,13.343401 L41.1745042,11.7491912 L45.8103051,11.7491912 L45.8103051,11.7491912 Z" id="Fill-8" fill="#FFFFFF"></path>
          <path d="M20.2316822,22.8912562 L21.4406017,22.8912562 C23.2651864,22.8912562 23.2651864,24.1615678 23.2651864,25.7083288 C23.2651864,27.3476059 23.2422288,28.479418 21.3493178,28.479418 L20.2316822,28.479418 L20.2316822,22.8912562 Z M17.8949237,37.0845239 L20.2316822,37.0845239 L20.2316822,30.6906468 L21.4176441,30.6906468 C23.1279873,30.6906468 24.1587119,30.0457814 24.8000678,28.9859671 C25.3497754,28.0866363 25.4643814,27.1169566 25.4643814,25.6852455 C25.4643814,23.722986 25.2125763,22.6840566 24.4101525,21.8316251 C23.6084576,20.9793769 22.67175,20.6798442 21.3948686,20.6798442 L17.8949237,20.6798442 L17.8949237,37.0845239 L17.8949237,37.0845239 Z" id="Fill-9" fill="#FFFFFF"></path>
          <path d="M28.5263093,28.956655 C28.5263093,28.0822395 28.9628686,27.6218569 29.6754661,27.6218569 C30.3880636,27.6218569 30.8246229,28.0822395 30.8246229,28.956655 L30.8246229,33.5362986 C30.8246229,34.4110805 30.3880636,34.8710967 29.6754661,34.8710967 C28.9628686,34.8710967 28.5263093,34.4110805 28.5263093,33.5362986 L28.5263093,28.956655 Z M26.188822,33.1680658 C26.188822,34.1115479 26.3036102,34.9405297 26.6242881,35.5390454 C27.174178,36.5530596 28.2511822,37.2210082 29.6754661,37.2210082 C31.09975,37.2210082 32.1767542,36.5530596 32.7266441,35.5390454 C33.0475042,34.9405297 33.1621102,34.1115479 33.1621102,33.1680658 L33.1621102,29.3247046 C33.1621102,28.3814058 33.0475042,27.552424 32.7266441,26.9539083 C32.1767542,25.9397109 31.09975,25.2717622 29.6754661,25.2717622 C28.2511822,25.2717622 27.174178,25.9397109 26.6242881,26.9539083 C26.3036102,27.552424 26.188822,28.3814058 26.188822,29.3247046 L26.188822,33.1680658 L26.188822,33.1680658 Z" id="Fill-10" fill="#FFFFFF"></path>
          <path d="M34.8733644,25.4102617 L37.2104873,25.4102617 L37.2104873,26.5389594 L37.2562203,26.5389594 C37.7392415,25.8015778 38.3827839,25.2717622 39.46325,25.2717622 C40.4717458,25.2717622 41.1360593,25.8708275 41.5483856,26.4468096 C42.1221441,25.8015778 42.7425466,25.2717622 43.9838983,25.2717622 C45.1534619,25.2717622 46.5280042,26.0320439 46.5280042,28.128406 L46.5280042,37.0845239 L44.1908814,37.0845239 L44.1908814,29.0033711 C44.1908814,28.1514893 43.7769153,27.6218569 43.0415424,27.6218569 C42.1680593,27.6218569 41.8688814,28.1974726 41.8688814,29.233654 L41.8688814,37.0845239 L39.5321229,37.0845239 L39.5321229,29.0033711 C39.5321229,28.1514893 39.1181568,27.6218569 38.3827839,27.6218569 C37.5093008,27.6218569 37.2104873,28.1974726 37.2104873,29.233654 L37.2104873,37.0845239 L34.8733644,37.0845239 L34.8733644,25.4102617" id="Fill-11" fill="#FFFFFF"></path>
          <path d="M53.0964364,33.4904985 C53.0964364,34.2267809 52.8435381,34.8710967 51.9470975,34.8710967 C51.2805975,34.8710967 50.7749831,34.3418308 50.7749831,33.6053652 L50.7749831,29.0720713 C50.7749831,28.2201894 51.2346822,27.6216737 51.9470975,27.6216737 C52.7517076,27.6216737 53.0964364,28.2663559 53.0964364,29.2100212 L53.0964364,33.4904985 Z M48.437678,41.8149414 L50.7749831,41.8149414 L50.7749831,36.0230608 L50.8208983,36.0230608 C51.3265127,36.7835257 52.06225,37.2210082 52.9816483,37.2210082 C54.10475,37.2210082 54.6775975,36.7835257 55.0669661,36.1615603 C55.3648686,35.6775449 55.4337415,35.0095962 55.4337415,33.3294654 L55.4337415,28.8877717 C55.4337415,27.5985905 55.3189534,26.8844753 55.0440085,26.3775598 C54.6316822,25.6174614 53.9442288,25.2717622 53.0046059,25.2717622 C51.8319449,25.2717622 51.3722458,25.8015778 50.7749831,26.4698928 L50.7749831,25.4102617 L48.437678,25.4102617 L48.437678,41.8149414 L48.437678,41.8149414 Z" id="Fill-12" fill="#FFFFFF"></path>
          <path d="M57.3508856,37.0845239 L59.6881907,37.0845239 L59.6881907,25.4084297 L57.3508856,25.4084297 L57.3508856,37.0845239 Z M57.3508856,23.0297557 L59.6881907,23.0297557 L59.6881907,20.6798442 L57.3508856,20.6798442 L57.3508856,23.0297557 Z" id="Fill-13" fill="#FFFFFF"></path>
          <path d="M63.9495636,29.0028215 C63.9495636,28.2661727 64.2022797,27.6216737 65.0987203,27.6216737 C65.7654025,27.6216737 66.2710169,28.1509397 66.2710169,28.8875885 L66.2710169,33.4212488 C66.2710169,34.272581 65.8113178,34.8710967 65.0987203,34.8710967 C64.2941102,34.8710967 63.9495636,34.2267809 63.9495636,33.2832989 L63.9495636,29.0028215 Z M66.2710169,37.0825087 L68.608322,37.0825087 L68.608322,20.677829 L66.2710169,20.677829 L66.2710169,26.4698928 L66.2251017,26.4698928 C65.7193051,25.7092448 64.98375,25.2717622 64.0641695,25.2717622 C62.94125,25.2717622 62.3685847,25.7092448 61.9790339,26.3317597 C61.6811314,26.8152256 61.6122585,27.4837238 61.6122585,29.1638547 L61.6122585,33.6053652 C61.6122585,34.89418 61.7270466,35.6082951 62.0019915,36.1153938 C62.4145,36.8753091 63.1017712,37.2210082 64.0413941,37.2210082 C65.2135085,37.2210082 65.6737542,36.6911927 66.2710169,36.0230608 L66.2710169,37.0825087 L66.2710169,37.0825087 Z" id="Fill-14" fill="#FFFFFF"></path>
          <path d="M72.6561525,28.956655 C72.6561525,28.0822395 73.0928941,27.6218569 73.8053093,27.6218569 C74.5177246,27.6218569 74.9546483,28.0822395 74.9546483,28.956655 L74.9546483,33.5362986 C74.9546483,34.4110805 74.5177246,34.8710967 73.8053093,34.8710967 C73.0928941,34.8710967 72.6561525,34.4110805 72.6561525,33.5362986 L72.6561525,28.956655 Z M70.3188475,33.1680658 C70.3188475,34.1115479 70.4334534,34.9405297 70.7541314,35.5390454 C71.3042034,36.5530596 72.3810254,37.2210082 73.8053093,37.2210082 C75.2295932,37.2210082 76.3065975,36.5530596 76.8564873,35.5390454 C77.1773475,34.9405297 77.2919534,34.1115479 77.2919534,33.1680658 L77.2919534,29.3247046 C77.2919534,28.3814058 77.1773475,27.552424 76.8564873,26.9539083 C76.3065975,25.9397109 75.2295932,25.2717622 73.8053093,25.2717622 C72.3810254,25.2717622 71.3042034,25.9397109 70.7541314,26.9539083 C70.4334534,27.552424 70.3188475,28.3814058 70.3188475,29.3247046 L70.3188475,33.1680658 L70.3188475,33.1680658 Z" id="Fill-15" fill="#FFFFFF"></path>
          <path d="M85.9987246,37.0825087 L83.6619661,37.0825087 L83.6619661,35.9538111 L83.6160508,35.9538111 C83.1330297,36.6911927 82.4893051,37.2210082 81.4093856,37.2210082 C80.2403686,37.2210082 79.0033898,36.4609098 79.0033898,34.3643644 L79.0033898,25.4084297 L81.3401483,25.4084297 L81.3401483,33.4899489 C81.3401483,34.3412812 81.7539322,34.8712799 82.4893051,34.8712799 C83.3627881,34.8712799 83.6619661,34.2956643 83.6619661,33.2592996 L83.6619661,25.4084297 L85.9987246,25.4084297 L85.9987246,37.0825087" id="Fill-16" fill="#FFFFFF"></path>
          <path d="M14.8727161,57.4560419 L17.1078051,57.4560419 L17.1078051,47.9158811 L17.1517161,47.9158811 L19.3428941,54.657839 L20.4605297,54.657839 L22.6737542,47.9158811 L22.7174831,47.9158811 L22.7174831,57.4560419 L24.952572,57.4560419 L24.952572,41.7687749 L22.7830763,41.7687749 L19.9345085,50.075081 L19.8905975,50.075081 L17.0201653,41.7687749 L14.8727161,41.7687749 L14.8727161,57.4560419 Z M31.0662246,57.4560419 L33.3013136,57.4560419 L33.3013136,49.6784521 C33.3013136,47.3430135 31.8112542,46.1533101 29.9487712,46.1533101 C28.9406398,46.1533101 28.1079703,46.5057876 27.5163559,47.1006393 C26.9245593,47.695491 26.5741822,48.5327168 26.5084068,49.5241974 L28.6777203,49.5241974 C28.8092712,48.797075 29.3790212,48.4004462 29.9487712,48.4004462 C30.7812585,48.4004462 31.0662246,48.9733138 31.0662246,49.7226034 L31.0662246,50.8903228 C30.606161,50.8683387 30.2993305,50.8241874 29.9925,50.8241874 C27.187661,50.8241874 26.4644958,52.0580421 26.4644958,54.6136877 C26.4644958,57.0813971 27.8450508,57.5883126 28.8750466,57.5883126 C29.9487712,57.5883126 30.4308814,57.1253652 31.0224958,56.3103066 L31.0662246,56.3103066 L31.0662246,57.4560419 Z M31.0662246,54.1730907 C31.0662246,55.0764519 30.606161,55.6053514 29.8611314,55.6053514 C29.1379661,55.6053514 28.6997669,55.0324838 28.6997669,54.1730907 C28.6997669,52.9833873 29.4885254,52.5867585 30.4527458,52.5867585 C30.6498898,52.5867585 30.8251695,52.6089257 31.0662246,52.6527106 L31.0662246,54.1730907 Z M28.5463517,44.8093519 L29.9925,44.8093519 L32.8849788,41.7026396 L30.5185212,41.7026396 L28.5463517,44.8093519 Z M34.7255975,54.4596162 C34.7255975,57.059413 35.9964661,57.5883126 38.0562754,57.5883126 L38.0562754,55.4730808 C37.2017415,55.3847782 36.9606864,55.1425872 36.9606864,54.3053614 L36.9606864,41.7687749 L34.7255975,41.7687749 L34.7255975,54.4596162 Z M43.5123559,57.4560419 L45.7474449,57.4560419 L45.7474449,49.6784521 C45.7474449,47.3430135 44.2572034,46.1533101 42.3949025,46.1533101 C41.3867712,46.1533101 40.5541017,46.5057876 39.9624873,47.1006393 C39.3708729,47.695491 39.0203136,48.5327168 38.9545381,49.5241974 L41.1238517,49.5241974 C41.2554025,48.797075 41.8251525,48.4004462 42.3949025,48.4004462 C43.227572,48.4004462 43.5123559,48.9733138 43.5123559,49.7226034 L43.5123559,50.8903228 C43.0522924,50.8683387 42.7454619,50.8241874 42.4386314,50.8241874 C39.6337924,50.8241874 38.9106271,52.0580421 38.9106271,54.6136877 C38.9106271,57.0813971 40.2911822,57.5883126 41.321178,57.5883126 C42.3949025,57.5883126 42.8770127,57.1253652 43.4684449,56.3103066 L43.5123559,56.3103066 L43.5123559,57.4560419 Z M43.5123559,54.1730907 C43.5123559,55.0764519 43.0522924,55.6053514 42.3072627,55.6053514 C41.5840975,55.6053514 41.1458983,55.0324838 41.1458983,54.1730907 C41.1458983,52.9833873 41.9346568,52.5867585 42.8988771,52.5867585 C43.0960212,52.5867585 43.2711186,52.6089257 43.5123559,52.6527106 L43.5123559,54.1730907 Z M47.3032797,58.7560319 C47.5880636,61.3116775 49.2750847,62.1049352 50.6337754,62.1049352 C53.0005975,62.1049352 53.9866822,60.3423642 53.9866822,58.821984 L53.9866822,46.2853976 L51.7512288,46.2853976 L51.7512288,47.2990454 C51.181661,46.6598592 50.7434619,46.1533101 49.6476907,46.1533101 C48.5741483,46.1533101 48.0262627,46.571923 47.653839,47.1667747 C47.3688729,47.6293557 47.3032797,48.2683587 47.3032797,49.8768582 L47.3032797,54.1291226 C47.3032797,55.3629773 47.4127839,56.0459484 47.6757034,56.5306967 C48.0701737,57.257819 48.7275636,57.5883126 49.6258263,57.5883126 C50.5244534,57.5883126 51.225572,57.1696997 51.7076822,56.4425773 L51.7512288,56.4425773 L51.7512288,58.6457453 C51.7512288,59.3508836 51.4447627,59.8576159 50.7215975,59.8576159 C49.9547034,59.8576159 49.5602331,59.2847483 49.5383686,58.7560319 L47.3032797,58.7560319 Z M49.5383686,49.9208263 C49.5383686,49.0174651 49.8668814,48.4004462 50.6337754,48.4004462 C51.3132119,48.4004462 51.7512288,48.9733138 51.7512288,49.7887388 L51.7512288,54.1291226 C51.7512288,54.8340778 51.2694831,55.3408101 50.6337754,55.3408101 C49.7794237,55.3408101 49.5383686,54.7239743 49.5383686,54.018836 L49.5383686,49.9208263 Z M59.9686017,57.4560419 L62.2035085,57.4560419 L62.2035085,49.6784521 C62.2035085,47.3430135 60.7136314,46.1533101 58.8511483,46.1533101 C57.8430169,46.1533101 57.0103475,46.5057876 56.4185508,47.1006393 C55.8269364,47.695491 55.4765593,48.5327168 55.4106017,49.5241974 L57.5800975,49.5241974 C57.7116483,48.797075 58.2813983,48.4004462 58.8511483,48.4004462 C59.6836356,48.4004462 59.9686017,48.9733138 59.9686017,49.7226034 L59.9686017,50.8903228 C59.5083559,50.8683387 59.2017076,50.8241874 58.8946949,50.8241874 C56.0900381,50.8241874 55.3668729,52.0580421 55.3668729,54.6136877 C55.3668729,57.0813971 56.7472458,57.5883126 57.7774237,57.5883126 C58.8511483,57.5883126 59.3330763,57.1253652 59.9248729,56.3103066 L59.9686017,56.3103066 L59.9686017,57.4560419 Z M59.9686017,54.1730907 C59.9686017,55.0764519 59.5083559,55.6053514 58.7635085,55.6053514 C58.0403432,55.6053514 57.6019619,55.0324838 57.6019619,54.1730907 C57.6019619,52.9833873 58.3909025,52.5867585 59.3551229,52.5867585 C59.5522669,52.5867585 59.7275466,52.6089257 59.9686017,52.6527106 L59.9686017,54.1730907 L59.9686017,54.1730907 Z" id="Fill-17" fill="#DC3E39"></path>
        </g>
      </g>
    </g>
  </g>
</svg>
