<?xml version="1.0" encoding="UTF-8"?>
<svg xmlns="http://www.w3.org/2000/svg" xmlns:xlink="http://www.w3.org/1999/xlink" width="183px" height="100px" viewBox="0 0 183 100" version="1.1">
  <!-- Generator: Sketch 58 (84663) - https://sketch.com -->
  <title>CP-Metz-BLANC-Rectangle Copy</title>
  <desc>Created with Sketch.</desc>
  <defs>
    <polygon id="path-1" points="0 0.0292100217 7.54386531 0.0292100217 7.54386531 13.2987417 0 13.2987417"></polygon>
    <polygon id="path-3" points="0 52.6808859 112.477895 52.6808859 112.477895 -2.84217094e-14 0 -2.84217094e-14"></polygon>
  </defs>
  <g id="Page-1" stroke="none" stroke-width="1" fill="none" fill-rule="evenodd">
    <g id="CP-Metz-BLANC-Rectangle">
      <g id="CP-Metz-BLANC" transform="translate(34.000000, 13.000000)">
        <g id="Group-33" transform="translate(1.210526, 0.000000)">
          <path d="M27.4993482,31.1610141 C23.552169,31.1610141 23.3308534,28.4629104 23.3308534,24.2786895 C23.3308534,20.4611232 23.4783971,17.3776307 27.6100061,17.3776307 C30.3215065,17.3776307 31.3727556,18.6806118 31.3727556,21.2135489 L31.3727556,21.5071784 L29.325202,21.5071784 L29.325202,21.2686044 C29.325202,20.1487595 29.0854435,18.9375376 27.5546772,18.9375376 C25.5443937,18.9375376 25.4337359,20.9933267 25.4337359,24.1498443 C25.4337359,27.9494411 25.5808954,29.6194591 27.4809053,29.6194591 C29.1776583,29.6194591 29.4174169,28.3344475 29.4174169,27.0131146 L29.4174169,26.719485 L31.4834135,26.719485 L31.4834135,27.0681701 C31.4834135,29.8213294 30.2108487,31.1610141 27.4993482,31.1610141" id="Fill-1" fill="#FEFEFE"></path>
          <path d="M37.8823547,24.1315689 C37.7901399,23.3607913 37.4950524,22.7368286 36.60979,22.7368286 C35.6876416,22.7368286 35.3187822,23.3428218 35.2081244,24.2049763 C35.1527955,24.590365 35.1343526,24.9390501 35.1343526,25.3615249 L37.9192407,25.3615249 C37.9192407,24.9390501 37.9376836,24.5536613 37.8823547,24.1315689 L37.8823547,24.1315689 Z M35.1343526,26.5176912 L35.1343526,27.251765 C35.1343526,28.811672 35.3552839,29.8214058 36.5544611,29.8214058 C37.716368,29.8214058 37.9192407,28.8671098 37.9376836,27.9128138 L39.7635374,27.9128138 C39.6713226,30.0228938 38.8045031,31.1060351 36.5544611,31.1060351 C33.4925442,31.1060351 33.2158997,29.0139246 33.2158997,26.498957 C33.2158997,24.0031059 33.4925442,21.4334652 36.6651189,21.4334652 C39.1918054,21.4334652 39.7082085,23.0121063 39.8008076,24.9761361 C39.8192505,25.471636 39.8192505,26.0034572 39.8192505,26.5176912 L35.1343526,26.5176912 Z" id="Fill-3" fill="#FEFEFE"></path>
          <path d="M46.7349791,30.9041265 L46.7349791,24.8289008 C46.7349791,23.8199316 46.7165361,22.7555245 45.4993003,22.7555245 C44.3554521,22.7555245 43.9497068,24.0585056 43.9497068,24.9944497 L43.9497068,30.9041265 L42.0316382,30.9041265 L42.0316382,23.3974568 C42.0316382,22.8101977 42.0131952,22.2412905 41.9578663,21.6540314 L43.8943779,21.6540314 L43.8943779,22.773494 C44.3185661,22.0394202 45.1488839,21.4334269 46.237019,21.4334269 C48.0997587,21.4334269 48.6530477,22.6817348 48.6530477,24.2970796 L48.6530477,30.9041265 L46.7349791,30.9041265 Z" id="Fill-5" fill="#FEFEFE"></path>
          <path d="M54.0379332,30.9959622 C52.1567505,30.9959622 51.6587904,30.3716171 51.6587904,28.5731362 L51.6587904,22.957089 L50.3673984,22.957089 L50.3673984,21.6537256 L51.6587904,21.6537256 L51.6587904,20.0204112 L53.576859,19.21293 L53.576859,21.6537256 L55.1260682,21.6537256 L55.1260682,22.957089 L53.576859,22.957089 L53.576859,28.3345622 C53.576859,29.2705063 53.7428457,29.6012219 54.5727792,29.6012219 C54.7756519,29.6012219 54.9969675,29.5828701 55.2182831,29.545784 L55.2182831,30.9225548 C54.8309808,30.9776104 54.4436784,30.9959622 54.0379332,30.9959622" id="Fill-7" fill="#FEFEFE"></path>
          <path d="M60.9352956,23.1955483 C59.4598582,23.1955483 58.8881262,24.1131406 58.8881262,25.4715595 L58.8881262,30.9040883 L56.9696734,30.9040883 L56.9696734,23.3240112 C56.9696734,23.0854372 56.9143445,21.8925672 56.8959015,21.6539932 L58.7405825,21.6539932 L58.7959114,22.8655974 C59.3307574,21.8558635 60.179134,21.4704747 61.1012823,21.4704747 C61.1381683,21.4704747 61.2119401,21.4704747 61.285712,21.4888266 L61.285712,23.2326343 C61.2119401,23.2142824 61.0459534,23.1955483 60.9352956,23.1955483" id="Fill-9" fill="#FEFEFE"></path>
          <path d="M67.0583608,24.1315689 C66.966146,23.3607913 66.6710585,22.7368286 65.7857961,22.7368286 C64.8636477,22.7368286 64.4947883,23.3428218 64.3841305,24.2049763 C64.3288016,24.590365 64.3103587,24.9390501 64.3103587,25.3615249 L67.0952468,25.3615249 C67.0952468,24.9390501 67.1136897,24.5536613 67.0583608,24.1315689 L67.0583608,24.1315689 Z M64.3103587,26.5176912 L64.3103587,27.251765 C64.3103587,28.811672 64.53129,29.8214058 65.7304672,29.8214058 C66.8923741,29.8214058 67.0952468,28.8671098 67.1136897,27.9128138 L68.9395435,27.9128138 C68.8477129,30.0228938 67.9805092,31.1060351 65.7304672,31.1060351 C62.6685503,31.1060351 62.3919058,29.0139246 62.3919058,26.498957 C62.3919058,24.0031059 62.6685503,21.4334652 65.841125,21.4334652 C68.3678115,21.4334652 68.8842146,23.0121063 68.9768137,24.9761361 C68.9952566,25.471636 68.9952566,26.0034572 68.9952566,26.5176912 L64.3103587,26.5176912 Z" id="Fill-11" fill="#FEFEFE"></path>
          <g id="Group-15" transform="translate(0.000000, 35.858360)">
            <mask id="mask-2" fill="white">
              <use xlink:href="#path-1"></use>
            </mask>
            <g id="Clip-14"></g>
            <path d="M3.11716889,1.57076509 L2.06591974,1.57076509 L2.06591974,5.99394234 L3.02495405,5.99394234 C4.74015003,5.99394234 5.45942576,5.51679434 5.45942576,3.71793109 C5.45942576,2.0112094 4.72170706,1.57076509 3.11716889,1.57076509 M3.19094076,7.55384926 L2.06591974,7.55384926 L2.06591974,13.2987417 L-7.68456979e-05,13.2987417 L-7.68456979e-05,0.0292100217 L3.55980011,0.0292100217 C6.25285759,0.0292100217 7.54386531,0.873394943 7.54386531,3.69957924 C7.54386531,7.15049097 5.79139917,7.55384926 3.19094076,7.55384926" id="Fill-13" fill="#FEFEFE" mask="url(#mask-2)"></path>
          </g>
          <path d="M13.5930165,43.8163707 C13.5930165,42.5317415 13.6114479,40.9894218 12.1728965,40.9894218 C10.6417459,40.9894218 10.6601782,42.7703155 10.6601782,43.8530744 L10.6601782,45.4493027 C10.6601782,46.532444 10.6417459,48.0743814 12.1360105,48.0743814 C13.556119,48.0743814 13.5930165,46.6242032 13.5930165,45.5414443 L13.5930165,43.8163707 Z M12.1360105,49.3590106 C8.98187886,49.3590106 8.72367731,47.4133326 8.72367731,44.5687964 C8.72367731,41.9444824 9.09253666,39.6864407 12.2093982,39.6864407 C15.289758,39.6864407 15.5295165,41.595415 15.5295165,44.3485743 C15.5295165,47.3949807 15.1791002,49.3590106 12.1360105,49.3590106 L12.1360105,49.3590106 Z" id="Fill-16" fill="#FEFEFE"></path>
          <path d="M26.6505875,49.1570256 L26.6505875,42.8986637 C26.6505875,41.9990409 26.6321445,41.0263931 25.5255665,41.0263931 C24.4558744,41.0263931 24.1423439,42.1829417 24.1423439,43.1001517 L24.1423439,49.1570256 L22.2238911,49.1570256 L22.2238911,42.8803119 C22.2238911,41.7971706 22.1685622,41.0263931 21.135756,41.0263931 C19.9554061,41.0263931 19.7156475,42.4945408 19.7156475,43.2840525 L19.7156475,49.1570256 L17.7971947,49.1570256 L17.7971947,41.3200226 C17.7971947,40.8428746 17.7787517,40.3840785 17.7234228,39.9069305 L19.6414914,39.9069305 L19.6414914,41.0084236 C20.1025656,40.2372637 20.9328834,39.686326 21.8550317,39.686326 C23.2013684,39.686326 23.6624426,40.3106711 23.9210283,41.0263931 C24.4374314,40.3290229 25.1935931,39.686326 26.2448422,39.686326 C28.3292818,39.686326 28.5690404,41.3383745 28.5690404,42.824874 L28.5690404,49.1570256 L26.6505875,49.1570256 Z" id="Fill-18" fill="#FEFEFE"></path>
          <path d="M34.5989686,40.9895747 C33.1050882,40.9895747 33.0682023,43.027012 33.0682023,44.6423567 C33.0682023,46.3123747 33.1788601,48.0190964 34.5989686,48.0190964 C35.9821911,48.0190964 36.0006341,45.7434675 36.0006341,44.3483449 C36.0006341,42.6966787 35.9453052,40.9895747 34.5989686,40.9895747 M35.1891435,49.3220775 C34.2854381,49.3220775 33.6030483,49.0467998 33.1050882,48.312726 L33.1050882,52.6808477 L31.1866354,52.6808477 L31.1866354,42.072716 C31.1866354,41.7607346 31.1497494,40.2187972 31.1128635,39.9068158 L32.9944304,39.9068158 L33.0128734,40.9345192 C33.5477194,40.0903342 34.4145389,39.6865936 35.3366873,39.6865936 C37.8268721,39.6865936 37.9371457,41.9255189 37.9371457,44.4221346 C37.9371457,46.881282 37.7715432,49.3220775 35.1891435,49.3220775" id="Fill-20" fill="#FEFEFE"></path>
          <mask id="mask-4" fill="white">
            <use xlink:href="#path-3"></use>
          </mask>
          <g id="Clip-23"></g>
          <path d="M40.2052849,49.1569491 L42.1237377,49.1569491 L42.1237377,39.906854 L40.2052849,39.906854 L40.2052849,49.1569491 Z M40.1680147,37.8514473 L42.1602394,37.8514473 L42.1602394,36.052584 L40.1680147,36.052584 L40.1680147,37.8514473 Z" id="Fill-22" fill="#FEFEFE" mask="url(#mask-4)"></path>
          <path d="M47.7668247,40.9895747 C46.4204881,40.9895747 46.3282733,42.7333824 46.3282733,44.568567 C46.3282733,46.238585 46.475817,48.0374483 47.7483817,48.0374483 C49.1684902,48.0374483 49.2422621,46.238585 49.2422621,44.6236226 C49.2422621,42.788438 49.1504315,40.9895747 47.7668247,40.9895747 L47.7668247,40.9895747 Z M49.3717471,49.1569109 L49.3348612,48.1292075 C48.7996309,48.9550406 48.1356841,49.3220775 47.1582068,49.3220775 C44.6130773,49.3220775 44.3913774,46.8441959 44.3913774,44.5135115 C44.3913774,41.9993086 44.6864649,39.6865936 47.065992,39.6865936 C48.0619122,39.6865936 48.7074161,40.0169269 49.2238191,40.7697349 L49.2238191,35.8873792 L51.142272,35.8873792 L51.142272,47.4498069 C51.142272,47.707115 51.1976009,48.899985 51.2160439,49.1569109 L49.3717471,49.1569109 Z" id="Fill-24" fill="#FEFEFE" mask="url(#mask-4)"></path>
          <path d="M58.2794814,43.8163707 C58.2794814,42.5317415 58.2979128,40.9894218 56.8593614,40.9894218 C55.3282108,40.9894218 55.3466431,42.7703155 55.3466431,43.8530744 L55.3466431,45.4493027 C55.3466431,46.532444 55.3282108,48.0743814 56.8224754,48.0743814 C58.2425839,48.0743814 58.2794814,46.6242032 58.2794814,45.5414443 L58.2794814,43.8163707 Z M56.8224754,49.3590106 C53.6683438,49.3590106 53.4101422,47.4133326 53.4101422,44.5687964 C53.4101422,41.9444824 53.7790016,39.6864407 56.8958631,39.6864407 C59.9762229,39.6864407 60.2159815,41.595415 60.2159815,44.3485743 C60.2159815,47.3949807 59.8655651,49.3590106 56.8224754,49.3590106 L56.8224754,49.3590106 Z" id="Fill-25" fill="#FEFEFE" mask="url(#mask-4)"></path>
          <path d="M67.2240401,49.1570256 L67.2055972,48.0926185 C66.6707511,48.9184516 65.9330324,49.3221922 64.9371122,49.3221922 C63.184646,49.3221922 62.4838133,48.3311925 62.4838133,46.6057366 L62.4838133,39.9069305 L64.4022661,39.9069305 L64.4022661,45.963422 C64.4022661,46.8813967 64.4207091,48.0188288 65.6563879,48.0188288 C66.9105097,48.0188288 67.1687112,46.7529337 67.1687112,45.7431999 L67.1687112,39.9069305 L69.0871641,39.9069305 L69.0871641,47.4132179 C69.0871641,48.0559148 69.12405,48.5514147 69.160936,49.1570256 L67.2240401,49.1570256 Z" id="Fill-26" fill="#FEFEFE" mask="url(#mask-4)"></path>
          <polygon id="Fill-27" fill="#FEFEFE" mask="url(#mask-4)" points="71.3181868 44.9723459 75.4129098 44.9723459 75.4129098 43.4674945 71.3181868 43.4674945"></polygon>
          <polygon id="Fill-28" fill="#FEFEFE" mask="url(#mask-4)" points="88.1571925 49.1570256 88.1571925 37.300586 85.0952756 49.1570256 82.8640608 49.1570256 79.802144 37.300586 79.802144 49.1570256 77.957463 49.1570256 77.957463 35.8874939 81.3140831 35.8874939 84.0993554 46.9544217 86.7559112 35.8874939 90.1125313 35.8874939 90.1125313 49.1570256"></polygon>
          <path d="M97.3411371,42.3844679 C97.2489223,41.6136904 96.9538348,40.9897276 96.0681881,40.9897276 C95.1460397,40.9897276 94.7771804,41.5957209 94.6665226,42.4578753 C94.6115779,42.8432641 94.5931349,43.1919492 94.5931349,43.614424 L97.378023,43.614424 C97.378023,43.1919492 97.3968502,42.8065604 97.3411371,42.3844679 L97.3411371,42.3844679 Z M94.5931349,44.7705903 L94.5931349,45.5046641 C94.5931349,47.064571 94.8144505,48.0743049 96.0132434,48.0743049 C97.1751504,48.0743049 97.378023,47.1200089 97.3968502,46.1657129 L99.2223198,46.1657129 C99.1301049,48.2757929 98.2632855,49.3589341 96.0132434,49.3589341 C92.9513266,49.3589341 92.6746821,47.2668237 92.6746821,44.7518561 C92.6746821,42.256005 92.9513266,39.6863642 96.1239012,39.6863642 C98.6505878,39.6863642 99.1673751,41.2650053 99.2592057,43.2290352 C99.2780329,43.724535 99.2780329,44.2563562 99.2780329,44.7705903 L94.5931349,44.7705903 Z" id="Fill-29" fill="#FEFEFE" mask="url(#mask-4)"></path>
          <path d="M104.25725,49.2488613 C102.376067,49.2488613 101.878107,48.6245162 101.878107,46.8260353 L101.878107,41.209988 L100.586715,41.209988 L100.586715,39.9066246 L101.878107,39.9066246 L101.878107,38.2733103 L103.796176,37.4658291 L103.796176,39.9066246 L105.345385,39.9066246 L105.345385,41.209988 L103.796176,41.209988 L103.796176,46.5874613 C103.796176,47.5234054 103.961778,47.854121 104.79248,47.854121 C104.994969,47.854121 105.216284,47.8357691 105.4376,47.7986831 L105.4376,49.1754539 C105.050298,49.2305094 104.662995,49.2488613 104.25725,49.2488613" id="Fill-30" fill="#FEFEFE" mask="url(#mask-4)"></path>
          <polygon id="Fill-31" fill="#FEFEFE" mask="url(#mask-4)" points="106.525082 49.1570256 106.525082 47.7439334 110.140288 41.2099116 106.727954 41.2099116 106.727954 39.9069305 112.169014 39.9069305 112.169014 41.2649671 108.517306 47.8356927 112.2059 47.8356927 112.2059 49.1570256"></polygon>
          <path d="M105.667714,27.2381923 L109.838515,24.8417471 L105.667714,20.6927005 L105.667714,27.2381923 Z M112.478164,21.5957643 L112.478164,17.7567875 L108.617821,17.7567875 L112.478164,21.5957643 Z M105.667714,3.86252834 L105.667714,13.603153 L112.478164,13.603153 L112.478164,7.77491253 L105.667714,3.86252834 Z M85.4077302,23.3261905 L98.9437157,31.1012559 L101.49384,29.6361669 L101.49384,17.7567875 L85.4077302,17.7567875 L85.4077302,23.3261905 Z M90.0223144,5.12536475 L85.4077302,7.77491253 L85.4077302,13.603153 L98.5421969,13.603153 L90.0223144,5.12536475 Z M93.7643157,2.97514012 L101.49384,10.666093 L101.49384,1.46493612 L98.9437157,-0.000152932051 L93.7643157,2.97514012 Z" id="Fill-32" fill="#FEFEFE" mask="url(#mask-4)"></path>
        </g>
      </g>
    </g>
  </g>
</svg>
