<?xml version="1.0" encoding="UTF-8"?>
<svg xmlns="http://www.w3.org/2000/svg" xmlns:xlink="http://www.w3.org/1999/xlink" width="183px" height="100px" viewBox="0 0 183 100" version="1.1">
  <!-- Generator: Sketch 58 (84663) - https://sketch.com -->
  <title>CP-Westbund-BLANC-Rectangle Copy</title>
  <desc>Created with Sketch.</desc>
  <defs>
    <polygon id="path-1" points="0 60.9089336 100.998803 60.9089336 100.998803 0 0 0"></polygon>
  </defs>
  <g id="Page-1" stroke="none" stroke-width="1" fill="none" fill-rule="evenodd">
    <g id="CP-Westbund-BLANC-Rectangle">
      <g id="CP-Westbund-BLANC" transform="translate(41.000000, 36.000000)">
        <g id="Group-75">
          <path d="M37.2083043,9.50694155 C37.2083043,7.72223381 35.7708493,6.27504976 33.9956905,6.27504976 C33.1199583,6.27504976 32.3272758,6.62775118 31.7476028,7.200891 L31.7461668,7.200891 L26.8737545,12.1676209 L26.8727972,12.1676209 C26.8443161,12.1972536 26.8050649,12.2170087 26.759591,12.2170087 C26.6724725,12.2170087 26.6018682,12.1461793 26.6018682,12.0580039 L26.6018682,11.9050221 L26.6018682,0.0782014218 L21.2883588,0.0782014218 L21.2883588,11.9476643 L21.2883588,12.0580039 C21.2883588,12.1461793 21.2177545,12.2170087 21.130636,12.2170087 C21.0875555,12.2170087 21.0492616,12.1984581 21.0195839,12.1709937 L21.0195839,12.17003 L16.3759773,7.42638863 C16.3716692,7.42205213 16.3683185,7.41771564 16.3640104,7.41337915 C15.5694133,6.63786967 14.4864156,6.15989179 13.2928445,6.15989179 C12.0523635,6.15989179 10.931072,6.67617536 10.1288161,7.50733649 C10.1225934,7.51432306 10.117328,7.52299605 10.1106265,7.52950079 L10.1084725,7.52950079 L5.70731374,12.0659542 L5.60607441,12.17003 C5.57759336,12.1984581 5.53738483,12.2170087 5.49382559,12.2170087 C5.40694645,12.2170087 5.33729953,12.1461793 5.33729953,12.0580039 L5.33610284,11.9433278 L5.33610284,0.0782014218 L0.0218753555,0.0782014218 L0.0218753555,17.3791216 C0.0218753555,19.1635885 1.45956967,20.6119771 3.23353175,20.6119771 C4.10974265,20.6119771 4.90314313,20.2580711 5.4820981,19.6849313 L5.48305545,19.6861359 L10.3564251,14.7182014 C10.3849062,14.6885687 10.426072,14.6690545 10.470828,14.6690545 C10.5577071,14.6690545 10.6275934,14.7403657 10.6275934,14.8278183 L10.6275934,14.9810411 L10.6275934,26.8078618 L15.9418209,26.8078618 L15.9418209,14.9379171 L15.9418209,14.8278183 C15.9418209,14.7403657 16.0114678,14.6690545 16.0985863,14.6690545 C16.1421455,14.6690545 16.1813967,14.6876051 16.2093991,14.7148286 L16.2093991,14.7157923 L20.853245,19.4601564 L20.8542024,19.4601564 C20.8587498,19.4637701 20.8609038,19.4693112 20.8673659,19.4734068 C21.6607664,20.2484344 22.7428066,20.7259305 23.9366171,20.7259305 C25.1768588,20.7259305 26.2991076,20.2098878 27.1001668,19.3784858 C27.1066289,19.3717401 27.1118943,19.3628262 27.1197924,19.3565624 L27.1207498,19.3565624 L31.5219085,14.820109 L31.6231479,14.7172378 C31.6525863,14.6876051 31.6918374,14.6690545 31.736354,14.6690545 C31.8234725,14.6690545 31.8931194,14.7403657 31.8931194,14.8278183 L31.8931194,14.9424945 L31.8931194,26.8078618 L37.2083043,26.8078618 L37.2083043,9.50694155 Z" id="Fill-1" fill="#FEFEFE"></path>
          <path d="M65.870022,3.48921445 L64.1941879,3.48921445 L64.1941879,3.107844 C64.1941879,2.72237796 64.1039581,2.38919076 63.9230197,2.10755964 C63.74256,1.82737401 63.4378846,1.68595616 63.0111476,1.68595616 C62.7816239,1.68595616 62.5923088,1.73076659 62.4448775,1.81894194 C62.2972069,1.90759913 62.1808893,2.02010703 62.1004723,2.15863389 C62.0186192,2.29547433 61.9606998,2.45592457 61.9283893,2.6370936 C61.8948822,2.81898539 61.8778893,3.00810466 61.8778893,3.20758333 C61.8778893,3.43982662 61.8867448,3.63520972 61.9023017,3.79469629 C61.9195339,3.95490561 61.9606998,4.09270972 62.0253206,4.20810861 C62.0911382,4.32326659 62.1883088,4.425656 62.3127637,4.51431319 C62.4398514,4.60152488 62.6133704,4.69018207 62.8306879,4.77763468 L64.1123348,5.29054542 C64.4835457,5.4338906 64.7851097,5.60253199 65.0151121,5.79550592 C65.2455931,5.98799803 65.4227021,6.21373657 65.5493111,6.47248065 C65.6763988,6.73170656 65.7601666,7.0285154 65.8042045,7.36628002 C65.8475244,7.70235821 65.870022,8.08469234 65.870022,8.51424605 C65.870022,9.01029265 65.8214367,9.47044273 65.7223514,9.89541904 C65.6237448,10.3199135 65.4619533,10.6846607 65.2367377,10.9867697 C65.01224,11.2905652 64.7145055,11.5302769 64.3418585,11.705423 C63.9699296,11.8820146 63.5149509,11.9704309 62.9783585,11.9704309 C62.5741192,11.9704309 62.1962069,11.8986378 61.8443822,11.7550517 C61.4951903,11.6126702 61.192669,11.4165644 60.9420836,11.1689024 C60.6895836,10.9207587 60.4897377,10.6251544 60.3423064,10.2837761 C60.1951145,9.94312046 60.1209201,9.57235032 60.1209201,9.17580213 L60.1209201,8.54797433 L61.7969936,8.54797433 L61.7969936,9.07630371 C61.7969936,9.38612204 61.8867448,9.66365758 62.0662472,9.91228318 C62.2471855,10.1594633 62.5511429,10.2837761 62.9783585,10.2837761 C63.2634083,10.2837761 63.4859912,10.2418566 63.6434746,10.1594633 C63.8023941,10.0773108 63.9230197,9.96118918 64.0058301,9.81206201 C64.0872045,9.66365758 64.1386618,9.47959755 64.1613988,9.25795458 C64.1819818,9.03775711 64.1941879,8.79563626 64.1941879,8.53183294 C64.1941879,8.22273736 64.1819818,7.9685707 64.1613988,7.7702966 C64.1386618,7.57202251 64.0931879,7.41349961 64.0211476,7.29159597 C63.951022,7.16993325 63.8514581,7.07043483 63.7262851,6.99382346 C63.6001547,6.91697117 63.4326192,6.83361414 63.2255931,6.74495695 L62.0253206,6.25011493 C61.3025244,5.95186058 60.8183467,5.55868523 60.5723088,5.06793878 C60.3255528,4.57719234 60.2034912,3.96237401 60.2034912,3.22420656 C60.2034912,2.7835707 60.262368,2.36558096 60.3839509,1.96758728 C60.5036192,1.5710391 60.6812069,1.22941983 60.917432,0.942006714 C61.1524604,0.656520932 61.4511524,0.427650474 61.8120718,0.256359005 C62.1734699,0.0865130332 62.5939841,2.40916272e-05 63.0779225,2.40916272e-05 C63.494368,2.40916272e-05 63.8739557,0.0780809637 64.2176429,0.23274921 C64.5639628,0.385731043 64.8602614,0.590509874 65.1048633,0.843471959 C65.3530552,1.09643404 65.5418917,1.38167891 65.6732874,1.69511098 C65.8042045,2.00902488 65.870022,2.33112994 65.870022,2.66238981 L65.870022,3.48921445 Z" id="Fill-3" fill="#FEFEFE"></path>
          <path d="M87.0354097,9.22521406 C87.0354097,9.61188468 86.9633694,9.96892259 86.8209642,10.3001825 C86.6797557,10.6304787 86.4856538,10.9210237 86.2393765,11.1686856 C85.9921419,11.4161066 85.7044595,11.6122125 85.3758505,11.7548349 C85.0472415,11.8981801 84.6968528,11.9706959 84.3242059,11.9706959 C83.951559,11.9706959 83.6023671,11.8981801 83.2728007,11.7548349 C82.9446704,11.6122125 82.6572273,11.4161066 82.4099927,11.1686856 C82.1644334,10.9210237 81.9696135,10.6304787 81.826969,10.3001825 C81.6852818,9.96892259 81.6149168,9.61188468 81.6149168,9.22521406 L81.6149168,0.0997875197 L83.2897936,0.0997875197 L83.2897936,9.0599455 C83.2897936,9.47962164 83.3884002,9.78727172 83.5846562,9.98650948 C83.7828268,10.1847836 84.028386,10.2838002 84.3242059,10.2838002 C84.6205045,10.2838002 84.8672604,10.1847836 85.0637557,9.98650948 C85.260969,9.78727172 85.3581396,9.47962164 85.3581396,9.0599455 L85.3581396,0.0997875197 L87.0354097,0.0997875197 L87.0354097,9.22521406 Z" id="Fill-5" fill="#FEFEFE"></path>
          <path d="M59.5252595,24.2028341 C59.5252595,24.588782 59.4546552,24.9453381 59.3120107,25.2778025 C59.1696055,25.6083397 58.9755036,25.897921 58.728269,26.145342 C58.4829491,26.392763 58.1957453,26.5895916 57.8666576,26.732455 C57.5370912,26.8750774 57.1874206,26.9461477 56.8154917,26.9461477 C56.4423661,26.9461477 56.0917382,26.8750774 55.7631291,26.732455 C55.4354775,26.5895916 55.148513,26.392763 54.9012784,26.145342 C54.6538045,25.897921 54.4604206,25.6083397 54.3177761,25.2778025 C54.1751315,24.9453381 54.1047666,24.588782 54.1047666,24.2028341 L54.1047666,15.0752393 L55.7806007,15.0752393 L55.7806007,24.036361 C55.7806007,24.4560371 55.8787287,24.7646509 56.0754633,24.9631659 C56.2726765,25.16144 56.5182358,25.2599747 56.8154917,25.2599747 C57.1103543,25.2599747 57.3571102,25.16144 57.5545628,24.9631659 C57.7517761,24.7646509 57.8494254,24.4560371 57.8494254,24.036361 L57.8494254,15.0752393 L59.5252595,15.0752393 L59.5252595,24.2028341 Z" id="Fill-7" fill="#FEFEFE"></path>
          <path d="M66.3585078,18.4655336 L64.6826737,18.4655336 L64.6826737,18.0853677 C64.6826737,17.6991789 64.5924438,17.3657508 64.4129415,17.0841197 C64.2334391,16.8036931 63.9287637,16.6634799 63.5013088,16.6634799 C63.2715457,16.6634799 63.0817519,16.7073266 62.9347993,16.7950201 C62.7871287,16.8841592 62.6717685,16.996908 62.5889581,17.134953 C62.508541,17.2727571 62.4496642,17.4324846 62.4168751,17.6136536 C62.3843254,17.7955454 62.3668538,17.9856284 62.3668538,18.1841434 C62.3668538,18.4161457 62.3766666,18.6115288 62.3917448,18.7712563 C62.4080197,18.9314656 62.4496642,19.0692697 62.5159604,19.1841868 C62.5805813,19.2998266 62.6772732,19.402457 62.8022069,19.4908732 C62.9297732,19.5785667 63.1018562,19.6665012 63.3206097,19.7549175 L64.6027353,20.2668645 C64.9744249,20.4102097 65.2750315,20.5788511 65.5057519,20.7715841 C65.7352756,20.9645581 65.9126239,21.1902966 66.0387543,21.4487998 C66.1653633,21.7082666 66.2500884,22.00628 66.2936476,22.34284 C66.3369675,22.6789182 66.3585078,23.0610115 66.3585078,23.4917697 C66.3585078,23.9868527 66.3099225,24.4484483 66.2108372,24.8724609 C66.1131879,25.2959917 65.9518751,25.6607389 65.7264201,25.9633298 C65.5026405,26.2666434 65.2053846,26.5061141 64.830823,26.6817421 C64.4588941,26.8580928 64.0053514,26.9472318 63.4682803,26.9472318 C63.063323,26.9472318 62.6846927,26.8761615 62.334304,26.7311299 C61.9836761,26.5885075 61.6840268,26.3928835 61.4305694,26.1457034 C61.1795055,25.8973187 60.9803775,25.6017145 60.8312709,25.2600952 C60.6831216,24.9189577 60.6106026,24.5501149 60.6106026,24.1523622 L60.6106026,23.5242934 L62.2864367,23.5242934 L62.2864367,24.0526228 C62.2864367,24.362923 62.3766666,24.6414222 62.556169,24.8883614 C62.7366287,25.1360233 63.040586,25.2600952 63.4682803,25.2600952 C63.7523727,25.2600952 63.974477,25.2184167 64.1343538,25.1360233 C64.2918372,25.0541118 64.4129415,24.9377492 64.4947945,24.7900675 C64.5766476,24.6414222 64.6283443,24.4559167 64.6513206,24.2345146 C64.6733396,24.0140762 64.6826737,23.7721963 64.6826737,23.508393 C64.6826737,23.2002611 64.6733396,22.9451307 64.6513206,22.7468566 C64.6283443,22.5483416 64.582631,22.3900596 64.5110694,22.268156 C64.4399865,22.1462524 64.3409012,22.0477176 64.2152495,21.9706244 C64.0891192,21.8935312 63.9220623,21.8101742 63.7145576,21.721517 L62.5159604,21.226675 C61.7924462,20.9289024 61.3080291,20.5354862 61.0603159,20.0447397 C60.814996,19.554716 60.6924557,18.9401386 60.6924557,18.2005257 C60.6924557,17.7598898 60.7518111,17.3419001 60.8724367,16.9441473 C60.993541,16.5473582 61.17065,16.2057389 61.4073538,15.9188077 C61.6419036,15.63284 61.9401168,15.4037287 62.3015149,15.2326781 C62.662913,15.0630731 63.0848633,14.9765841 63.5664083,14.9765841 C63.9828538,14.9765841 64.3624415,15.054641 64.7080434,15.2088274 C65.0529273,15.3622911 65.3497045,15.5670699 65.5959818,15.8202729 C65.8420197,16.0727532 66.0298988,16.357998 66.1617732,16.671671 C66.2936476,16.9855849 66.3585078,17.3074491 66.3585078,17.638468 L66.3585078,18.4655336 Z" id="Fill-9" fill="#FEFEFE"></path>
          <path d="M78.7787555,24.2028341 C78.7787555,24.588782 78.7067152,24.9453381 78.56431,25.2778025 C78.4226227,25.6083397 78.2289995,25.897921 77.9832009,26.145342 C77.735009,26.392763 77.4475659,26.5895916 77.1191962,26.732455 C76.7901085,26.8750774 76.4404379,26.9461477 76.068509,26.9461477 C75.6958621,26.9461477 75.3447555,26.8750774 75.0175825,26.732455 C74.6875374,26.5895916 74.4010517,26.392763 74.1533384,26.145342 C73.9073005,25.897921 73.7139166,25.6083397 73.5722294,25.2778025 C73.4295848,24.9453381 73.3577839,24.588782 73.3577839,24.2028341 L73.3577839,15.0752393 L75.033618,15.0752393 L75.033618,24.036361 C75.033618,24.4560371 75.131746,24.7646509 75.3289592,24.9631659 C75.5256938,25.16144 75.7717318,25.2599747 76.068509,25.2599747 C76.3638502,25.2599747 76.6106062,25.16144 76.8066227,24.9631659 C77.0047934,24.7646509 77.1024427,24.4560371 77.1024427,24.036361 L77.1024427,15.0752393 L78.7787555,15.0752393 L78.7787555,24.2028341 Z" id="Fill-11" fill="#FEFEFE"></path>
          <path d="M51.3219055,7.35411374 C51.3164007,7.40566983 51.2737988,7.44614376 51.2204268,7.44614376 C51.1704055,7.44614376 51.1316329,7.41096998 51.1203841,7.36375039 L51.1172727,7.34375434 L49.8502254,0.0998838863 L48.5685784,0.0998838863 L47.3321661,7.27437046 L47.3180453,7.36278673 C47.3067964,7.41000632 47.2665879,7.44614376 47.2160879,7.44614376 C47.1655879,7.44614376 47.1203533,7.40663349 47.1165239,7.35676382 L47.1062325,7.26882938 L46.3827182,0.0998838863 L44.6087562,0.0998838863 L46.3513652,11.8710529 L47.928114,11.8710529 L49.1032562,4.44143602 L49.1092396,4.40385308 C49.1164197,4.35470616 49.1587822,4.31760506 49.2092822,4.31760506 C49.2602609,4.31760506 49.3019055,4.35470616 49.3093249,4.40288942 L49.3160263,4.44143602 L50.506486,11.8710529 L52.0839528,11.8710529 L53.8256045,0.0998838863 L52.0511637,0.0998838863 L51.3238201,7.33556319 L51.3219055,7.35411374 Z" id="Fill-13" fill="#FEFEFE"></path>
          <path d="M51.0690225,20.0136133 L51.0156505,26.8474443 L52.6919633,26.8474443 L52.6919633,15.0762753 L51.0647145,15.0762753 L49.0152761,21.1389333 L49.0097713,21.1553156 C48.9956505,21.1957895 48.9578353,21.2251813 48.9130794,21.2251813 C48.8685628,21.2251813 48.8307476,21.1957895 48.8175841,21.1553156 L48.8063353,21.1302603 L46.7454088,15.0762753 L45.1346742,15.0762753 L45.1346742,26.8474443 L46.8105083,26.8474443 L46.7576149,20.0422824 L46.7561789,19.8986963 C46.7561789,19.8415991 46.8018922,19.795825 46.8586149,19.795825 C46.9043282,19.795825 46.9421434,19.8264214 46.9553069,19.8680999 L46.9998235,20.0092769 L48.4861031,24.7483408 L49.3242595,24.7483408 L50.8327974,19.9863898 L50.8720486,19.8664135 C50.8852121,19.8254577 50.9230273,19.795825 50.9680225,19.795825 C51.0235486,19.795825 51.0690225,19.8415991 51.0690225,19.8986963 L51.0690225,20.0136133 Z" id="Fill-15" fill="#FEFEFE"></path>
          <path d="M86.1257396,20.0136133 L86.0723675,26.8474443 L87.7486803,26.8474443 L87.7486803,15.0762753 L86.1214315,15.0762753 L84.0722325,21.1389333 L84.0662491,21.1553156 C84.0530855,21.1957895 84.0133557,21.2251813 83.9697964,21.2251813 C83.9240832,21.2251813 83.886986,21.1957895 83.8731045,21.1553156 L83.8642491,21.1302603 L81.8023652,15.0762753 L80.1913912,15.0762753 L80.1913912,26.8474443 L81.867704,26.8474443 L81.8138533,20.0422824 L81.8138533,19.8986963 C81.8138533,19.8415991 81.8588486,19.795825 81.913896,19.795825 C81.9598486,19.795825 81.9990998,19.8264214 82.0122633,19.8680999 L82.0555832,20.0092769 L83.5421021,24.7483408 L84.3797799,24.7483408 L85.8897538,19.9863898 L85.929005,19.8664135 C85.9414505,19.8254577 85.9799836,19.795825 86.0242609,19.795825 C86.0800263,19.795825 86.1257396,19.8415991 86.1257396,19.8986963 L86.1257396,20.0136133 Z" id="Fill-17" fill="#FEFEFE"></path>
          <path d="M56.2105448,9.94714376 L56.2105448,6.98483728 L56.2105448,6.83161453 C56.2105448,6.77475829 56.2557794,6.72994787 56.3115448,6.72994787 L56.455386,6.72850237 L59.1007723,6.72850237 L59.1007723,5.14230964 L56.631777,5.14230964 L56.3115448,5.14230964 C56.2557794,5.14230964 56.2105448,5.09653555 56.2105448,5.03943839 L56.2105448,4.97607741 L56.2105448,4.62313507 L56.2105448,2.09785071 L56.2105448,1.78899605 C56.2105448,1.73189889 56.2557794,1.68708847 56.3115448,1.68708847 L59.5284666,1.6861248 L59.5284666,0.0989684044 L54.534232,0.0989684044 L54.534232,11.8706193 L59.5284666,11.8706193 L59.5284666,10.1849281 L56.4853031,10.1849281 L56.3115448,10.1849281 C56.2557794,10.1849281 56.2105448,10.1386722 56.2105448,10.0822978 L56.2105448,9.94714376 Z" id="Fill-19" fill="#FEFEFE"></path>
          <path d="M69.1188235,24.9237038 L69.1188235,21.9611564 L69.1188235,21.8076927 C69.1188235,21.7513183 69.1645367,21.7050624 69.2212595,21.7050624 L69.3636647,21.7050624 L72.010487,21.7050624 L72.010487,20.1188697 L69.5400557,20.1188697 L69.2212595,20.1188697 C69.1645367,20.1188697 69.1188235,20.0728547 69.1188235,20.0159984 L69.1188235,19.9521556 L69.1188235,19.5994542 L69.1188235,17.0748926 L69.1188235,16.7665197 C69.1188235,16.7086998 69.1645367,16.6638894 69.2212595,16.6638894 L72.4377026,16.6626848 L72.4377026,15.0752875 L67.4429893,15.0752875 L67.4429893,26.8474202 L72.4377026,26.8474202 L72.4377026,25.1612472 L69.3940604,25.1612472 L69.2212595,25.1612472 C69.1645367,25.1612472 69.1188235,25.1152322 69.1188235,25.058376 L69.1188235,24.9237038 Z" id="Fill-21" fill="#FEFEFE"></path>
          <path d="M69.9069585,1.7891406 C69.9069585,1.73324803 69.9521931,1.6869921 70.0089159,1.6869921 L70.2855889,1.6869921 L71.8460628,1.6869921 L71.8460628,0.100076619 L66.2934562,0.100076619 L66.2934562,1.6869921 L67.8608709,1.6869921 L68.1301244,1.6869921 C68.1858898,1.6869921 68.2306457,1.73324803 68.2306457,1.7891406 L68.2306457,2.16834281 L68.2306457,11.8710047 L69.9069585,11.8710047 L69.9069585,2.15051501 L69.9069585,1.7891406 Z" id="Fill-23" fill="#FEFEFE"></path>
          <path d="M78.6913498,4.50580885 C78.4986839,4.78743997 78.1238829,4.92741232 77.5652716,4.92741232 L77.3103782,4.92741232 L76.9116436,4.92741232 C76.8556389,4.92741232 76.8099256,4.88163823 76.8099256,4.82574566 L76.8099256,4.50243602 L76.8099256,2.15494787 L76.8099256,1.78899605 C76.8099256,1.73213981 76.8556389,1.6861248 76.9116436,1.6861248 L77.2735204,1.6861248 L77.5011294,1.6861248 C78.0580654,1.6861248 78.4445938,1.81862875 78.6585607,2.08387757 C78.8722882,2.34888547 78.9787929,2.74422907 78.9787929,3.27352212 C78.9787929,3.81341548 78.883537,4.22417773 78.6913498,4.50580885 M78.9460038,8.99407899 C78.9247028,9.23740442 78.8634327,9.44555608 78.7648261,9.62190679 C78.6669374,9.7982575 78.5211815,9.93630253 78.3304303,10.0360419 C78.1387218,10.1343357 77.8718616,10.1837235 77.5334398,10.1837235 L77.2833332,10.1837235 L76.9116436,10.1837235 C76.8556389,10.1837235 76.8099256,10.1389131 76.8099256,10.081816 L76.8099256,9.74573776 L76.8099256,6.87522038 L76.8099256,6.51842338 C76.8099256,6.46156714 76.8556389,6.41531122 76.9116436,6.41531122 L77.1572028,6.41531122 L77.5497147,6.41531122 C77.8560654,6.41531122 78.1023427,6.4536169 78.2887858,6.53022828 C78.4749896,6.60828515 78.6193095,6.72079305 78.7241389,6.86895656 C78.8282502,7.01784281 78.8964611,7.20310742 78.9297289,7.42306398 C78.9615607,7.64470695 78.9787929,7.90296919 78.9787929,8.20074171 C78.9787929,8.4879139 78.9675441,8.75195814 78.9460038,8.99407899 M80.2602005,4.89368404 C80.3588071,4.72817457 80.4330014,4.53568246 80.4815867,4.31524408 C80.5304114,4.0950466 80.5560204,3.82449763 80.5560204,3.50456082 L80.5560204,3.07524803 C80.5560204,2.68954107 80.5036057,2.3182891 80.3990156,1.95908294 C80.2941863,1.60180411 80.122582,1.28403555 79.8820488,1.00915008 C79.641755,0.734023697 79.3318142,0.512862559 78.9541412,0.348557662 C78.5764682,0.181843602 78.1190962,0.0987274882 77.5820251,0.0987274882 L75.1340915,0.0987274882 L75.1340915,11.8708602 L77.4180796,11.8708602 C78.5132834,11.8708602 79.3097953,11.5947701 79.8085725,11.0447583 C80.3049564,10.4940237 80.5560204,9.69972275 80.5560204,8.66330095 L80.5560204,8.00294945 C80.5560204,7.38499921 80.4624398,6.8918436 80.276954,6.52275987 C80.0914682,6.15343523 79.7997171,5.87517694 79.4064872,5.68798499 C79.5917336,5.578609 79.7561578,5.45911453 79.8973664,5.33191074 C80.0409682,5.20567062 80.1611152,5.05991627 80.2602005,4.89368404" id="Fill-25" fill="#FEFEFE"></path>
          <path d="M92.6088626,6.99919589 C92.6088626,7.05508847 92.563628,7.10110348 92.5078626,7.10110348 C92.464064,7.10110348 92.4260095,7.07387994 92.4116493,7.03436967 L92.4042299,7.01581912 L89.992436,0.099835703 L88.3821801,0.099835703 L88.3821801,11.8695592 L90.0580142,11.8695592 L90.0032062,5.00874566 L90.0032062,4.98344945 C90.0032062,4.92731596 90.0491588,4.88178278 90.1061209,4.88178278 C90.1496801,4.88178278 90.1870166,4.9102109 90.2004194,4.94851659 L90.2080782,4.97140363 L92.6540972,11.8695592 L94.2303673,11.8695592 L94.2303673,0.099835703 L92.5554905,0.099835703 L92.6088626,6.97727251 L92.6088626,6.99919589 Z" id="Fill-27" fill="#FEFEFE"></path>
          <path d="M99.3224427,8.8121872 C99.3224427,9.31931596 99.223836,9.69177251 99.0271014,9.92883412 C98.8306062,10.1654139 98.4955351,10.2834629 98.0257175,10.2834629 L97.5714569,10.2834629 L97.3548573,10.2834629 C97.2993313,10.2834629 97.2538573,10.2384115 97.2538573,10.1808325 L97.2538573,9.86619589 L97.2538573,2.0354534 L97.2538573,1.78923697 C97.2538573,1.73334439 97.2993313,1.68708847 97.3548573,1.68708847 L97.6490019,1.68708847 L98.0257175,1.68708847 C98.5185114,1.68708847 98.8569332,1.81308768 99.043855,2.06725434 C99.2293408,2.32021643 99.3224427,2.67845893 99.3224427,3.14174092 L99.3224427,8.8121872 Z M100.242452,0.901701422 C99.7384095,0.365903633 99.0101085,0.0999320695 98.058028,0.0999320695 L95.5780232,0.0999320695 L95.5780232,11.8706193 L97.9103573,11.8706193 C98.9069545,11.8706193 99.6706773,11.6087433 100.201765,11.0852322 C100.731895,10.5626848 100.998755,9.74886967 100.998755,8.64715956 L100.998755,3.14174092 C100.998755,2.18217141 100.747213,1.43509005 100.242452,0.901701422 L100.242452,0.901701422 Z" id="Fill-29" fill="#FEFEFE"></path>
          <path d="M46.053128,33.1616671 L46.4980545,33.1616671 C46.6852156,33.1616671 46.8300142,33.1344435 46.9324502,33.07831 C47.0356043,33.0253085 47.1119526,32.9494198 47.1595806,32.8554625 C47.2076872,32.7612642 47.2371256,32.6473108 47.2455024,32.5133614 C47.2553152,32.3801347 47.2586659,32.229562 47.2586659,32.0652571 C47.2586659,31.9132389 47.2553152,31.7698938 47.2455024,31.6313669 C47.2371256,31.4950083 47.2100806,31.3774412 47.1638886,31.2767382 C47.1184147,31.1745897 47.0487678,31.0970146 46.9520758,31.0377492 C46.8544265,30.9806521 46.7168081,30.9524648 46.5341943,30.9524648 L46.053128,30.9524648 L46.053128,33.1616671 Z M45.1280924,30.0762524 L46.5160047,30.0762524 C46.7711374,30.0762524 46.9932417,30.1097397 47.1880616,30.1755099 C47.3812062,30.2424846 47.5568791,30.3610154 47.7138839,30.5327887 C47.8696919,30.7026347 47.9805047,30.9035588 48.0403389,31.1288156 C48.100173,31.3581679 48.1310474,31.6677453 48.1310474,32.056825 C48.1310474,32.3430336 48.1145332,32.5875636 48.0805474,32.7918606 C48.0468009,32.9951939 47.977154,33.1862405 47.8672986,33.3625912 C47.7402109,33.576284 47.5714787,33.7403479 47.3591872,33.8598424 C47.1473744,33.9781323 46.8702227,34.0398069 46.5243815,34.0398069 L46.053128,34.0398069 L46.053128,36.5764143 L45.1280924,36.5764143 L45.1280924,30.0762524 Z" id="Fill-31" fill="#FEFEFE"></path>
          <path d="M49.7446062,32.9786189 L50.2713858,32.9786189 C50.4346133,32.9786189 50.5640943,32.9574182 50.6612649,32.9114032 C50.7579569,32.8651473 50.8319118,32.7993772 50.8828905,32.7150565 C50.9353052,32.6280857 50.9697697,32.5230462 50.9874806,32.3994562 C51.0061488,32.273216 51.0147649,32.1298709 51.0147649,31.965566 C51.0147649,31.8012611 51.0061488,31.6564704 50.9874806,31.5316758 C50.9697697,31.407122 50.9319545,31.300637 50.8745137,31.2107753 C50.817791,31.1228408 50.7368953,31.0587571 50.6342199,31.0163558 C50.5303479,30.9737137 50.3944047,30.9520312 50.2256725,30.9520312 L49.7446062,30.9520312 L49.7446062,32.9786189 Z M48.8195706,30.0753369 L50.3065682,30.0753369 C51.396746,30.0753369 51.9407578,30.7111149 51.9407578,31.9843574 C51.9407578,32.3609096 51.8823597,32.6854238 51.7636488,32.9574182 C51.6458953,33.2265217 51.4383905,33.4450328 51.1418526,33.6086149 L52.1398858,36.5754988 L51.1607602,36.5754988 L50.2977128,33.8006252 L49.7446062,33.8006252 L49.7446062,36.5754988 L48.8195706,36.5754988 L48.8195706,30.0753369 Z" id="Fill-33" fill="#FEFEFE"></path>
          <path d="M53.5549389,35.0414645 C53.5549389,35.267203 53.6171664,35.4339171 53.7409033,35.5396793 C53.8653583,35.6452006 54.0111142,35.7001295 54.1808038,35.7001295 C54.3504934,35.7001295 54.4964886,35.6452006 54.6202256,35.5396793 C54.7456379,35.4339171 54.8076261,35.267203 54.8076261,35.0414645 L54.8076261,31.6093712 C54.8076261,31.3838736 54.7456379,31.2183641 54.6202256,31.1116382 C54.4964886,31.0046714 54.3504934,30.9519107 54.1808038,30.9519107 C54.0111142,30.9519107 53.8653583,31.0046714 53.7409033,31.1116382 C53.6171664,31.2183641 53.5549389,31.3838736 53.5549389,31.6093712 L53.5549389,35.0414645 Z M52.6299033,31.6093712 C52.6299033,31.3467725 52.6756166,31.115252 52.7658464,30.916737 C52.856555,30.7143673 52.9747872,30.548376 53.1253299,30.4175585 C53.2720431,30.2877046 53.4386213,30.188688 53.6221924,30.1205087 C53.8074389,30.0552204 53.9934033,30.0207694 54.1808038,30.0207694 C54.3677256,30.0207694 54.552972,30.0552204 54.7379791,30.1205087 C54.9232256,30.188688 55.0890858,30.2877046 55.2372351,30.4175585 C55.3853844,30.548376 55.5050526,30.7143673 55.5957611,30.916737 C55.6869483,31.115252 55.7329009,31.3467725 55.7329009,31.6093712 L55.7329009,35.0414645 C55.7329009,35.3100861 55.6869483,35.543534 55.5957611,35.7406035 C55.5050526,35.9388776 55.3853844,36.1029415 55.2372351,36.2347227 C55.0890858,36.3655403 54.9232256,36.4647978 54.7379791,36.530327 C54.552972,36.5985063 54.3677256,36.6300664 54.1808038,36.6300664 C53.9934033,36.6300664 53.8074389,36.5985063 53.6221924,36.530327 C53.4386213,36.4647978 53.2720431,36.3655403 53.1253299,36.2347227 C52.9747872,36.1029415 52.856555,35.9388776 52.7658464,35.7406035 C52.6756166,35.543534 52.6299033,35.3100861 52.6299033,35.0414645 L52.6299033,31.6093712 Z" id="Fill-35" fill="#FEFEFE"></path>
          <path d="M58.698328,35.0414645 C58.698328,35.255639 58.6624275,35.457045 58.5884725,35.6485735 C58.5178682,35.8413065 58.4123209,36.0099479 58.2770957,36.156184 C58.1401953,36.3024202 57.9755318,36.4178191 57.7821479,36.5028626 C57.588046,36.5895924 57.3671384,36.6300664 57.1201431,36.6300664 C56.8233659,36.6300664 56.5775673,36.5659826 56.3801147,36.4337196 C56.1833801,36.3038657 56.0273327,36.1754573 55.9131692,36.0465671 L56.6383588,35.4611406 C56.7056123,35.5288381 56.7841147,35.5849716 56.8695578,35.6309866 C56.957155,35.6772425 57.0490602,35.7001295 57.1464701,35.7001295 C57.2019962,35.7001295 57.265181,35.6892883 57.3372213,35.6683286 C57.4099796,35.6452006 57.4781905,35.6071359 57.5428114,35.5485932 C57.6045602,35.4907733 57.6591289,35.4127164 57.7050815,35.3115316 C57.7493588,35.2103468 57.7732924,35.0785656 57.7732924,34.9145016 L57.7732924,30.0749755 L58.698328,30.0749755 L58.698328,35.0414645 Z" id="Fill-37" fill="#FEFEFE"></path>
          <polygon id="Fill-39" fill="#FEFEFE" points="59.568723 30.0758669 62.3258794 30.0758669 62.3258794 30.9515976 60.4951945 30.9515976 60.4951945 32.8606181 62.0906116 32.8606181 62.0906116 33.7370715 60.4951945 33.7370715 60.4951945 35.6456102 62.3258794 35.6456102 62.3258794 36.5762697 59.568723 36.5762697"></polygon>
          <path d="M65.8634642,35.1247492 C65.8634642,35.3256734 65.8256491,35.5162382 65.7512154,35.7002982 C65.6746277,35.8819491 65.5697983,36.0423993 65.4372059,36.1787579 C65.3038955,36.3160802 65.1488055,36.4266607 64.9702604,36.5076086 C64.7914761,36.5885565 64.6000069,36.6314396 64.3941775,36.6314396 C64.2189832,36.6314396 64.0413955,36.6073479 63.8590211,36.5589238 C63.6785614,36.5085723 63.5141372,36.4266607 63.3690993,36.3071663 C63.2243007,36.1886355 63.1060685,36.0310762 63.0110519,35.8371386 C62.9174713,35.6417555 62.8708007,35.3952982 62.8708007,35.096562 L62.8708007,31.5189554 C62.8708007,31.3050217 62.9067012,31.1062658 62.9796988,30.9246149 C63.0522178,30.7422413 63.1551325,30.5839593 63.2882036,30.4500099 C63.420078,30.3158195 63.5799547,30.2117437 63.7642438,30.1346505 C63.9492509,30.0585209 64.1517296,30.0211789 64.3759879,30.0211789 C64.5882794,30.0211789 64.783578,30.0585209 64.9659524,30.1346505 C65.1478481,30.2117437 65.3038955,30.317265 65.4372059,30.4550691 C65.5697983,30.5911868 65.6746277,30.7552508 65.7512154,30.9467792 C65.8256491,31.1397532 65.8634642,31.3476639 65.8634642,31.5721979 L65.8634642,31.9381497 L64.9384287,31.9381497 L64.9384287,31.6280904 C64.9384287,31.4442713 64.88745,31.2864712 64.783578,31.1530036 C64.68186,31.019295 64.5423268,30.9520794 64.3671325,30.9520794 C64.1380874,30.9520794 63.9856301,31.0236315 63.9104784,31.166013 C63.8329334,31.3095991 63.7944002,31.4902863 63.7944002,31.7090383 L63.7944002,35.0344056 C63.7944002,35.2225612 63.8360448,35.3803614 63.9188552,35.5073242 C64.0007083,35.6357326 64.1464642,35.7002982 64.3587557,35.7002982 C64.4185898,35.7002982 64.4839287,35.689457 64.5530969,35.6672927 C64.6220258,35.6475375 64.6864073,35.6114001 64.7438481,35.5617713 C64.8015282,35.513829 64.8472415,35.4470952 64.8840993,35.3618108 C64.9209571,35.277731 64.9384287,35.1712461 64.9384287,35.0413922 L64.9384287,34.7219372 L65.8634642,34.7219372 L65.8634642,35.1247492 Z" id="Fill-41" fill="#FEFEFE"></path>
          <polygon id="Fill-43" fill="#FEFEFE" points="67.2237571 30.9524889 66.153205 30.9524889 66.153205 30.0757946 69.2198235 30.0757946 69.2198235 30.9524889 68.1502287 30.9524889 68.1502287 36.5754747 67.2237571 36.5754747"></polygon>
          <path d="M71.1887012,35.7002259 L72.8571159,32.5312133 C72.9420803,32.3743768 72.9897083,32.235609 73.0019145,32.1165964 C73.0136419,31.9975837 73.0205827,31.8494202 73.0205827,31.6742741 C73.0205827,31.5942899 73.0174713,31.5099692 73.0112486,31.4225166 C73.0062225,31.3336185 72.9875543,31.2570071 72.9617059,31.1900324 C72.9346609,31.1223349 72.890623,31.0664423 72.8293528,31.0211501 C72.7692794,30.9756169 72.6816822,30.9510434 72.5668007,30.9510434 C72.4279855,30.9510434 72.3171727,30.9915174 72.2357983,31.0705379 C72.1539453,31.1490766 72.1137367,31.265921 72.1137367,31.4169755 L72.1137367,31.9467504 L71.1887012,31.9467504 L71.1887012,31.435767 C71.1887012,31.2403839 71.2236443,31.0582512 71.2975993,30.8879234 C71.3691609,30.7180774 71.4677675,30.5675047 71.5917438,30.4410237 C71.7150021,30.3126153 71.8626727,30.2104668 72.0318836,30.1345782 C72.2010945,30.0584487 72.3815543,30.0199021 72.5761348,30.0199021 C72.8164287,30.0199021 73.0244121,30.0649534 73.1974524,30.1526469 C73.3697746,30.241545 73.5109832,30.3610395 73.623232,30.5140213 C73.7354808,30.6662804 73.8170945,30.8394992 73.8680732,31.0334368 C73.9190519,31.2295427 73.9453789,31.435767 73.9453789,31.654519 C73.9453789,31.8135237 73.9434642,31.9448231 73.9362841,32.0525126 C73.9312581,32.1585158 73.9180945,32.2601825 73.9008623,32.3575126 C73.8807581,32.4553246 73.8527557,32.5528957 73.8106325,32.6492622 C73.7665945,32.7480379 73.7105898,32.8665687 73.6375922,33.0063002 L72.2769642,35.6443333 L73.9453789,35.6443333 L73.9453789,36.5764384 L71.1887012,36.5764384 L71.1887012,35.7002259 Z" id="Fill-45" fill="#FEFEFE"></path>
          <path d="M75.4874239,35.234872 C75.4874239,35.3685806 75.5300258,35.4791611 75.6149903,35.5675774 C75.6992367,35.6564755 75.8086135,35.7003223 75.9412059,35.7003223 C76.0726017,35.7003223 76.1829358,35.6564755 76.2681396,35.5675774 C76.351668,35.4791611 76.3952273,35.3685806 76.3952273,35.234872 L76.3952273,31.4182765 C76.3952273,31.2833633 76.351668,31.1723009 76.2681396,31.0850893 C76.1829358,30.996673 76.0726017,30.9511398 75.9412059,30.9511398 C75.8086135,30.9511398 75.6992367,30.996673 75.6149903,31.0850893 C75.5300258,31.1723009 75.4874239,31.2833633 75.4874239,31.4182765 L75.4874239,35.234872 Z M74.5628671,31.4182765 C74.5628671,31.1975972 74.5997249,31.0039005 74.6753552,30.8330908 C74.7507462,30.6630039 74.8522249,30.5177314 74.9807486,30.3943823 C75.1064002,30.2729605 75.2528742,30.1804487 75.4201704,30.1163649 C75.5850732,30.0532449 75.7595495,30.0202393 75.9412059,30.0202393 C76.122623,30.0202393 76.2961419,30.0532449 76.4624808,30.1163649 C76.6281017,30.1804487 76.7762509,30.2729605 76.9023813,30.3943823 C77.029469,30.5177314 77.1295116,30.6630039 77.20586,30.8330908 C77.283405,31.0039005 77.3193055,31.1975972 77.3193055,31.4182765 L77.3193055,35.234872 C77.3193055,35.4526603 77.283405,35.6480434 77.20586,35.8183712 C77.1295116,35.9896627 77.029469,36.1349352 76.9023813,36.2568389 C76.7762509,36.3797062 76.6281017,36.4714953 76.4624808,36.5346153 C76.2961419,36.5994218 76.122623,36.6305 75.9412059,36.6305 C75.7595495,36.6305 75.5850732,36.5994218 75.4201704,36.5346153 C75.2528742,36.4714953 75.1064002,36.3797062 74.9807486,36.2568389 C74.8522249,36.1349352 74.7507462,35.9896627 74.6753552,35.8183712 C74.5997249,35.6480434 74.5628671,35.4526603 74.5628671,35.234872 L74.5628671,31.4182765 Z" id="Fill-47" fill="#FEFEFE"></path>
          <polygon id="Fill-49" fill="#FEFEFE" points="78.948445 31.0616481 78.0234095 31.7453685 78.0234095 30.7605028 78.948445 30.0758187 79.8734806 30.0758187 79.8734806 36.5769443 78.948445 36.5769443"></polygon>
          <path d="M81.7171853,32.622906 C81.7171853,32.7631193 81.7617019,32.8751453 81.8521711,32.9601888 C81.9433583,33.045955 82.0501024,33.0883562 82.1702493,33.0883562 C82.2906355,33.0883562 82.3964223,33.045955 82.4880882,32.9601888 C82.5778393,32.8751453 82.6235526,32.7631193 82.6235526,32.622906 L82.6235526,31.4168791 C82.6235526,31.2776295 82.5778393,31.1646398 82.4880882,31.08056 C82.3964223,30.9938302 82.2906355,30.9523926 82.1702493,30.9523926 C82.0501024,30.9523926 81.9433583,30.9938302 81.8521711,31.08056 C81.7617019,31.1646398 81.7171853,31.2776295 81.7171853,31.4168791 L81.7171853,32.622906 Z M82.1795834,33.8467607 L82.1611545,33.828451 C82.1305194,33.8525427 82.0840882,33.8730205 82.020664,33.8881983 C81.9579578,33.9026532 81.87419,33.9098807 81.7715147,33.9098807 C81.6073299,33.9098807 81.4572659,33.8722978 81.317972,33.7923136 C81.1786782,33.7120885 81.0683441,33.6123491 80.9912777,33.4892409 C80.9486758,33.4294937 80.9144507,33.3649281 80.8921924,33.293376 C80.8668227,33.224233 80.8476758,33.1348531 80.8309223,33.0247543 C80.8168014,32.9156193 80.8060313,32.7763697 80.8010052,32.6096556 C80.7945431,32.4412551 80.7921498,32.2309352 80.7921498,31.9746003 C80.7921498,31.7633167 80.7945431,31.5862433 80.8010052,31.4498847 C80.8060313,31.3130442 80.8168014,31.1966817 80.8309223,31.1024834 C80.8476758,31.0070806 80.8682588,30.9285419 80.8953038,30.8603626 C80.9225882,30.7948333 80.9570526,30.7232812 80.9996545,30.6507654 C81.1212374,30.4498412 81.2830289,30.295173 81.4862256,30.1855561 C81.6877469,30.0744937 81.9163133,30.0202875 82.1702493,30.0202875 C82.4244246,30.0202875 82.6520336,30.0759392 82.8511616,30.1896517 C83.0502896,30.3016777 83.2101664,30.4575506 83.3307919,30.6507654 C83.3733938,30.7232812 83.4092943,30.7948333 83.4411261,30.8603626 C83.4700858,30.9285419 83.4935408,31.0070806 83.5083796,31.1024834 C83.5229791,31.1966817 83.5347066,31.3130442 83.539254,31.4498847 C83.5454768,31.5862433 83.5490668,31.7633167 83.5490668,31.9746003 C83.5490668,32.1760063 83.5454768,32.3415158 83.539254,32.4718515 C83.5347066,32.6031509 83.5229791,32.7161406 83.5083796,32.8105798 C83.4935408,32.904778 83.4743938,32.9898215 83.4542896,33.0657101 C83.4322706,33.1423215 83.4071403,33.2232694 83.3767445,33.30759 L82.1611545,36.5777875 L81.1272209,36.5777875 L82.1795834,33.8467607 Z" id="Fill-51" fill="#FEFEFE"></path>
          <mask id="mask-2" fill="white">
            <use xlink:href="#path-1"></use>
          </mask>
          <g id="Clip-54"></g>
          <polygon id="Fill-53" fill="#FEFEFE" mask="url(#mask-2)" points="84.3433768 34.5119787 87.0737275 34.5119787 87.0737275 33.5813191 84.3433768 33.5813191"></polygon>
          <path d="M87.8670083,35.7002259 L89.536859,32.5312133 C89.6218235,32.3743768 89.6694514,32.235609 89.6816576,32.1165964 C89.6924277,31.9975837 89.6984111,31.8494202 89.6984111,31.6742741 C89.6984111,31.5942899 89.6957784,31.5099692 89.6895557,31.4225166 C89.6835723,31.3336185 89.6670581,31.2570071 89.640013,31.1900324 C89.6120107,31.1223349 89.5703661,31.0664423 89.50766,31.0211501 C89.4483045,30.9756169 89.3599893,30.9510434 89.2460652,30.9510434 C89.1067713,30.9510434 88.9954799,30.9915174 88.9141055,31.0705379 C88.8336884,31.1490766 88.7930012,31.265921 88.7930012,31.4169755 L88.7930012,31.9467504 L87.8670083,31.9467504 L87.8670083,31.435767 C87.8670083,31.2403839 87.9024301,31.0582512 87.9759064,30.8879234 C88.048904,30.7180774 88.147032,30.5675047 88.270769,30.4410237 C88.3937879,30.3126153 88.5409799,30.2104668 88.7101908,30.1345782 C88.8794017,30.0584487 89.0608187,30.0199021 89.255878,30.0199021 C89.4961718,30.0199021 89.7027192,30.0649534 89.8762382,30.1526469 C90.0490391,30.241545 90.1907263,30.3610395 90.3029751,30.5140213 C90.4149846,30.6662804 90.4954017,30.8394992 90.5478164,31.0334368 C90.598795,31.2295427 90.623686,31.435767 90.623686,31.654519 C90.623686,31.8135237 90.6217713,31.9448231 90.6150699,32.0525126 C90.6095652,32.1585158 90.597359,32.2601825 90.5791694,32.3575126 C90.5609799,32.4553246 90.5315415,32.5528957 90.4889396,32.6492622 C90.4453803,32.7480379 90.3874609,32.8665687 90.3168566,33.0063002 L88.954314,35.6443333 L90.623686,35.6443333 L90.623686,36.5764384 L87.8670083,36.5764384 L87.8670083,35.7002259 Z" id="Fill-55" fill="#FEFEFE" mask="url(#mask-2)"></path>
          <path d="M92.1661858,35.234872 C92.1661858,35.3685806 92.208309,35.4791611 92.2932735,35.5675774 C92.3784773,35.6564755 92.4868967,35.7003223 92.6197284,35.7003223 C92.7523209,35.7003223 92.861219,35.6564755 92.9464227,35.5675774 C93.0313872,35.4791611 93.0739891,35.3685806 93.0739891,35.234872 L93.0739891,31.4182765 C93.0739891,31.2833633 93.0313872,31.1723009 92.9464227,31.0850893 C92.861219,30.996673 92.7523209,30.9511398 92.6197284,30.9511398 C92.4868967,30.9511398 92.3784773,30.996673 92.2932735,31.0850893 C92.208309,31.1723009 92.1661858,31.2833633 92.1661858,31.4182765 L92.1661858,35.234872 Z M91.2406716,31.4182765 C91.2406716,31.1975972 91.2780081,31.0039005 91.3550744,30.8330908 C91.4295081,30.6630039 91.5309867,30.5177314 91.6585531,30.3943823 C91.7846834,30.2729605 91.932354,30.1804487 92.0984536,30.1163649 C92.2647924,30.0532449 92.4383114,30.0202393 92.6197284,30.0202393 C92.8013848,30.0202393 92.9758611,30.0532449 93.140764,30.1163649 C93.3073422,30.1804487 93.4545341,30.2729605 93.5821005,30.3943823 C93.7077521,30.5177314 93.8087521,30.6630039 93.8841431,30.8330908 C93.9616882,31.0039005 93.9990246,31.1975972 93.9990246,31.4182765 L93.9990246,35.234872 C93.9990246,35.4526603 93.9616882,35.6480434 93.8841431,35.8183712 C93.8087521,35.9896627 93.7077521,36.1349352 93.5821005,36.2568389 C93.4545341,36.3797062 93.3073422,36.4714953 93.140764,36.5346153 C92.9758611,36.5994218 92.8013848,36.6305 92.6197284,36.6305 C92.4383114,36.6305 92.2647924,36.5994218 92.0984536,36.5346153 C91.932354,36.4714953 91.7846834,36.3797062 91.6585531,36.2568389 C91.5309867,36.1349352 91.4295081,35.9896627 91.3550744,35.8183712 C91.2780081,35.6480434 91.2406716,35.4526603 91.2406716,35.234872 L91.2406716,31.4182765 Z" id="Fill-56" fill="#FEFEFE" mask="url(#mask-2)"></path>
          <path d="M94.6156273,35.7002259 L96.2849993,32.5312133 C96.3699637,32.3743768 96.4180704,32.235609 96.4297979,32.1165964 C96.4410467,31.9975837 96.4475088,31.8494202 96.4475088,31.6742741 C96.4475088,31.5942899 96.4443974,31.5099692 96.4381746,31.4225166 C96.4321912,31.3336185 96.415677,31.2570071 96.388632,31.1900324 C96.3601509,31.1223349 96.3175491,31.0664423 96.2567576,31.0211501 C96.1969235,30.9756169 96.1086083,30.9510434 95.9937268,30.9510434 C95.8539543,30.9510434 95.7440988,30.9915174 95.6627244,31.0705379 C95.5818287,31.1490766 95.5416201,31.265921 95.5416201,31.4169755 L95.5416201,31.9467504 L94.6156273,31.9467504 L94.6156273,31.435767 C94.6156273,31.2403839 94.6515277,31.0582512 94.7245254,30.8879234 C94.7970443,30.7180774 94.8951723,30.5675047 95.0186699,30.4410237 C95.1424069,30.3126153 95.2895988,30.2104668 95.4588097,30.1345782 C95.6277813,30.0584487 95.8084803,30.0199021 96.0049756,30.0199021 C96.2447908,30.0199021 96.4518168,30.0649534 96.6248571,30.1526469 C96.7976581,30.241545 96.9398239,30.3610395 97.0501581,30.5140213 C97.1633642,30.6662804 97.2440206,30.8394992 97.2949993,31.0334368 C97.347414,31.2295427 97.3727836,31.435767 97.3727836,31.654519 C97.3727836,31.8135237 97.3703903,31.9448231 97.3636889,32.0525126 C97.3586628,32.1585158 97.345978,32.2601825 97.3277884,32.3575126 C97.3091201,32.4553246 97.2796818,32.5528957 97.2370799,32.6492622 C97.1939993,32.7480379 97.1360799,32.8665687 97.0654756,33.0063002 L95.7029329,35.6443333 L97.3727836,35.6443333 L97.3727836,36.5764384 L94.6156273,36.5764384 L94.6156273,35.7002259 Z" id="Fill-57" fill="#FEFEFE" mask="url(#mask-2)"></path>
          <polygon id="Fill-58" fill="#FEFEFE" mask="url(#mask-2)" points="99.6043092 35.6080032 97.7630936 35.6080032 97.7630936 34.7317907 99.0971552 30.0763246 100.075563 30.0763246 98.6895652 34.7317907 99.6043092 34.7317907 99.6043092 32.8784218 100.529345 32.8784218 100.529345 34.7317907 100.974989 34.7317907 100.974989 35.6080032 100.529345 35.6080032 100.529345 36.5764866 99.6043092 36.5764866"></polygon>
          <path d="M20.7772796,59.0726698 L21.7659787,59.0726698 L21.7659787,54.2488033 L20.7772796,54.2488033 L20.7772796,59.0726698 Z M20.757654,53.1779305 L21.7844076,53.1779305 L21.7844076,52.2393207 L20.757654,52.2393207 L20.757654,53.1779305 Z" id="Fill-59" fill="#FEFEFE" mask="url(#mask-2)"></path>
          <path d="M24.6743479,54.8130774 C23.9807507,54.8130774 23.9326441,55.7230182 23.9326441,56.6792148 C23.9326441,57.5501272 24.0087531,58.4880142 24.6647744,58.4880142 C25.3969047,58.4880142 25.4349592,57.5501272 25.4349592,56.7083657 C25.4349592,55.7516872 25.3873313,54.8130774 24.6743479,54.8130774 L24.6743479,54.8130774 Z M25.5012555,59.0729589 L25.4823479,58.5359566 C25.2071109,58.9664739 24.8641417,59.1584842 24.3605777,59.1584842 C23.0482957,59.1584842 22.9348502,57.8664502 22.9348502,56.6510276 C22.9348502,55.3402022 23.0868289,54.1332117 24.3127104,54.1332117 C24.8260872,54.1332117 25.1592436,54.3076351 25.4251464,54.6986422 L25.4251464,52.1536027 L26.4140848,52.1536027 L26.4140848,58.1810869 C26.4140848,58.3152773 26.4425659,58.9378049 26.4519,59.0729589 L25.5012555,59.0729589 Z" id="Fill-60" fill="#FEFEFE" mask="url(#mask-2)"></path>
          <path d="M30.0917847,56.2872923 C30.0917847,55.6177859 30.1020687,54.8131256 29.3601256,54.8131256 C28.5707938,54.8131256 28.5810783,55.741376 28.5810783,56.3070474 L28.5810783,57.1389313 C28.5810783,57.7031572 28.5707938,58.5073357 29.3414573,58.5073357 C30.073109,58.5073357 30.0917847,57.7515814 30.0917847,57.1868736 L30.0917847,56.2872923 Z M29.3414573,59.1773239 C27.7156445,59.1773239 27.5832915,58.1637891 27.5832915,56.679263 C27.5832915,55.3113404 27.772846,54.1332599 29.3792725,54.1332599 C30.9663128,54.1332599 31.0900498,55.1296896 31.0900498,56.5648278 C31.0900498,58.1534297 30.9098294,59.1773239 29.3414573,59.1773239 L29.3414573,59.1773239 Z" id="Fill-61" fill="#FEFEFE" mask="url(#mask-2)"></path>
          <path d="M34.7022836,59.0728867 L34.6922315,58.5170928 C34.4167552,58.9473693 34.0364495,59.1584119 33.5228334,59.1584119 C32.6207742,59.1584119 32.2588974,58.6414056 32.2588974,57.7413424 L32.2588974,54.2490201 L33.2480751,54.2490201 L33.2480751,57.4071915 C33.2480751,57.8851694 33.2566912,58.4780644 33.8940443,58.4780644 C34.5404922,58.4780644 34.6730846,57.8189175 34.6730846,57.2917927 L34.6730846,54.2490201 L35.6622623,54.2490201 L35.6622623,58.1639096 C35.6622623,58.4983013 35.6809306,58.7568045 35.7003168,59.0728867 L34.7022836,59.0728867 Z" id="Fill-62" fill="#FEFEFE" mask="url(#mask-2)"></path>
          <polygon id="Fill-63" fill="#FEFEFE" mask="url(#mask-2)" points="74.0677517 44.5967338 45.256664 44.599143 45.256664 46.2091864 66.5535431 46.2091864 64.5802137 47.8185071 45.256664 47.8185071 45.256664 49.4287915 58.8586355 49.4287915 56.8860242 51.0383531 45.256664 51.0383531 45.256664 52.6471919 51.1850289 52.6471919 49.2112209 54.2574763 45.256664 54.2574763 45.256664 55.8660742 49.7315384 55.8660742 53.6774791 52.6471919 57.401555 52.6471919 61.3520431 49.4287915 65.0990953 49.4287915 69.0455147 46.2091864 74.0677517 46.2075"></polygon>
          <polygon id="Fill-64" fill="#FEFEFE" mask="url(#mask-2)" points="74.0663635 57.4753949 52.7402853 57.4753949 54.7133754 55.8655924 74.0663635 55.8655924 74.0663635 54.2565126 60.4143706 54.2565126 62.3879393 52.6467101 74.0663635 52.6467101 74.0663635 51.0373894 68.1085602 51.0373894 70.0818896 49.4283096 74.0663635 49.4283096 74.0658848 47.8170616 69.5642047 47.8185071 65.6156313 51.0373894 61.8671431 51.0373894 57.9223991 54.2565126 54.1966479 54.2565126 50.2475957 57.4753949 45.2564725 57.4753949 45.2564725 59.0851975 74.0663635 59.0851975"></polygon>
          <path d="M14.4852429,49.5562121 C12.4508827,49.5562121 12.3369585,48.1497429 12.3369585,45.9675233 C12.3369585,43.9780367 12.4128282,42.3696797 14.542205,42.3696797 C15.9396908,42.3696797 16.4820273,43.0490636 16.4820273,44.3704893 L16.4820273,44.5237121 L15.4265533,44.5237121 L15.4265533,44.3991584 C15.4265533,43.8151773 15.3028164,43.1832539 14.5137239,43.1832539 C13.4773969,43.1832539 13.4206742,44.2550904 13.4206742,45.9010304 C13.4206742,47.8811212 13.4967832,48.7525154 14.4754301,48.7525154 C15.3504443,48.7525154 15.4744206,48.0834909 15.4744206,47.3935067 L15.4744206,47.2407658 L16.5385107,47.2407658 L16.5385107,47.4228985 C16.5385107,48.8585186 15.8824893,49.5562121 14.4852429,49.5562121" id="Fill-65" fill="#FEFEFE" mask="url(#mask-2)"></path>
          <path d="M19.8363043,45.8911769 C19.7886763,45.4902923 19.636937,45.1645735 19.1805223,45.1645735 C18.7054393,45.1645735 18.5149275,45.4799329 18.4582047,45.9297235 C18.429245,46.1306477 18.4199109,46.3127804 18.4199109,46.5334597 L19.8549725,46.5334597 C19.8549725,46.3127804 19.8650246,46.1118562 19.8363043,45.8911769 L19.8363043,45.8911769 Z M18.4199109,47.1362322 L18.4199109,47.5183254 C18.4199109,48.3318997 18.5343137,48.857579 19.1525199,48.857579 C19.7508611,48.857579 19.8549725,48.3605687 19.8650246,47.861872 L20.8058564,47.861872 C20.7584678,48.9633412 20.3116265,49.528049 19.1525199,49.528049 C17.5738564,49.528049 17.4314512,48.4366983 17.4314512,47.1249092 C17.4314512,45.8258886 17.5738564,44.4847077 19.2085246,44.4847077 C20.5117118,44.4847077 20.7773754,45.3081596 20.8250033,46.3325355 C20.8343374,46.5893523 20.8343374,46.8671288 20.8343374,47.1362322 L18.4199109,47.1362322 Z" id="Fill-66" fill="#FEFEFE" mask="url(#mask-2)"></path>
          <path d="M24.3991348,49.4221181 L24.3991348,46.2552737 C24.3991348,45.7283898 24.3890827,45.1740415 23.7615424,45.1740415 C23.1725353,45.1740415 22.9633552,45.8527026 22.9633552,46.3410399 L22.9633552,49.4221181 L21.9751348,49.4221181 L21.9751348,45.5086742 C21.9751348,45.2027105 21.964604,44.9054198 21.9363623,44.5989743 L22.9348742,44.5989743 L22.9348742,45.183919 C23.1538671,44.7994167 23.581322,44.48478 24.1420874,44.48478 C25.1020661,44.48478 25.3875945,45.135013 25.3875945,45.9772563 L25.3875945,49.4221181 L24.3991348,49.4221181 Z" id="Fill-67" fill="#FEFEFE" mask="url(#mask-2)"></path>
          <path d="M28.1626055,49.4701086 C27.1930533,49.4701086 26.9364846,49.1443898 26.9364846,48.2067437 L26.9364846,45.2786473 L26.2711291,45.2786473 L26.2711291,44.5999862 L26.9364846,44.5999862 L26.9364846,43.7469017 L27.924705,43.3262618 L27.924705,44.5999862 L28.7238495,44.5999862 L28.7238495,45.2786473 L27.924705,45.2786473 L27.924705,48.0838764 C27.924705,48.5705273 28.0101481,48.7425415 28.4383211,48.7425415 C28.5431505,48.7425415 28.6568353,48.7336276 28.7707595,48.7143543 L28.7707595,49.4320438 C28.5711528,49.4611947 28.3717855,49.4701086 28.1626055,49.4701086" id="Fill-68" fill="#FEFEFE" mask="url(#mask-2)"></path>
          <path d="M31.7171114,45.403707 C30.9565,45.403707 30.6621161,45.8821667 30.6621161,46.5894968 L30.6621161,49.4221904 L29.6738957,49.4221904 L29.6738957,45.4704408 C29.6738957,45.3463689 29.6451754,44.7248049 29.6356019,44.6000103 L30.5860071,44.6000103 L30.6144882,45.2314518 C30.8904431,44.7050498 31.3277109,44.5050893 31.8027938,44.5050893 C31.8221801,44.5050893 31.8597559,44.5050893 31.8975711,44.5135213 L31.8975711,45.4229803 C31.8597559,45.4126209 31.7745521,45.403707 31.7171114,45.403707" id="Fill-69" fill="#FEFEFE" mask="url(#mask-2)"></path>
          <path d="M34.8726673,45.8911769 C34.8257573,45.4902923 34.6730607,45.1645735 34.2176033,45.1645735 C33.741563,45.1645735 33.5512905,45.4799329 33.4945678,45.9297235 C33.4660867,46.1306477 33.4565133,46.3127804 33.4565133,46.5334597 L34.8925322,46.5334597 C34.8925322,46.3127804 34.900909,46.1118562 34.8726673,45.8911769 L34.8726673,45.8911769 Z M33.4565133,47.1362322 L33.4565133,47.5183254 C33.4565133,48.3318997 33.5706768,48.857579 34.1886436,48.857579 C34.7877028,48.857579 34.8925322,48.3605687 34.900909,47.861872 L35.8429374,47.861872 C35.7955488,48.9633412 35.3482289,49.528049 34.1886436,49.528049 C32.6109374,49.528049 32.4678142,48.4366983 32.4678142,47.1249092 C32.4678142,45.8258886 32.6109374,44.4847077 34.2453664,44.4847077 C35.5480749,44.4847077 35.8144564,45.3081596 35.861845,46.3325355 C35.8709398,46.5893523 35.8709398,46.8671288 35.8709398,47.1362322 L33.4565133,47.1362322 Z" id="Fill-70" fill="#FEFEFE" mask="url(#mask-2)"></path>
          <path d="M1.60558886,52.9563357 L1.06397038,52.9563357 L1.06397038,55.2633499 L1.55843957,55.2633499 C2.44254858,55.2633499 2.81328081,55.0149652 2.81328081,54.0770782 C2.81328081,53.1868926 2.43225711,52.9563357 1.60558886,52.9563357 M1.6438827,56.0769242 L1.06397038,56.0769242 L1.06397038,59.0719953 L0.000119668246,59.0719953 L0.000119668246,52.1536027 L1.83415521,52.1536027 C3.22206754,52.1536027 3.88742299,52.5939976 3.88742299,54.0667188 C3.88742299,55.8661224 2.98416706,56.0769242 1.6438827,56.0769242" id="Fill-71" fill="#FEFEFE" mask="url(#mask-2)"></path>
          <path d="M7.06184515,56.2872923 C7.06184515,55.6177859 7.07165142,54.8131256 6.32994763,54.8131256 C5.54109455,54.8131256 5.55042344,55.741376 5.55042344,56.3070474 L5.55042344,57.1389313 C5.55042344,57.7031572 5.54109455,58.5073357 6.31056137,58.5073357 C7.04269171,58.5073357 7.06184515,57.7515814 7.06184515,57.1868736 L7.06184515,56.2872923 Z M6.31056137,59.1773239 C4.68546659,59.1773239 4.55215616,58.1637891 4.55215616,56.679263 C4.55215616,55.3113404 4.74218934,54.1332599 6.34885521,54.1332599 C7.93637417,54.1332599 8.0598718,55.1296896 8.0598718,56.5648278 C8.0598718,58.1534297 7.87941209,59.1773239 6.31056137,59.1773239 L6.31056137,59.1773239 Z" id="Fill-72" fill="#FEFEFE" mask="url(#mask-2)"></path>
          <path d="M13.79155,59.0728867 L13.79155,55.8082303 C13.79155,55.3401299 13.7817372,54.8327603 13.211877,54.8327603 C12.6604457,54.8327603 12.4988936,55.4355328 12.4988936,55.9147152 L12.4988936,59.0728867 L11.5099552,59.0728867 L11.5099552,55.7988345 C11.5099552,55.2346086 11.4817135,54.8327603 10.9494291,54.8327603 C10.3403178,54.8327603 10.2172988,55.5979103 10.2172988,56.0105999 L10.2172988,59.0728867 L9.22812109,59.0728867 L9.22812109,54.9862239 C9.22812109,54.7373574 9.2190263,54.4983685 9.19102393,54.2490201 L10.1787656,54.2490201 L10.1787656,54.8238464 C10.4169055,54.4210344 10.8445998,54.1331394 11.3201614,54.1331394 C12.0139979,54.1331394 12.251659,54.45934 12.3847301,54.8327603 C12.6506329,54.4704222 13.0402727,54.1331394 13.5823699,54.1331394 C14.6565121,54.1331394 14.7802491,54.9956197 14.7802491,55.7696836 L14.7802491,59.0728867 L13.79155,59.0728867 Z" id="Fill-73" fill="#FEFEFE" mask="url(#mask-2)"></path>
          <path d="M17.8874829,54.8130774 C17.1177768,54.8130774 17.0991085,55.8755182 17.0991085,56.7177615 C17.0991085,57.5886738 17.1560706,58.4786185 17.8874829,58.4786185 C18.6007057,58.4786185 18.6100398,57.2909013 18.6100398,56.5647796 C18.6100398,55.7037449 18.5817981,54.8130774 17.8874829,54.8130774 M18.1916796,59.1584842 C17.7261701,59.1584842 17.3743455,59.0144163 17.1177768,58.6316003 L17.1177768,60.9089818 L16.1290777,60.9089818 L16.1290777,55.378267 C16.1290777,55.2154076 16.1099308,54.4121927 16.0907839,54.2488515 L17.0605754,54.2488515 L17.0701488,54.7844084 C17.3461038,54.3454589 17.792945,54.1332117 18.2677886,54.1332117 C19.5513502,54.1332117 19.608073,55.3018965 19.608073,56.6026035 C19.608073,57.8852417 19.5226299,59.1584842 18.1916796,59.1584842" id="Fill-74" fill="#FEFEFE" mask="url(#mask-2)"></path>
        </g>
      </g>
    </g>
  </g>
</svg>
