<?xml version="1.0" encoding="UTF-8"?>
<svg width="50px" height="50px" viewBox="0 0 50 50" version="1.1" xmlns="http://www.w3.org/2000/svg" xmlns:xlink="http://www.w3.org/1999/xlink">
    <!-- Generator: sketchtool 52.6 (67491) - http://www.bohemiancoding.com/sketch -->
    <g id="Symbols" stroke="none" stroke-width="1" fill="none" fill-rule="evenodd">
        <g id="RS-Facebook-blanc" fill="#FFFFFF">
            <path d="M43.75,0 L6.25,0 C2.81176471,0 0,2.81470588 0,6.25 L0,43.75 C0,47.1882353 2.81176471,50 6.25,50 L25.2147059,50 L25.2147059,32.0705882 L19.2294118,32.0705882 L19.2294118,24.2617647 L25.2147059,24.2617647 L25.2147059,20.3470588 C25.2147059,14.3176471 29.6676471,9.59411765 35.3558824,9.59411765 L40.8735294,9.59411765 L40.8735294,18.4117647 L35.9352941,18.4117647 C34.6441176,18.4117647 34.2647059,19.1529412 34.2647059,20.1794118 L34.2647059,24.2617647 L40.8735294,24.2617647 L40.8735294,32.0705882 L34.2647059,32.0705882 L34.2647059,50 L43.75,50 C47.1882353,50 50,47.1882353 50,43.75 L50,6.25 C50,2.81470588 47.1882353,0 43.75,0" id="Page-1"></path>
        </g>
    </g>
</svg>