<?xml version="1.0" encoding="UTF-8"?>
<svg width="50px" height="50px" viewBox="0 0 50 50" version="1.1" xmlns="http://www.w3.org/2000/svg" xmlns:xlink="http://www.w3.org/1999/xlink">
    <!-- Generator: sketchtool 52.6 (67491) - http://www.bohemiancoding.com/sketch -->
    <title>2B303D26-9ED1-430D-8526-E1B68A6D501B</title>
    <desc>Created with sketchtool.</desc>
    <g id="Symbols" stroke="none" stroke-width="1" fill="none" fill-rule="evenodd">
        <g id="RS-Instagram-blanc" fill="#FFFFFF">
            <g id="Page-1">
                <path d="M50.0008824,11.7188235 L50.0008824,38.2805882 C50.0008824,44.7541176 44.7538235,50.0011765 38.2802941,50.0011765 L11.7185294,50.0011765 C5.24794118,50.0011765 0.000882352941,44.7541176 0.000882352941,38.2805882 L0.000882352941,11.7188235 C0.000882352941,5.24823529 5.24794118,0.00117647059 11.7185294,0.00117647059 L38.2802941,0.00117647059 C44.7538235,0.00117647059 50.0008824,5.24823529 50.0008824,11.7188235 Z M39.9264706,33.0523529 C39.9264706,36.9317647 36.7823529,40.0788235 32.9,40.0788235 L17.0382353,40.0788235 C13.1558824,40.0788235 10.0117647,36.9317647 10.0117647,33.0523529 L10.0117647,17.1876471 C10.0117647,13.3082353 13.1558824,10.1641176 17.0382353,10.1641176 L32.9,10.1641176 C36.7823529,10.1641176 39.9264706,13.3082353 39.9264706,17.1876471 L39.9264706,33.0523529 Z M32.7205882,6.69647059 L17.2176471,6.69647059 C11.3735294,6.69647059 6.63529412,11.4317647 6.63529412,17.2788235 L6.63529412,32.7788235 C6.63529412,38.6258824 11.3735294,43.3641176 17.2176471,43.3641176 L32.7205882,43.3641176 C38.5647059,43.3641176 43.3029412,38.6258824 43.3029412,32.7788235 L43.3029412,17.2788235 C43.3029412,11.4317647 38.5647059,6.69647059 32.7205882,6.69647059 Z M34.8011765,13.0285294 C33.5776471,13.0285294 32.5864706,14.0197059 32.5864706,15.2432353 C32.5864706,16.4667647 33.5776471,17.4608824 34.8011765,17.4608824 C36.0276471,17.4608824 37.0188235,16.4667647 37.0188235,15.2432353 C37.0188235,14.0197059 36.0276471,13.0285294 34.8011765,13.0285294 Z M24.9694118,31.2888235 C21.5635294,31.2888235 18.8017647,28.5270588 18.8017647,25.1211765 C18.8017647,21.7152941 21.5635294,18.9535294 24.9694118,18.9535294 C28.3752941,18.9535294 31.1370588,21.7152941 31.1370588,25.1211765 C31.1370588,28.5270588 28.3752941,31.2888235 24.9694118,31.2888235 Z M24.9694118,15.6064706 C19.7135294,15.6064706 15.4547059,19.8652941 15.4547059,25.1211765 C15.4547059,30.3741176 19.7135294,34.6358824 24.9694118,34.6358824 C30.2252941,34.6358824 34.4841176,30.3741176 34.4841176,25.1211765 C34.4841176,19.8652941 30.2252941,15.6064706 24.9694118,15.6064706 Z" id="Combined-Shape"></path>
            </g>
        </g>
    </g>
</svg>