<?xml version="1.0" encoding="UTF-8"?>
<svg xmlns="http://www.w3.org/2000/svg" xmlns:xlink="http://www.w3.org/1999/xlink" width="183px" height="100px" viewBox="0 0 183 100" version="1.1">
  <!-- Generator: Sketch 58 (84663) - https://sketch.com -->
  <title>Ircam-CP-BLANC-Rectangle Copy</title>
  <desc>Created with Sketch.</desc>
  <defs>
    <polygon id="path-1" points="0.0971761659 0.0498704663 8.84274611 0.0498704663 8.84274611 5.68238341 0.0971761659 5.68238341"></polygon>
    <polygon id="path-3" points="0.0971761659 0.0498704663 8.84274611 0.0498704663 8.84274611 5.68238341 0.0971761659 5.68238341"></polygon>
    <polygon id="path-5" points="0.0170984456 0.027034731 37.1700259 0.027034731 37.1700259 31.1291072 0.0170984456 31.1291072"></polygon>
    <polygon id="path-7" points="0.0170984456 0.027034731 37.1700259 0.027034731 37.1700259 31.1291072 0.0170984456 31.1291072"></polygon>
  </defs>
  <g id="Page-1" stroke="none" stroke-width="1" fill="none" fill-rule="evenodd">
    <g id="Ircam-CP-BLANC-Rectangle">
      <g id="Ircam-CP-BLANC" transform="translate(37.000000, 32.000000)">
        <g id="IRCAM-CP-2020" transform="translate(0.000000, -0.000000)">
          <polygon id="Fill-1" fill="#FFFFFF" fill-rule="nonzero" points="55.4089379 3.79553214 55.4089379 6.82423681 95.7490155 6.82423681 92.0095856 9.85322645 55.4089379 9.85322645 55.4089379 12.8822161 81.1757253 12.8822161 77.4362954 15.9109207 55.4089379 15.9109207 55.4089379 18.9396254 66.638342 18.9396254 62.8991969 21.968615 55.4089379 21.968615 55.4089379 24.9973198 63.8846372 24.9973198 71.3580829 18.9396254 78.4137565 18.9396254 85.8957513 12.8822161 92.9950259 12.8822161 100.469326 6.82423681 109.981477 6.82053214 109.981477 3.79097256"></polygon>
          <polyline id="Fill-2" fill="#FFFFFF" fill-rule="nonzero" points="109.980622 28.0254545 69.5835492 28.0254545 73.3218393 24.9964648 109.980622 24.9964648 109.980622 21.9677601 84.1209326 21.9677601 87.8589379 18.9387704 109.980622 18.9387704 109.980622 15.9100658 98.6942228 15.9100658 102.432228 12.8813612 109.980622 12.8813612 109.980052 9.84980674 101.453342 9.85265649 93.9730569 15.9100658 86.8720726 15.9100658 79.3997667 21.9677601 72.3426684 21.9677601 64.8620985 28.0254545 55.4080829 28.0254545 55.4080829 31.054444 109.980622 31.054444 109.980622 28.0254545"></polyline>
          <path d="M19.3209586,23.189729 C17.6133938,23.189729 17.5176425,22.0170606 17.5176425,20.197501 C17.5176425,18.537812 17.5814767,17.1975788 19.3688341,17.1975788 C20.5420726,17.1975788 20.9966063,17.7641073 20.9966063,18.8649622 L20.9966063,18.9926306 L20.1109067,18.9926306 L20.1109067,18.889185 C20.1109067,18.4021643 20.0071762,17.8755321 19.3448964,17.8755321 C18.4751554,17.8755321 18.4275648,18.7694959 18.4275648,20.1419311 C18.4275648,21.793356 18.491114,22.5197549 19.3129793,22.5197549 C20.0470726,22.5197549 20.1508031,21.9609208 20.1508031,21.3864129 L20.1508031,21.2590296 L21.0444818,21.2590296 L21.0444818,21.4103507 C21.0444818,22.606957 20.4939119,23.189729 19.3209586,23.189729" id="Fill-3" fill="#FFFFFF" fill-rule="nonzero"></path>
          <path d="M23.8130052,20.1336668 C23.7731088,19.7985373 23.6454404,19.5275269 23.2624352,19.5275269 C22.8634715,19.5275269 22.703886,19.790843 22.6560104,20.1658689 C22.6323575,20.3334338 22.6240933,20.4847549 22.6240933,20.6685633 L23.8292487,20.6685633 C23.8292487,20.4847549 23.8369431,20.3171901 23.8130052,20.1336668 Z M22.6240933,21.1709725 L22.6240933,21.4898585 C22.6240933,22.1683819 22.7198446,22.606957 23.2384975,22.606957 C23.7411916,22.606957 23.8292487,22.1923198 23.8369431,21.7771125 L24.6271762,21.7771125 C24.5869948,22.6950139 24.2119688,23.1657911 23.2384975,23.1657911 C21.9139379,23.1657911 21.7942487,22.2564388 21.7942487,21.1632783 C21.7942487,20.077812 21.9139379,18.9607135 23.286373,18.9607135 C24.3795337,18.9607135 24.6032383,19.647216 24.6428498,20.5009984 C24.6508291,20.7164388 24.6508291,20.9478378 24.6508291,21.1709725 L22.6240933,21.1709725 L22.6240933,21.1709725 Z" id="Fill-4" fill="#FFFFFF" fill-rule="nonzero"></path>
          <path d="M27.6430569,23.0780192 L27.6430569,20.4368792 C27.6430569,19.9983041 27.6353628,19.5352212 27.1087305,19.5352212 C26.6140155,19.5352212 26.4384715,20.1017497 26.4384715,20.5086928 L26.4384715,23.0780192 L25.608627,23.0780192 L25.608627,19.8147809 C25.608627,19.5591591 25.6006477,19.3120865 25.5767098,19.0564648 L26.4145337,19.0564648 L26.4145337,19.5429156 C26.597772,19.2240296 26.9571243,18.9607135 27.4279015,18.9607135 C28.2338084,18.9607135 28.4731866,19.5035892 28.4731866,20.2054802 L28.4731866,23.0780192 L27.6430569,23.0780192" id="Fill-5" fill="#FFFFFF" fill-rule="nonzero"></path>
          <path d="M30.8028498,23.1179156 C29.9889638,23.1179156 29.7735232,22.8469051 29.7735232,22.0649363 L29.7735232,19.6232783 L29.2149741,19.6232783 L29.2149741,19.0564648 L29.7735232,19.0564648 L29.7735232,18.3463093 L30.6033678,17.9952213 L30.6033678,19.0564648 L31.273627,19.0564648 L31.273627,19.6232783 L30.6033678,19.6232783 L30.6033678,21.9609208 C30.6033678,22.3678637 30.6751814,22.5112058 31.0342487,22.5112058 C31.1220207,22.5112058 31.217772,22.5035114 31.3135232,22.4872679 L31.3135232,23.0862834 C31.1459586,23.1102212 30.9786787,23.1179156 30.8028498,23.1179156" id="Fill-6" fill="#FFFFFF" fill-rule="nonzero"></path>
          <path d="M33.7870985,19.7267238 C33.1490414,19.7267238 32.9016839,20.1256876 32.9016839,20.7164388 L32.9016839,23.0780192 L32.0715544,23.0780192 L32.0715544,19.7828637 C32.0715544,19.6788482 32.0476165,19.1601953 32.0396372,19.0564648 L32.8375648,19.0564648 L32.8615025,19.583097 C33.0929015,19.1445219 33.4602333,18.976957 33.8589119,18.976957 C33.8751554,18.976957 33.9070726,18.976957 33.9387046,18.9846514 L33.9387046,19.7429675 C33.9070726,19.7344181 33.8349741,19.7267238 33.7870985,19.7267238" id="Fill-7" fill="#FFFFFF" fill-rule="nonzero"></path>
          <path d="M36.4362176,20.1336668 C36.3963213,19.7985373 36.2686529,19.5275269 35.8856477,19.5275269 C35.4866839,19.5275269 35.3270985,19.790843 35.2792228,20.1658689 C35.2552849,20.3334338 35.2473057,20.4847549 35.2473057,20.6685633 L36.4524611,20.6685633 C36.4524611,20.4847549 36.4601554,20.3171901 36.4362176,20.1336668 Z M35.2473057,21.1709725 L35.2473057,21.4898585 C35.2473057,22.1683819 35.3430569,22.606957 35.8617098,22.606957 C36.3644042,22.606957 36.4524611,22.1923198 36.4601554,21.7771125 L37.2501036,21.7771125 C37.2102073,22.6950139 36.8351814,23.1657911 35.8617098,23.1657911 C34.5371502,23.1657911 34.4174611,22.2564388 34.4174611,21.1632783 C34.4174611,20.077812 34.5371502,18.9607135 35.9095856,18.9607135 C37.002746,18.9607135 37.2261659,19.647216 37.2660621,20.5009984 C37.2740414,20.7164388 37.2740414,20.9478378 37.2740414,21.1709725 L35.2473057,21.1709725 L35.2473057,21.1709725 Z" id="Fill-8" fill="#FFFFFF" fill-rule="nonzero"></path>
          <path d="M8.54893782,25.9588223 L8.09411916,25.9588223 L8.09411916,27.8818275 L8.50904144,27.8818275 C9.251114,27.8818275 9.56230569,27.6743664 9.56230569,26.8921125 C9.56230569,26.1503248 9.24313471,25.9588223 8.54893782,25.9588223 Z M8.58085492,28.5597809 L8.09411916,28.5597809 L8.09411916,31.0572938 L7.20044042,31.0572938 L7.20044042,25.2882783 L8.74044042,25.2882783 C9.9054145,25.2882783 10.4639637,25.6556099 10.4639637,26.8844181 C10.4639637,28.3845219 9.70593264,28.5597809 8.58085492,28.5597809 L8.58085492,28.5597809 Z" id="Fill-9" fill="#FFFFFF" fill-rule="nonzero"></path>
          <path d="M13.1290504,28.7350399 C13.1290504,28.1767756 13.1367358,27.5068016 12.5146373,27.5068016 C11.8520725,27.5068016 11.8603265,28.2805062 11.8603265,28.7512834 L11.8603265,29.4451953 C11.8603265,29.9162574 11.8520725,30.5862317 12.4986788,30.5862317 C13.1127979,30.5862317 13.1290504,29.9561539 13.1290504,29.4853767 L13.1290504,28.7350399 Z M12.4986788,31.1450658 C11.1342228,31.1450658 11.022228,30.2992627 11.022228,29.0624752 C11.022228,27.9214388 11.1820985,26.9399882 12.5303109,26.9399882 C13.8628497,26.9399882 13.9665803,27.7701177 13.9665803,28.9667238 C13.9665803,30.2912834 13.8149741,31.1450658 12.4986788,31.1450658 L12.4986788,31.1450658 Z" id="Fill-10" fill="#FFFFFF" fill-rule="nonzero"></path>
          <g id="Group-14" transform="translate(14.818653, 26.890118)">
            <g id="Fill-11-Clipped">
              <mask id="mask-2" fill="white">
                <use xlink:href="#path-1"></use>
              </mask>
              <g id="path-1"></g>
              <path d="M3.95914508,4.16717617 L3.95914508,1.4465285 C3.95914508,1.05525907 3.95145077,0.63207254 3.47240933,0.63207254 C3.00989638,0.63207254 2.87396372,1.13533679 2.87396372,1.53373057 L2.87396372,4.16717617 L2.04411916,4.16717617 L2.04411916,1.43826425 C2.04411916,0.967772021 2.02018134,0.63207254 1.57362694,0.63207254 C1.06295337,0.63207254 0.959222797,1.27069948 0.959222797,1.61409326 L0.959222797,4.16717617 L0.129378238,4.16717617 L0.129378238,0.760310881 C0.129378238,0.552564768 0.12111399,0.353367876 0.0971761659,0.145621762 L0.927020726,0.145621762 L0.927020726,0.624378238 C1.12678756,0.289248705 1.48556995,0.0498704663 1.88481866,0.0498704663 C2.46730569,0.0498704663 2.66678757,0.321165803 2.77821243,0.63207254 C3.00191709,0.329430052 3.32878238,0.0498704663 3.783886,0.0498704663 C4.68554404,0.0498704663 4.78898964,0.768005182 4.78898964,1.41432642 L4.78898964,4.16717617 L3.95914508,4.16717617" id="Fill-11" fill="#FFFFFF" fill-rule="nonzero" mask="url(#mask-2)"></path>
            </g>
            <g id="Fill-13-Clipped">
              <mask id="mask-4" fill="white">
                <use xlink:href="#path-3"></use>
              </mask>
              <g id="path-1"></g>
              <path d="M7.39821243,0.616683937 C6.75217617,0.616683937 6.73621762,1.50209845 6.73621762,2.20455958 C6.73621762,2.9303886 6.78409326,3.67217617 7.39821243,3.67217617 C7.99694301,3.67217617 8.0046373,2.68331607 8.0046373,2.07660621 C8.0046373,1.3584715 7.98069948,0.616683937 7.39821243,0.616683937 Z M7.6538342,4.23898964 C7.26284975,4.23898964 6.96761659,4.11930052 6.75217617,3.8004145 L6.75217617,5.69948186 L5.92233161,5.69948186 L5.92233161,1.08746114 C5.92233161,0.951528498 5.90637305,0.281554404 5.89012954,0.145621762 L6.70430052,0.145621762 L6.71227979,0.592746113 C6.94367876,0.225414508 7.31870467,0.0498704663 7.71738341,0.0498704663 C8.79487046,0.0498704663 8.84274611,1.02334197 8.84274611,2.10880829 C8.84274611,3.17803109 8.77093264,4.23898964 7.6538342,4.23898964 L7.6538342,4.23898964 Z" id="Fill-13" fill="#FFFFFF" fill-rule="nonzero" mask="url(#mask-4)"></path>
            </g>
          </g>
          <path d="M24.6451309,31.0572938 L25.6084126,31.0572938 L25.6084126,27.0357394 L24.6451309,27.0357394 L24.6451309,31.0572938 Z M24.6266063,26.1417756 L25.6266063,26.1417756 L25.6266063,25.3598068 L24.6266063,25.3598068 L24.6266063,26.1417756 Z" id="Fill-15" fill="#FFFFFF" fill-rule="nonzero"></path>
          <path d="M27.9143523,27.5068016 C27.3318653,27.5068016 27.2919688,28.2648327 27.2919688,29.0624752 C27.2919688,29.7888742 27.3558031,30.570843 27.9060881,30.570843 C28.5207772,30.570843 28.5526943,29.7888742 28.5526943,29.0864129 C28.5526943,28.2887704 28.5127979,27.5068016 27.9143523,27.5068016 Z M28.6085492,31.0572938 L28.5923057,30.6101694 C28.3611916,30.9698068 28.0739379,31.1291072 27.6510362,31.1291072 C26.5496113,31.1291072 26.454145,30.0519051 26.454145,29.0385373 C26.454145,27.9453767 26.5818134,26.9399882 27.61114,26.9399882 C28.0420207,26.9399882 28.3210104,27.083615 28.5447151,27.4110503 L28.5447151,25.2882783 L29.3745596,25.2882783 L29.3745596,30.3152212 C29.3745596,30.427216 29.3984975,30.9458689 29.4064768,31.0572938 L28.6085492,31.0572938 L28.6085492,31.0572938 Z" id="Fill-16" fill="#FFFFFF" fill-rule="nonzero"></path>
          <path d="M32.4625478,28.7350399 C32.4625478,28.1767756 32.4702333,27.5068016 31.8478498,27.5068016 C31.1855699,27.5068016 31.19354,28.2805062 31.19354,28.7512834 L31.19354,29.4451953 C31.19354,29.9162574 31.1855699,30.5862317 31.8321762,30.5862317 C32.4462954,30.5862317 32.4625478,29.9561539 32.4625478,29.4853767 L32.4625478,28.7350399 Z M31.8321762,31.1450658 C30.4677203,31.1450658 30.3557253,30.2992627 30.3557253,29.0624752 C30.3557253,27.9214388 30.5155958,26.9399882 31.8638084,26.9399882 C33.1963471,26.9399882 33.3000778,27.7701177 33.3000778,28.9667238 C33.3000778,30.2912834 33.1484715,31.1450658 31.8321762,31.1450658 L31.8321762,31.1450658 Z" id="Fill-17" fill="#FFFFFF" fill-rule="nonzero"></path>
          <g id="Group-21">
            <g id="Fill-18-Clipped">
              <mask id="mask-6" fill="white">
                <use xlink:href="#path-5"></use>
              </mask>
              <g id="path-3"></g>
              <path d="M36.332487,31.0572938 L36.3242228,30.5947809 C36.0931088,30.9535633 35.7739379,31.1291072 35.342772,31.1291072 C34.5850259,31.1291072 34.2815285,30.6982265 34.2815285,29.9484595 L34.2815285,27.0357394 L35.111373,27.0357394 L35.111373,29.669185 C35.111373,30.0681487 35.1196372,30.5622938 35.6542487,30.5622938 C36.1965544,30.5622938 36.3085492,30.0120089 36.3085492,29.5734338 L36.3085492,27.0357394 L37.1383937,27.0357394 L37.1383937,30.2992627 C37.1383937,30.5785373 37.1540674,30.7939777 37.1700259,31.0572938 L36.332487,31.0572938" id="Fill-18" fill="#FFFFFF" fill-rule="nonzero" mask="url(#mask-6)"></path>
            </g>
            <g id="Fill-20-Clipped">
              <mask id="mask-8" fill="white">
                <use xlink:href="#path-7"></use>
              </mask>
              <g id="path-3"></g>
              <path d="M0.0361917098,12.8839259 L1.90875648,12.8839259 L1.90875648,3.80864095 L0.0361917098,3.80864095 L0.0361917098,12.8839259 Z M0,1.79159432 L1.94466322,1.79159432 L1.94466322,0.027034731 L0,0.027034731 L0,1.79159432 Z" id="Fill-20" fill="#FFFFFF" fill-rule="nonzero" mask="url(#mask-8)"></path>
            </g>
          </g>
          <path d="M8.33663213,5.32099846 C6.89608808,5.32099846 6.33782383,6.22123162 6.33782383,7.55377049 L6.33782383,12.8836409 L4.46525906,12.8836409 L4.46525906,5.44724199 C4.46525906,5.21270831 4.411114,4.04260467 4.39316063,3.80864095 L6.19362695,3.80864095 L6.24805699,4.99669653 C6.77012954,4.00641298 7.59826425,3.62853733 8.49849741,3.62853733 C8.53468912,3.62853733 8.60678757,3.62853733 8.67860104,3.64620572 L8.67860104,5.3569052 C8.60678757,5.33895183 8.4446373,5.32099846 8.33663213,5.32099846" id="Fill-22" fill="#FFFFFF" fill-rule="nonzero"></path>
          <path d="M13.0717617,13.0819829 C10.1365285,13.0819829 9.75865285,11.299185 9.75865285,8.63410727 C9.75865285,5.98726789 10.01057,3.59234561 13.1259067,3.59234561 C15.4125389,3.59234561 16.1326684,4.54643888 16.1509067,6.74330417 L14.3501554,6.74330417 C14.3501554,5.82511764 14.2421503,4.8707394 13.1076684,4.8707394 C11.5773575,4.8707394 11.649171,6.7615425 11.649171,8.30980674 C11.649171,10.3630451 11.7030311,11.8215425 13.0538083,11.8215425 C14.2421503,11.8215425 14.3683938,10.7947808 14.3860622,9.84068758 L16.1870985,9.84068758 C16.1688601,11.3892368 15.7906995,13.0819829 13.0717617,13.0819829" id="Fill-23" fill="#FFFFFF" fill-rule="nonzero"></path>
          <path d="M22.0740933,8.41809691 L21.6959326,8.41809691 C20.3995856,8.41809691 19.4631607,8.79625754 19.4631607,10.2006099 C19.4631607,10.9572161 19.6791709,11.7853508 20.5796891,11.7853508 C21.8218912,11.7853508 22.0740933,10.4169052 22.0740933,9.46224199 L22.0740933,8.41809691 Z M22.2182902,12.8836409 L22.1820985,11.7853508 C21.6238341,12.6496772 20.9034197,13.0457912 19.8413213,13.0457912 C18.2027202,13.0457912 17.5546891,11.8574492 17.5546891,10.3630451 C17.5546891,7.4457653 19.7153628,7.22946997 22.0740933,7.22946997 L22.0740933,6.79744923 C22.0740933,5.91516944 22.11,4.8168793 20.9396113,4.8168793 C20.1473835,4.8168793 19.6971243,5.33895183 19.6971243,6.11322645 L19.6971243,6.22123162 L17.842513,6.22123162 L17.842513,6.09527308 C17.842513,4.16856323 19.3731088,3.59234561 21.0296632,3.59234561 C23.2444818,3.59234561 23.9107513,4.56467722 23.9107513,6.67120572 L23.9107513,9.91250105 C23.9107513,10.903071 23.8927979,11.893356 24.0008031,12.8836409 L22.2182902,12.8836409 L22.2182902,12.8836409 Z" id="Fill-24" fill="#FFFFFF" fill-rule="nonzero"></path>
          <path d="M35.0558031,12.8836409 L35.0558031,6.74330417 C35.0558031,5.86130934 35.0378498,4.9069311 33.957228,4.9069311 C32.9130829,4.9069311 32.6070207,6.041128 32.6070207,6.94164614 L32.6070207,12.8836409 L30.7344559,12.8836409 L30.7344559,6.72563576 C30.7344559,5.66296737 30.6803109,4.9069311 29.6717876,4.9069311 C28.5193523,4.9069311 28.2853887,6.34747515 28.2853887,7.12174976 L28.2853887,12.8836409 L26.4128238,12.8836409 L26.4128238,5.1950399 C26.4128238,4.7265425 26.3945856,4.27656842 26.3407253,3.80864095 L28.2132902,3.80864095 L28.2132902,4.88897773 C28.6635492,4.13237151 29.4737305,3.59234561 30.3742487,3.59234561 C31.6885492,3.59234561 32.1385232,4.20446997 32.3907253,4.9069311 C32.8951295,4.22270831 33.6332124,3.59234561 34.6596891,3.59234561 C36.6944042,3.59234561 36.9286529,5.21270831 36.9286529,6.67120572 L36.9286529,12.8836409 L35.0558031,12.8836409" id="Fill-25" fill="#FFFFFF" fill-rule="nonzero"></path>
        </g>
      </g>
    </g>
  </g>
</svg>
