<?xml version="1.0" encoding="utf-8"?>
<!-- Generator: Adobe Illustrator 25.3.0, SVG Export Plug-In . SVG Version: 6.00 Build 0)  -->
<svg version="1.1" id="Calque_1" xmlns="http://www.w3.org/2000/svg" xmlns:xlink="http://www.w3.org/1999/xlink" x="0px" y="0px"
	 viewBox="0 0 39 39" style="enable-background:new 0 0 39 39;" xml:space="preserve">
<style type="text/css">
	.st0{fill-rule:evenodd;clip-rule:evenodd;fill:#FFFFFF;}
</style>
<g id="Symbols">
	<g id="RS-LinkedIn">
		<path class="st0" d="M28.5,4.2H10.3c-3.6,0-6.5,2.9-6.5,6.5v18.2c0,3.6,2.9,6.5,6.5,6.5c0,0,0,0,0,0h18.2c3.6,0,6.5-2.9,6.5-6.5
			c0,0,0,0,0,0V10.7C35,7.1,32.1,4.2,28.5,4.2z M14.2,28.9h-3.9V14.6h3.9V28.9z M12.3,12.9c-1.3,0-2.3-1-2.3-2.3
			c0-1.3,1-2.3,2.3-2.3c1.3,0,2.3,1,2.3,2.3c0,0,0,0,0,0.1C14.5,11.9,13.5,12.9,12.3,12.9z M29.8,28.9h-3.9v-7.3c0-4.4-5.2-4-5.2,0
			v7.3h-3.9V14.6h3.9v2.3c1.8-3.4,9.1-3.6,9.1,3.2L29.8,28.9z"/>
	</g>
</g>
</svg>
