<?xml version="1.0" encoding="UTF-8"?>
<svg width="409px" height="316px" viewBox="0 0 409 316" version="1.1" xmlns="http://www.w3.org/2000/svg" xmlns:xlink="http://www.w3.org/1999/xlink">
    <!-- Generator: Sketch 52.6 (67491) - http://www.bohemiancoding.com/sketch -->
    <title>Logo-ministere-culture</title>
    <desc>Created with Sketch.</desc>
    <defs>
        <polygon id="path-1" points="0.264376471 0.946181006 17.4800235 0.946181006 17.4800235 30.5855106 0.264376471 30.5855106"></polygon>
        <polygon id="path-3" points="0.0844258824 0.995611173 101.299461 0.995611173 101.299461 18.7709497 0.0844258824 18.7709497"></polygon>
        <polygon id="path-5" points="0 0.541979888 50.8610447 0.541979888 50.8610447 39.8971531 0 39.8971531"></polygon>
        <polygon id="path-7" points="0.368170676 0.541854749 47.9924353 0.541854749 47.9924353 39.8969028 0.368170676 39.8969028"></polygon>
    </defs>
    <g id="Page-1" stroke="none" stroke-width="1" fill="none" fill-rule="evenodd">
        <g id="Logo-ministere-culture">
            <rect id="Rectangle" fill="#FFFFFF" fill-rule="nonzero" x="0" y="0" width="409" height="316"></rect>
            <g id="Group-54" transform="translate(54.000000, 44.000000)">
                <polygon id="Fill-1" fill="#020203" points="21.5418719 59 14.4987685 71.3425097 7.45812808 59 0 59 0 89 5.91625616 89 5.91625616 67.6577436 12.4162562 78.7145752 16.5825123 78.7145752 23.0837438 67.6577436 23.0837438 89 29 89 29 59"></polygon>
                <polygon id="Fill-2" fill="#020203" points="38 89 44 89 44 59 38 59"></polygon>
                <polygon id="Fill-3" fill="#020203" points="52 59 59.7142857 59 72.9806523 80.470551 72.9806523 59 79 59 79 89 71.2857143 89 58.0180949 67.4433186 58.0180949 89 52 89"></polygon>
                <polygon id="Fill-4" fill="#020203" points="87 89 93 89 93 59 87 59"></polygon>
                <g id="Group-53">
                    <path d="M103.057814,81.0819933 C104.829885,83.3670436 107.191814,84.7223061 109.597391,84.7223061 C111.960567,84.7223061 113.394685,83.4533899 113.394685,81.2934793 C113.394685,76.0000715 99.8927788,77.1863955 99.8927788,67.3203844 C99.8927788,62.6213899 103.732473,58.7257922 109.344238,58.7257922 C113.775038,58.7257922 117.191979,60.7167642 119.682355,63.722619 L115.293955,67.6595128 C113.564285,65.4145073 111.622614,63.9754011 109.386638,63.9754011 C107.319014,63.9754011 105.968449,65.3306637 105.968449,67.0676022 C105.968449,72.3585073 119.471602,71.1321385 119.471602,81.1658369 C119.386802,86.6707307 115.083202,90.0582615 109.682191,90.0582615 C104.702685,90.0582615 101.328144,88.2374793 98.7118141,85.1039821 L103.057814,81.0819933 Z" id="Fill-5" fill="#020203"></path>
                    <polygon id="Fill-7" fill="#020203" points="122.510186 59.5724872 146.729315 59.5724872 146.729315 65.0348335 137.615809 65.0348335 137.615809 89.2118168 131.624939 89.2118168 131.624939 65.0348335 122.510186 65.0348335"></polygon>
                    <path d="M152.510929,51.3161475 L158.6714,51.3161475 L163.438906,57.031276 L157.954341,57.031276 L152.510929,51.3161475 Z M152.004624,59.5728626 L169.219024,59.5728626 L169.219024,64.6948291 L157.995494,64.6948291 L157.995494,71.5549855 L167.531753,71.5549855 L167.531753,76.6782034 L157.995494,76.6782034 L157.995494,84.0864715 L169.219024,84.0864715 L169.219024,89.2109408 L152.004624,89.2109408 L152.004624,59.5728626 Z" id="Fill-9" fill="#020203"></path>
                    <path d="M182.173595,64.6953296 L182.173595,72.1048492 L185.549384,72.1048492 C188.080913,72.1048492 189.557431,70.750838 189.557431,68.3368939 C189.557431,66.0931397 188.080913,64.6953296 185.549384,64.6953296 L182.173595,64.6953296 Z M176.181478,59.5721117 L185.211431,59.5721117 C191.708607,59.5721117 195.717901,62.917095 195.717901,68.4219888 C195.717901,71.9784581 193.988231,74.6451844 190.992795,76.0855419 L200.274654,89.2114413 L193.102819,89.2114413 L185.253831,77.2293184 L182.173595,77.2293184 L182.173595,89.2114413 L176.181478,89.2114413 L176.181478,59.5721117 Z" id="Fill-11" fill="#020203"></path>
                    <polygon id="Fill-13" fill="#020203" points="203.988645 59.5724872 221.203045 59.5724872 221.203045 64.695705 209.979515 64.695705 209.979515 71.5546101 219.515774 71.5546101 219.515774 76.6778279 209.979515 76.6778279 209.979515 84.0873475 221.203045 84.0873475 221.203045 89.2118168 203.988645 89.2118168"></polygon>
                    <path d="M6.09475059,107.772031 L6.09475059,126.485417 L11.7900682,126.485417 C17.27588,126.485417 21.2415271,122.379584 21.2415271,117.129975 C21.2415271,111.836568 17.27588,107.772031 11.7900682,107.772031 L6.09475059,107.772031 Z M0.102632941,102.309685 L11.7065153,102.309685 C21.0731741,102.309685 27.4019976,109.126042 27.4019976,117.129975 C27.4019976,125.131406 21.0731741,131.947763 11.7065153,131.947763 L0.102632941,131.947763 L0.102632941,102.309685 Z" id="Fill-15" fill="#020203"></path>
                    <polygon id="Fill-17" fill="#020203" points="33.1836118 102.309309 50.3992588 102.309309 50.3992588 107.433779 39.1757294 107.433779 39.1757294 114.291432 48.7107412 114.291432 48.7107412 119.415902 39.1757294 119.415902 39.1757294 126.825421 50.3992588 126.825421 50.3992588 131.948639 33.1836118 131.948639"></polygon>
                    <polygon id="Fill-19" fill="#020203" points="68.3319647 102.309309 74.3228353 102.309309 74.3228353 126.485041 85.5463647 126.485041 85.5463647 131.948639 68.3319647 131.948639"></polygon>
                    <path d="M107.530266,119.11882 L103.479819,107.983893 L99.4293718,119.11882 L107.530266,119.11882 Z M99.5553247,102.308809 L107.403066,102.308809 L118.585442,131.948139 L112.214219,131.948139 L109.387136,124.242038 L97.5725012,124.242038 L94.7454188,131.948139 L88.3741953,131.948139 L99.5553247,102.308809 Z" id="Fill-21" fill="#020203"></path>
                    <path d="M154.998936,123.099137 L159.725289,126.73945 C157.02416,130.424813 152.63576,132.794959 147.277148,132.794959 C137.952889,132.794959 131.581666,125.596925 131.581666,117.128724 C131.581666,108.660523 137.952889,101.462489 147.277148,101.462489 C152.63576,101.462489 157.02416,103.876434 159.725289,107.47545 L154.998936,111.158311 C153.310419,108.745618 150.652936,107.093774 147.277148,107.093774 C141.707784,107.093774 137.742136,111.454892 137.742136,117.128724 C137.742136,122.802556 141.707784,127.163674 147.277148,127.163674 C150.652936,127.163674 153.310419,125.513082 154.998936,123.099137" id="Fill-23" fill="#020203"></path>
                    <path d="M182.003746,102.309309 L187.995864,102.309309 L187.995864,120.346941 C187.995864,128.138136 183.437864,132.794583 176.011628,132.794583 C168.627793,132.794583 164.072287,128.138136 164.072287,120.346941 L164.072287,102.309309 L170.063158,102.309309 L170.063158,120.853756 C170.063158,124.835701 172.299134,127.163298 176.054028,127.163298 C179.725369,127.163298 182.003746,124.835701 182.003746,120.853756 L182.003746,102.309309 Z" id="Fill-25" fill="#020203"></path>
                    <polygon id="Fill-27" fill="#020203" points="195.422348 102.309309 201.413219 102.309309 201.413219 126.485041 212.636748 126.485041 212.636748 131.948639 195.422348 131.948639"></polygon>
                    <polygon id="Fill-29" fill="#020203" points="211.414256 102.309309 235.633386 102.309309 235.633386 107.771656 226.51988 107.771656 226.51988 131.948639 220.529009 131.948639 220.529009 107.771656 211.414256 107.771656"></polygon>
                    <path d="M258.334346,102.309309 L264.326464,102.309309 L264.326464,120.346941 C264.326464,128.138136 259.769711,132.794583 252.343475,132.794583 C244.958393,132.794583 240.402887,128.138136 240.402887,120.346941 L240.402887,102.309309 L246.393758,102.309309 L246.393758,120.853756 C246.393758,124.835701 248.629734,127.163298 252.385875,127.163298 C256.055969,127.163298 258.334346,124.835701 258.334346,120.853756 L258.334346,102.309309 Z" id="Fill-31" fill="#020203"></path>
                    <path d="M277.744692,107.433403 L277.744692,114.842923 L281.119233,114.842923 C283.650762,114.842923 285.128527,113.48766 285.128527,111.073716 C285.128527,108.829962 283.650762,107.433403 281.119233,107.433403 L277.744692,107.433403 Z M271.752574,102.308934 L280.782527,102.308934 C287.279704,102.308934 291.287751,105.653917 291.287751,111.158811 C291.287751,114.71528 289.559327,117.382007 286.562645,118.823616 L295.845751,131.948264 L288.672668,131.948264 L280.824927,119.966141 L277.744692,119.966141 L277.744692,131.948264 L271.752574,131.948264 L271.752574,102.308934 Z" id="Fill-33" fill="#020203"></path>
                    <g id="Group-37" transform="translate(299.294118, 101.363128)">
                        <mask id="mask-2" fill="white">
                            <use xlink:href="#path-1"></use>
                        </mask>
                        <g id="Clip-36"></g>
                        <polygon id="Fill-35" fill="#020203" mask="url(#mask-2)" points="0.264376471 0.946181006 17.4800235 0.946181006 17.4800235 6.07065028 6.25649412 6.07065028 6.25649412 12.9283039 15.7915059 12.9283039 15.7915059 18.0527732 6.25649412 18.0527732 6.25649412 25.4622927 17.4800235 25.4622927 17.4800235 30.5855106 0.264376471 30.5855106"></polygon>
                    </g>
                    <g id="Group-40" transform="translate(0.000000, 205.229050)">
                        <mask id="mask-4" fill="white">
                            <use xlink:href="#path-3"></use>
                        </mask>
                        <g id="Clip-39"></g>
                        <path d="M8.61680235,18.3362145 L8.83379059,17.6629631 C5.95308471,17.1186056 5.58520235,17.1186056 6.73249647,13.9688402 L7.90223765,10.7302257 L11.0859788,10.7302257 C12.5151082,10.7302257 12.5363082,11.3183821 12.3205671,12.8826279 L13.1423788,12.8826279 L15.0491318,7.64428156 L14.2260729,7.64428156 C13.5115082,8.88316425 12.9478376,9.7966838 11.3890141,9.7966838 L8.24892,9.7966838 L9.91623765,5.21156648 C10.4362612,3.75494078 10.7392965,3.4508514 12.6884494,3.4508514 L14.0739318,3.4508514 C16.0879318,3.4508514 16.32612,3.99395754 16.32612,6.03748827 L17.1279788,6.03748827 L17.7988965,2.47225922 L5.84459059,2.47225922 L5.62884941,3.14676201 C7.94588471,3.62479553 8.16162588,3.84253855 7.07917882,6.83963352 L4.48155529,13.9688402 C3.39786118,16.9459128 2.94393176,17.1849296 0.278967059,17.6629631 L0.0844258824,18.3362145 L8.61680235,18.3362145 Z M25.2051788,9.60146592 C25.6154612,8.18863911 25.39972,6.94850503 24.3172729,6.94850503 C23.0390376,6.94850503 22.7148024,7.9283486 21.4153671,10.7302257 L21.4153671,9.1234324 C21.4153671,7.97089609 21.0462376,6.94850503 20.0074376,6.94850503 C18.7952965,6.94850503 17.6904024,8.83936536 16.8461435,10.708952 L17.4085671,10.708952 C17.9934376,9.86175642 18.5346612,9.36119777 18.9673906,9.36119777 C19.4874141,9.36119777 19.7692494,10.1658458 18.9673906,11.9478346 L16.6291553,17.1636559 C16.1964259,18.1409966 16.6503553,18.7717006 17.6043553,18.7717006 C18.1879788,18.7717006 18.4486141,18.6190302 18.6868024,17.9895777 L20.9826376,11.882762 C21.6323553,11.078114 22.2159788,10.3835888 22.9529906,9.60146592 L25.2051788,9.60146592 Z M35.7291082,6.44919777 L34.8187553,6.38412514 L33.8011553,7.38399106 L33.5841671,7.38399106 C28.6470612,7.38399106 24.38212,12.9464492 24.38212,16.9897117 C24.38212,18.1184715 25.0742376,18.7717006 26.1566847,18.7717006 C27.43492,18.7717006 28.6907082,16.9459128 30.0986376,14.9899799 L30.0337906,15.6857564 C29.8604494,17.6842369 30.46652,18.7717006 31.50532,18.7717006 C32.7187082,18.7717006 33.8236024,16.8808402 34.6678612,15.0112536 L34.1041906,15.0112536 C33.5205671,15.8597006 32.9793435,16.3590078 32.5453671,16.3590078 C32.0901906,16.3590078 31.7659553,15.533086 32.5453671,13.7736223 L35.7291082,6.44919777 Z M26.6118612,15.381667 C26.6118612,12.7086838 29.5786141,9.07963352 31.2459318,9.07963352 C31.6138141,9.07963352 31.9604965,9.1234324 32.2635318,9.20977877 L30.5313671,13.8374436 C29.5349671,15.0550525 27.9985906,16.532952 27.2827788,16.532952 C26.8724965,16.532952 26.6118612,16.1850637 26.6118612,15.381667 Z M37.54732,8.62287374 L39.54012,8.62287374 L36.3788259,17.2938011 C36.0969906,18.0321251 36.4860729,18.7717006 37.2442847,18.7717006 C39.0412965,18.7717006 41.9432024,16.9897117 42.9620494,14.5557453 L42.3983788,14.5557453 C41.59652,15.4029408 40.0588965,16.532952 38.7382612,16.7719687 L41.6401671,8.62287374 L44.60692,8.62287374 L44.9748024,7.38399106 L42.0953435,7.38399106 L43.1989906,4.25424804 L42.0516965,4.25424804 L39.9952965,7.38399106 L37.54732,7.73187933 L37.54732,8.62287374 Z M51.6889671,14.577019 L50.9519553,14.577019 C50.0216494,15.6857564 49.0252494,16.5542257 48.0288494,16.5542257 C47.0112494,16.5542257 46.4912259,15.9460469 46.4912259,14.577019 C46.4912259,14.0126391 46.5560729,13.4470078 46.6645671,12.9251754 L52.66292,10.9479687 C53.8326612,8.16611397 52.4247318,6.94850503 50.7786141,6.94850503 C47.9428024,6.94850503 44.7154141,11.7088179 44.7154141,15.8809743 C44.7154141,17.7493095 45.60332,18.7717006 46.9900494,18.7717006 C48.61372,18.7717006 50.3022376,17.1849296 51.6889671,14.577019 Z M49.63132,8.55780112 C50.4319318,8.55780112 51.1252965,9.16597989 50.7574141,10.708952 L47.0324494,11.5786726 C47.6821671,9.83923128 48.7646141,8.55780112 49.63132,8.55780112 Z M62.9274612,9.60146592 C63.3389906,8.18863911 63.1232494,6.94850503 62.0395553,6.94850503 C60.76132,6.94850503 60.4370847,7.9283486 59.1376494,10.7302257 L59.1376494,9.1234324 C59.1376494,7.97089609 58.7697671,6.94850503 57.72972,6.94850503 C56.5175788,6.94850503 55.4126847,8.83936536 54.5684259,10.708952 L55.1320965,10.708952 C55.7169671,9.86175642 56.2581906,9.36119777 56.69092,9.36119777 C57.2109435,9.36119777 57.4915318,10.1658458 56.69092,11.9478346 L54.3526847,17.1636559 C53.9187082,18.1409966 54.3738847,18.7717006 55.3266376,18.7717006 C55.9115082,18.7717006 56.1708965,18.6190302 56.4090847,17.9895777 L58.70492,11.882762 C59.3546376,11.078114 59.9395082,10.3835888 60.6752729,9.60146592 L62.9274612,9.60146592 Z M62.9698612,17.1636559 C62.5371318,18.1409966 62.9923082,18.7717006 63.9450612,18.7717006 C64.5299318,18.7717006 64.78932,18.6190302 65.0275082,17.9895777 L67.3233435,11.882762 C68.3845906,10.5788067 70.5719318,9.18725363 71.4386376,9.18725363 C72.0659082,9.18725363 71.9798612,9.70908603 71.5683318,10.4912089 L68.0379082,17.2938011 C67.6912259,17.9670525 68.1464024,18.7717006 68.9046141,18.7717006 C70.6367788,18.7717006 72.6944259,17.2062034 73.5162376,15.0112536 L72.9538141,15.0112536 C72.3913906,15.8146503 71.4386376,16.7056447 70.5507318,16.8583151 L73.5823318,10.708952 C73.9714141,9.92682905 74.1659553,9.18725363 74.1659553,8.6016 C74.1659553,7.60173408 73.6035318,6.94850503 72.5634847,6.94850503 C71.0695082,6.94850503 69.5543318,8.64414749 67.7560729,10.7302257 L67.7560729,9.1234324 C67.7560729,7.97089609 67.3881906,6.94850503 66.3481435,6.94850503 C65.6984259,6.94850503 65.0711553,7.51538771 64.4862847,8.31878436 L64.4862847,8.53527598 C65.6123788,8.47020335 66.1112024,10.1658458 65.3093435,11.9478346 L62.9698612,17.1636559 Z M82.0486141,3.86381229 C82.8280259,3.86381229 83.4777435,3.23435978 83.4777435,2.42971173 C83.4777435,1.64758883 82.8280259,0.995611173 82.0486141,0.995611173 C81.2480024,0.995611173 80.6194847,1.64758883 80.6194847,2.42971173 C80.6194847,3.23435978 81.2480024,3.86381229 82.0486141,3.86381229 Z M81.4425435,8.20991285 C81.6807318,7.4065162 81.1395082,6.94850503 80.7279788,6.94850503 C78.9958141,6.94850503 76.9381671,8.51400223 76.1151082,10.708952 L76.6787788,10.708952 C77.2412024,9.90555531 78.1939553,9.01456089 79.0818612,8.8618905 L75.7684259,17.5102927 C75.4653906,18.3136894 76.0714612,18.7717006 76.4829906,18.7717006 C78.1291082,18.7717006 80.0570612,17.1849296 80.8788729,15.0112536 L80.3164494,15.0112536 C79.7527788,15.8146503 78.8000259,16.7056447 77.91212,16.8583151 L81.4425435,8.20991285 Z M84.1274612,8.62287374 L86.1190141,8.62287374 L82.95772,17.2938011 C82.6771318,18.0321251 83.0662141,18.7717006 83.8244259,18.7717006 C85.6214376,18.7717006 88.5233435,16.9897117 89.5409435,14.5557453 L88.97852,14.5557453 C88.1766612,15.4029408 86.6390376,16.532952 85.3184024,16.7719687 L88.2203082,8.62287374 L91.1870612,8.62287374 L91.5549435,7.38399106 L88.6754847,7.38399106 L89.7791318,4.25424804 L88.6318376,4.25424804 L86.5741906,7.38399106 L84.1274612,7.73187933 L84.1274612,8.62287374 Z M97.07692,5.84227039 L101.299461,1.88535419 L101.299461,1.42984581 L99.0260729,1.42984581 L96.4272024,5.84227039 L97.07692,5.84227039 Z M98.2678612,14.577019 L97.5320965,14.577019 C96.6005435,15.6857564 95.6041435,16.5542257 94.6089906,16.5542257 C93.5901435,16.5542257 93.0713671,15.9460469 93.0713671,14.577019 C93.0713671,14.0126391 93.1349671,13.4470078 93.2434612,12.9251754 L99.2418141,10.9479687 C100.411555,8.16611397 99.0036259,6.94850503 97.3587553,6.94850503 C94.5216965,6.94850503 91.2943082,11.7088179 91.2943082,15.8809743 C91.2943082,17.7493095 92.1834612,18.7717006 93.5689435,18.7717006 C95.1926141,18.7717006 96.8823788,17.1849296 98.2678612,14.577019 Z M96.2102141,8.55780112 C97.0120729,8.55780112 97.7041906,9.16597989 97.3375553,10.708952 L93.6125906,11.5786726 C94.2623082,9.83923128 95.3447553,8.55780112 96.2102141,8.55780112 Z" id="Fill-38" fill="#020203" mask="url(#mask-4)"></path>
                    </g>
                    <path d="M12.9048141,179.474306 L17.1273553,176.562306 L17.1273553,176.105546 L14.5721318,176.105546 L12.2326494,179.474306 L12.9048141,179.474306 Z M11.1726494,188.578217 C12.6017788,188.578217 12.6229788,189.165122 12.4072376,190.730619 L13.2290494,190.730619 L15.1358024,185.493524 L14.3114965,185.493524 C13.5981788,186.732407 13.0345082,187.644675 11.4756847,187.644675 L8.33559059,187.644675 L9.91686118,183.277301 C10.4368847,181.820675 10.7386729,181.537859 12.6878259,181.537859 L14.0733082,181.537859 C16.0885553,181.537859 16.3267435,182.082217 16.3267435,184.101971 L17.1273553,184.101971 L17.7982729,180.539245 L5.84521412,180.539245 L5.62822588,181.212496 C7.94526118,181.69053 8.16224941,181.907021 7.07980235,184.906619 L4.48093176,192.034574 C3.39723765,195.011647 2.94330824,195.249412 0.279590588,195.728697 L0.0850494118,196.401949 L13.3811906,196.401949 L15.7630729,192.621479 L14.8539671,192.621479 C13.3375435,194.054328 11.4320376,195.424608 8.76832,195.424608 C5.23914353,195.424608 5.56337882,195.271937 6.73312,192.034574 L7.98890824,188.578217 L11.1726494,188.578217 Z M26.3094494,197.879848 C26.3094494,196.489546 25.0748612,195.988988 23.0608612,195.380809 C21.3286965,194.858977 20.5492847,194.707558 20.5492847,194.141926 C20.5492847,193.685166 20.9171671,193.14206 21.6541788,192.750373 C24.4899906,192.598954 26.3306494,190.034842 26.3306494,187.883692 C26.3306494,187.426932 26.2446024,187.036496 26.0924612,186.688608 L28.4967906,186.688608 L28.8646729,185.449725 L25.0536612,185.449725 C24.5984847,185.168161 24.0572612,185.015491 23.5160376,185.015491 C20.5056376,185.015491 18.5564847,187.665949 18.5564847,189.818351 C18.5564847,191.446418 19.5965318,192.468809 20.85232,192.707826 C19.4443906,193.33853 18.6649788,194.076854 18.6649788,194.945323 C18.6649788,195.445882 18.83832,195.79377 19.2498494,196.120384 C16.0012612,197.0752 14.7230259,198.162664 14.7230259,199.705636 C14.7230259,201.204809 16.6946259,201.834261 19.0328612,201.834261 C22.9960141,201.834261 26.3094494,199.683111 26.3094494,197.879848 Z M21.6092847,191.925703 C20.8959671,191.925703 20.6141318,191.317524 20.6141318,190.621747 C20.6141318,188.687088 21.6541788,185.841412 23.2778494,185.841412 C23.9924141,185.841412 24.2742494,186.449591 24.2742494,187.145368 C24.2742494,189.078775 23.2342024,191.925703 21.6092847,191.925703 Z M17.1273553,198.944787 C17.1273553,197.793502 18.2322494,197.0752 19.81352,196.445747 C20.3322965,196.707289 21.1129553,196.988854 22.1517553,197.335491 C23.7966259,197.879848 24.4251435,198.097591 24.4251435,198.596898 C24.4251435,199.661837 22.6281318,200.465234 20.1801553,200.465234 C18.1237553,200.465234 17.1273553,200.030999 17.1273553,198.944787 Z M39.1716141,184.514932 L38.2625082,184.451111 L37.2449082,185.449725 L37.02792,185.449725 C32.0908141,185.449725 27.8246259,191.013435 27.8246259,195.054194 C27.8246259,196.185457 28.5179906,196.836183 29.6004376,196.836183 C30.8786729,196.836183 32.1344612,195.011647 33.5423906,193.055714 L33.4775435,193.750239 C33.3029553,195.749971 33.9102729,196.836183 34.9490729,196.836183 C36.1624612,196.836183 37.2673553,194.945323 38.1116141,193.076988 L37.5479435,193.076988 C36.9630729,193.925435 36.4218494,194.424742 35.98912,194.424742 C35.5339435,194.424742 35.2097082,193.59882 35.98912,191.839356 L39.1716141,184.514932 Z M30.0556141,193.44615 C30.0556141,190.773166 33.0223671,187.145368 34.6896847,187.145368 C35.0575671,187.145368 35.4042494,187.187915 35.7072847,187.274261 L33.97512,191.904429 C32.97872,193.120787 31.4410965,194.598686 30.7265318,194.598686 C30.3150024,194.598686 30.0556141,194.250798 30.0556141,193.44615 Z M41.5322965,194.925301 L47.5742965,179.03882 L47.3797553,178.799803 L43.5899435,179.235289 L43.5899435,179.692049 L44.3257082,180.256429 C44.9966259,180.778261 44.7808847,181.277569 44.1748141,182.885613 L39.4534494,195.358284 C39.1067671,196.031535 39.5619435,196.836183 40.3201553,196.836183 C42.05232,196.836183 43.8929788,195.271937 44.7160376,193.076988 L44.1523671,193.076988 C43.5899435,193.881636 42.4202024,194.77263 41.5322965,194.925301 Z M53.0526259,181.929546 C53.8320376,181.929546 54.4817553,181.298842 54.4817553,180.494194 C54.4817553,179.712072 53.8320376,179.061345 53.0526259,179.061345 C52.2520141,179.061345 51.6234965,179.712072 51.6234965,180.494194 C51.6234965,181.298842 52.2520141,181.929546 53.0526259,181.929546 Z M52.4465553,186.275647 C52.6847435,185.470999 52.14352,185.015491 51.7319906,185.015491 C49.9998259,185.015491 47.9421788,186.579736 47.1203671,188.774686 L47.6827906,188.774686 C48.2452141,187.970038 49.1992141,187.079044 50.0858729,186.927625 L46.7736847,195.576027 C46.4706494,196.380675 47.07672,196.836183 47.4870024,196.836183 C49.13312,196.836183 51.0610729,195.249412 51.8841318,193.076988 L51.3204612,193.076988 C50.7580376,193.881636 49.8052847,194.77263 48.9161318,194.925301 L52.4465553,186.275647 Z M55.1314729,186.688608 L57.1242729,186.688608 L53.9617318,195.358284 C53.6811435,196.097859 54.0702259,196.836183 54.8284376,196.836183 C56.6266965,196.836183 59.5273553,195.054194 60.5462024,192.621479 L59.9825318,192.621479 C59.1806729,193.468675 57.6442965,194.598686 56.3224141,194.836451 L59.22432,186.688608 L62.1910729,186.688608 L62.5589553,185.449725 L59.6794965,185.449725 L60.7843906,182.319982 L59.6358494,182.319982 L57.5794494,185.449725 L55.1314729,185.797613 L55.1314729,186.688608 Z M68.0809318,183.906753 L72.3034729,179.95234 L72.3034729,179.49558 L70.0300847,179.49558 L67.4324612,183.906753 L68.0809318,183.906753 Z M69.2718729,192.642753 L68.5361082,192.642753 C67.6045553,193.750239 66.6081553,194.621211 65.6130024,194.621211 C64.5954024,194.621211 64.0753788,194.011781 64.0753788,192.642753 C64.0753788,192.077122 64.1402259,191.512742 64.24872,190.990909 L70.2470729,189.013703 C71.4155671,186.231848 70.0088847,185.015491 68.3627671,185.015491 C65.5257082,185.015491 62.2995671,189.773301 62.2995671,193.945457 C62.2995671,195.816295 63.1874729,196.836183 64.5729553,196.836183 C66.1966259,196.836183 67.8863906,195.249412 69.2718729,192.642753 Z M67.2154729,186.623535 C68.0160847,186.623535 68.7094494,187.231714 68.3415671,188.774686 L64.6166024,189.644407 C65.26632,187.904965 66.3487671,186.623535 67.2154729,186.623535 Z" id="Fill-41" fill="#020203"></path>
                    <path d="M13.6842259,153.375803 L5.80156706,153.375803 L5.58457882,154.049055 C7.90286118,154.527088 8.11860235,154.744831 7.03615529,157.743178 L4.48093176,164.871133 C3.39723765,167.846954 2.94330824,168.087222 0.279590588,168.565256 L0.0850494118,169.238507 L12.0817553,169.238507 L14.6806259,164.588317 L13.7702729,164.588317 C12.2987435,166.218887 10.5665788,168.261166 7.90286118,168.261166 C5.88886118,168.261166 5.65067294,167.913278 6.73312,164.871133 L9.28834353,157.743178 C10.3495906,154.766105 10.8259671,154.527088 13.4896847,154.049055 L13.6842259,153.375803 Z M22.4111435,154.766105 C23.1905553,154.766105 23.8402729,154.135401 23.8402729,153.332004 C23.8402729,152.549882 23.1905553,151.897904 22.4111435,151.897904 C21.6092847,151.897904 20.9820141,152.549882 20.9820141,153.332004 C20.9820141,154.135401 21.6092847,154.766105 22.4111435,154.766105 Z M21.8050729,159.112206 C22.0432612,158.307558 21.5020376,157.852049 21.0905082,157.852049 C19.3570965,157.852049 17.3006965,159.416295 16.4776376,161.611245 L17.0400612,161.611245 C17.6037318,160.806597 18.5564847,159.916854 19.4443906,159.764183 L16.1309553,168.413837 C15.82792,169.217234 16.4339906,169.672742 16.84552,169.672742 C18.4916376,169.672742 20.4183435,168.087222 21.2414024,165.914798 L20.6789788,165.914798 C20.1153082,166.718194 19.1625553,167.609189 18.2746494,167.760608 L21.8050729,159.112206 Z M33.5847906,160.264742 C33.5847906,158.504027 32.9350729,157.852049 31.7229318,157.852049 C30.2065082,157.852049 28.7773788,159.460094 27.3482494,161.416027 L30.96472,151.87663 L30.7701788,151.636362 L26.9803671,152.071848 L26.9803671,152.527356 L27.7161318,153.092988 C28.3882965,153.613569 28.1713082,154.157926 27.5652376,155.722172 L23.6669318,165.805926 C23.3850965,166.542999 23.0384141,167.413971 23.0384141,167.651736 C23.0384141,168.695401 24.4463435,169.672742 25.7245788,169.672742 C28.6688847,169.672742 33.5847906,164.350552 33.5847906,160.264742 Z M26.7633788,167.913278 C26.1797553,167.913278 25.3342494,167.370172 25.3342494,166.892139 C25.3342494,166.74072 25.5936376,166.066217 25.91912,165.219021 L26.8930729,162.632384 C27.93312,161.393502 29.5131435,160.068273 30.4010494,160.068273 C30.94352,160.068273 31.3538024,160.416161 31.3538024,161.220809 C31.3538024,163.588451 29.1452612,167.913278 26.7633788,167.913278 Z M41.4674494,165.479312 L40.7304376,165.479312 C39.8001318,166.588049 38.8037318,167.456518 37.8073318,167.456518 C36.7897318,167.456518 36.2697082,166.84834 36.2697082,165.479312 C36.2697082,164.914932 36.3345553,164.350552 36.4430494,163.82872 L42.4414024,161.850261 C43.6111435,159.069658 42.2032141,157.852049 40.5570965,157.852049 C37.7212847,157.852049 34.4938965,162.611111 34.4938965,166.783267 C34.4938965,168.651602 35.3818024,169.672742 36.7685318,169.672742 C38.3922024,169.672742 40.08072,168.087222 41.4674494,165.479312 Z M39.4098024,159.460094 C40.2104141,159.460094 40.9037788,160.068273 40.5358965,161.611245 L36.8109318,162.479714 C37.4606494,160.742775 38.5443435,159.460094 39.4098024,159.460094 Z M52.7071906,160.502507 C53.1174729,159.08968 52.9017318,157.852049 51.8192847,157.852049 C50.5410494,157.852049 50.2155671,158.82939 48.9161318,161.63377 L48.9161318,160.024474 C48.9161318,158.873189 48.5482494,157.852049 47.5094494,157.852049 C46.2960612,157.852049 45.1924141,159.742909 44.3469082,161.611245 L44.9105788,161.611245 C45.4954494,160.764049 46.0366729,160.264742 46.4694024,160.264742 C46.9894259,160.264742 47.2712612,161.066887 46.4694024,162.850127 L44.1311671,168.064697 C43.6971906,169.043289 44.1523671,169.672742 45.10512,169.672742 C45.6899906,169.672742 45.9506259,169.521323 46.1875671,168.890619 L48.4834024,162.785055 C49.13312,161.980407 49.7179906,161.28463 50.4537553,160.502507 L52.7071906,160.502507 Z M54.2660141,159.525166 L55.8460376,159.525166 L52.6847435,168.196094 C52.4029082,168.934418 52.7919906,169.672742 53.5502024,169.672742 C55.3484612,169.672742 58.2503671,167.892004 59.2679671,165.456787 L58.7042965,165.456787 C57.9036847,166.305234 56.3660612,167.435245 55.0454259,167.674261 L57.9473318,159.525166 L60.9140847,159.525166 L61.28072,158.286284 L58.4012612,158.286284 L59.5061553,155.157792 L58.3576141,155.157792 L56.3012141,158.286284 L54.2660141,158.634172 L54.2660141,159.525166 Z M66.6730024,156.743312 L70.8955435,152.788898 L70.8955435,152.332139 L68.6221553,152.332139 L66.0232847,156.743312 L66.6730024,156.743312 Z M67.8639435,165.479312 L67.1281788,165.479312 C66.1966259,166.588049 65.2014729,167.456518 64.2050729,167.456518 C63.1874729,167.456518 62.6674494,166.84834 62.6674494,165.479312 C62.6674494,164.914932 62.7322965,164.350552 62.8407906,163.82872 L68.8391435,161.850261 C70.0088847,159.069658 68.6009553,157.852049 66.9548376,157.852049 C64.1177788,157.852049 60.8916376,162.611111 60.8916376,166.783267 C60.8916376,168.651602 61.7795435,169.672742 63.1650259,169.672742 C64.7886965,169.672742 66.4784612,168.087222 67.8639435,165.479312 Z M65.8075435,159.460094 C66.6081553,159.460094 67.30152,160.068273 66.9336376,161.611245 L63.2086729,162.479714 C63.8583906,160.742775 64.9408376,159.460094 65.8075435,159.460094 Z" id="Fill-43" fill="#020203"></path>
                    <g id="Group-47">
                        <mask id="mask-6" fill="white">
                            <use xlink:href="#path-5"></use>
                        </mask>
                        <g id="Clip-46"></g>
                        <path d="M31.6338918,28.7384492 C31.5590682,28.6633654 31.8558682,28.7384492 31.9306918,28.589533 L31.3370918,28.589533 C31.2635153,28.589533 31.2635153,28.5157006 31.2635153,28.4418682 C30.8931388,28.5157006 30.4479388,28.6633654 30.0775624,28.7384492 C29.5587859,28.8873654 29.1135859,29.2590302 28.5212329,29.4079464 C27.7069035,29.7045274 27.03848,30.375276 26.1505741,30.671857 C26.0757506,30.671857 26.0757506,30.5980246 26.0757506,30.5241922 C26.1505741,30.3001922 26.4461271,30.2251084 26.5945271,30.0036112 C26.5945271,29.9285274 26.5945271,29.854695 26.5197035,29.854695 C27.1133035,29.0362816 27.92888,28.589533 28.6696329,27.9212872 L28.6696329,27.6972872 C28.8916094,27.4007061 29.2619859,27.2517899 29.4103859,26.8801251 C29.4852094,26.6561251 29.7807624,26.3595441 30.1523859,26.2093765 C30.0775624,26.1355441 29.9291624,26.1355441 29.9291624,25.9878793 C29.6336094,25.9878793 29.3368094,26.1355441 29.0400094,25.9127955 C29.1784329,25.7738905 29.3368094,25.6975553 29.5039153,25.6474994 C29.4403153,25.6362369 29.3829506,25.6037006 29.3368094,25.5398793 C29.2619859,25.3922145 29.4789741,25.2257788 29.7071859,25.1682145 C30.0039859,25.0943821 30.3743624,25.0943821 30.5963388,24.8716335 C30.0775624,24.7978011 29.4852094,25.0192983 28.9651859,24.7227173 C29.3368094,23.7566391 29.9291624,22.9369743 30.8183153,22.4914771 C30.8931388,22.4914771 31.0402918,22.4914771 31.0402918,22.5653095 C31.0402918,22.9369743 30.8183153,23.2360581 30.4479388,23.3098905 C31.0402918,23.4575553 31.6338918,23.4575553 32.2274918,23.7566391 C32.1526682,23.9055553 32.0042682,23.8304715 31.9306918,23.8304715 C32.3010682,24.0532201 32.7462682,23.9055553 33.1153976,24.2021363 C32.8934212,24.4261363 32.6714447,24.2021363 32.4494682,24.2021363 C34.7465506,24.8716335 37.1920329,25.3922145 39.1187388,26.8801251 C37.4888329,27.6972872 35.7841035,28.068952 34.0057976,28.4418682 C33.7838212,28.4418682 33.6341741,28.4418682 33.4121976,28.3667844 C33.4121976,28.4418682 33.4121976,28.589533 33.3386212,28.589533 C33.0418212,28.589533 32.8198447,28.589533 32.5978682,28.7384492 C32.3010682,28.8873654 31.8558682,28.9624492 31.6338918,28.7384492 M30.1162212,33.9117229 C30.1099859,33.9167285 30.1037506,33.9204827 30.0975153,33.9254883 C29.8206682,34.1207061 29.5438212,34.3209296 29.2520094,34.4911196 C28.9340094,34.6750749 28.6022918,34.8152313 28.2743153,34.9729073 C28.2718212,34.9666503 28.26808,34.9603933 28.2643388,34.9553877 C28.2393976,34.9190972 28.1870212,34.8990749 28.1396329,34.9241028 C27.8590447,35.0767732 27.6196094,35.278248 27.3938918,35.4947397 C27.3589741,35.5285274 27.3240565,35.5610637 27.2903859,35.5948514 C27.2878918,35.5961028 27.2866447,35.5986056 27.2841506,35.599857 C27.2829035,35.6023598 27.2804094,35.6036112 27.2779153,35.606114 C27.2429976,35.6411531 27.20808,35.6761922 27.1731624,35.7112313 C27.1681741,35.7149855 27.1644329,35.7199911 27.1606918,35.7237453 C27.1581976,35.726248 27.1581976,35.7287508 27.1557035,35.7312536 C27.1033271,35.7838123 27.0521976,35.8363709 26.9948329,35.9051978 C26.9574212,35.9489966 26.9449506,35.975276 26.8963153,36.0090637 C26.8501741,36.0390972 26.7229741,36.0390972 26.7341976,35.9540022 C26.7354447,35.9489966 26.7341976,35.9439911 26.7354447,35.9389855 C26.6917976,35.9615106 26.6469035,35.9852872 26.6032565,36.0065609 C26.5633506,36.0253318 26.5259388,36.047857 26.4885271,36.0691307 C26.4710682,36.0641251 26.4548565,36.0616223 26.4373976,36.0628737 C26.4174447,36.0641251 26.3987388,36.0678793 26.3837741,36.0803933 C26.2927388,36.1517229 26.2029506,36.2268067 26.1156565,36.3068961 C25.9610212,36.4470525 25.8151153,36.6009743 25.6854212,36.7661587 C25.6829271,36.7674101 25.68168,36.7699128 25.6791859,36.7724156 C25.6741976,36.779924 25.6692094,36.786181 25.6642212,36.7936894 C25.6567388,36.8024492 25.6492565,36.8124603 25.6417741,36.8224715 C25.6342918,36.8324827 25.6268094,36.8424939 25.61808,36.852505 C25.6168329,36.8550078 25.6130918,36.858762 25.6118447,36.8612648 C25.5943859,36.8862927 25.5781741,36.9113207 25.5607153,36.9363486 C25.5594682,36.9376 25.5594682,36.9388514 25.5582212,36.9401028 C25.5457506,36.9538682 25.5245506,36.9638793 25.4971153,36.9688849 C25.4871388,36.9538682 25.4771624,36.9413542 25.4671859,36.925086 C25.4609506,36.9138235 25.4534682,36.9013095 25.4472329,36.8900469 C25.4247859,36.8500022 25.4035859,36.8112089 25.3836329,36.7699128 C25.3836329,36.7686615 25.3823859,36.7674101 25.3811388,36.7661587 C25.3749035,36.7536447 25.3699153,36.7423821 25.36368,36.7286168 C25.4447388,36.6422704 25.5220565,36.5521698 25.59688,36.4608179 C25.6018682,36.4545609 25.6068565,36.4483039 25.6118447,36.4432983 C25.6367859,36.4120134 25.6629741,36.3794771 25.6879153,36.3469408 C25.7303153,36.2943821 25.7714682,36.2418235 25.8126212,36.1880134 L25.8587624,36.1291978 C25.9398212,36.0228291 26.0171388,35.9189631 26.0894682,35.8150972 C26.0919624,35.8125944 26.0932094,35.8100916 26.0957035,35.8063374 C26.10568,35.7925721 26.1169035,35.7763039 26.12688,35.7600358 C26.1630447,35.7074771 26.1967153,35.6549184 26.2291388,35.599857 C26.2578212,35.5523039 26.2840094,35.502248 26.3101976,35.4521922 C26.3114447,35.448438 26.3139388,35.4446838 26.3151859,35.4409296 C26.3189271,35.4371754 26.3214212,35.4321698 26.3239153,35.4259128 C26.3289035,35.4171531 26.3313976,35.4071419 26.3351388,35.3983821 C26.3613271,35.3420693 26.3850212,35.2832536 26.4062212,35.2256894 C26.4087153,35.2194324 26.4112094,35.211924 26.4124565,35.205667 C26.4186918,35.1893989 26.42368,35.1743821 26.4299153,35.1568626 C26.4373976,35.1293318 26.44488,35.1030525 26.4523624,35.0742704 C26.4548565,35.0692648 26.4548565,35.0630078 26.4573506,35.0567508 C26.46608,35.0217117 26.4760565,34.9854212 26.4822918,34.9478793 C26.4860329,34.927857 26.4810447,34.9115888 26.4735624,34.8978235 C26.5533741,34.757667 26.6531388,34.6237676 26.7678682,34.4961251 C26.7566447,34.5023821 26.7441741,34.5073877 26.7329506,34.5148961 C26.6269506,34.5837229 26.5571153,34.6800804 26.4585976,34.7539128 C26.3775388,34.8139799 26.2291388,34.7138682 26.3251624,34.6425385 C26.3887624,34.5937341 26.4386447,34.539924 26.4922682,34.4898682 C26.4960094,34.4848626 26.4972565,34.4811084 26.5009976,34.4773542 C26.6232094,34.3559687 26.7391859,34.2007955 26.8788565,34.0994324 C26.9636565,34.0368626 27.0372329,33.9843039 27.1070682,33.9254883 C27.1182918,33.9154771 27.1282682,33.9054659 27.1394918,33.8954547 C27.1906212,33.8266279 27.2467388,33.7653095 27.3053506,33.7077453 C27.3078447,33.7052425 27.3103388,33.7027397 27.3128329,33.7002369 C28.0224094,33.0132201 29.2170918,33.0432536 30.1523859,32.6065162 C30.5215153,32.4576 30.9667153,32.6790972 31.3370918,32.6065162 C31.5590682,32.6065162 31.7822918,32.6065162 32.0042682,32.754181 C31.3383388,33.1183374 30.7235388,33.5300469 30.1162212,33.9117229 M31.4443388,34.5261587 C31.4106682,34.6074994 31.3358447,34.6788291 31.2622682,34.7439017 C31.3545506,34.7614212 31.4193976,34.8039687 31.3595388,34.8590302 C31.1874447,35.0179575 31.02408,35.1756335 30.7983624,35.2519687 C30.7821506,35.2569743 30.7372565,35.2644827 30.6836329,35.2682369 C30.5938447,35.3558346 30.5015624,35.442181 30.4080329,35.527276 C30.3194918,35.6048626 29.9117035,35.5485497 30.0364094,35.4384268 C30.2247153,35.2707397 30.3993035,35.0892872 30.5838682,34.9190972 C30.6886212,34.8227397 30.7996094,34.7313877 30.8931388,34.6225162 C30.9442682,34.5624492 30.9866682,34.5036335 31.0515153,34.4585832 C31.1126212,34.4147844 31.5041976,34.3809966 31.4443388,34.5261587 M28.0024565,23.3849743 C27.92888,23.5326391 27.8465741,23.5489073 27.78048,23.6815553 C27.7069035,23.8304715 27.63208,23.9055553 27.48368,23.9781363 C27.4101035,23.9781363 27.33528,23.9781363 27.33528,23.9055553 C27.4101035,23.6064715 27.63208,23.3098905 27.92888,23.2360581 C28.0024565,23.2360581 28.0024565,23.3098905 28.0024565,23.3849743 M21.8507153,28.292952 C21.8507153,28.292952 21.7771388,28.2178682 21.7771388,28.1427844 C22.7411153,26.8801251 23.4818682,25.6887955 24.1490447,24.3510525 C25.1130212,23.8304715 25.9123859,23.0721251 26.6693506,22.2687285 C27.92888,20.9297341 29.2619859,19.7409073 30.8183153,18.9963263 C31.4119153,18.7735777 32.1526682,18.8474101 32.7462682,19.0701587 C32.5230447,19.3679911 32.1526682,19.2941587 31.8558682,19.5169073 C31.7822918,19.5169073 31.7087153,19.5169073 31.6338918,19.4418235 C31.7087153,19.3679911 31.7087153,19.2941587 31.7087153,19.2203263 C30.9667153,20.0374883 29.9291624,20.4091531 29.3368094,21.3752313 C28.8916094,22.1198123 28.5948094,23.0858905 27.63208,23.3098905 C27.33528,23.3849743 27.7069035,23.0858905 27.5572565,23.1609743 C25.2601741,24.5738011 23.6302682,26.2844603 21.8507153,28.292952 M33.1902212,29.9285274 C33.0418212,29.9285274 32.7462682,30.0036112 32.8198447,29.854695 C32.8934212,29.4830302 33.4121976,29.4830302 33.7089976,29.334114 C33.8573976,29.2590302 34.0793741,29.110114 34.2277741,29.1839464 C34.3761741,29.4079464 34.5981506,29.334114 34.7465506,29.4830302 C34.3025976,29.9285274 33.7089976,29.7045274 33.1902212,29.9285274 M44.5870918,35.2557229 C45.0085976,34.8340022 45.4325976,34.3809966 45.8553506,33.9254883 L45.8453741,33.9254883 C46.6335153,33.0307397 47.4054447,32.1785385 48.3182918,31.3926615 C48.5963859,31.1436335 48.8657506,30.9246391 49.1238918,30.7456894 C49.1974682,30.671857 49.1974682,30.5241922 49.2722918,30.4491084 C48.9019153,30.5980246 48.6786918,30.895857 48.3095624,31.0447732 C48.2347388,31.0447732 48.1599153,30.9696894 48.2347388,30.895857 C48.4991153,30.6956335 48.7622447,30.4979128 49.0266212,30.2989408 C49.0104094,30.3001922 48.9929506,30.3001922 48.9754918,30.3001922 C48.9019153,30.3001922 48.9019153,30.2251084 48.9019153,30.151276 C47.9379388,30.0036112 47.1971859,30.671857 46.5300094,31.2675218 C46.3816094,31.3413542 46.2344565,31.192438 46.1596329,31.192438 C45.0485035,31.5653542 44.2329271,32.5314324 43.1205506,32.978181 L43.1205506,32.8292648 C42.6765976,32.978181 42.2451153,33.2484827 41.7874447,33.3498458 C41.1202682,33.498762 40.5266682,33.4236782 39.9343153,33.4236782 C39.0364329,33.5137788 38.1373035,33.7127508 37.2394212,33.9054659 C37.21448,33.9117229 37.1882918,33.9179799 37.1621035,33.9254883 C36.6807388,34.0568849 36.2255624,34.2383374 35.7816094,34.4836112 C35.7641506,34.4923709 35.7466918,34.5011307 35.73048,34.5123933 C35.6930682,34.558695 35.6581506,34.6037453 35.6232329,34.6412872 C35.4636094,34.8164827 35.3264329,34.9779128 35.11568,35.085533 C34.6592565,35.3182927 34.2876329,35.7237453 33.88608,36.0528626 C33.8573976,36.0753877 33.8137506,36.0879017 33.7663624,36.0904045 C33.3697976,36.4733318 32.9782212,36.8600134 32.5729271,37.2366838 C32.5442447,37.2629631 32.4307624,37.2779799 32.3472094,37.2629631 C32.3497035,37.2617117 32.3521976,37.2604603 32.3534447,37.2579575 C32.3671624,37.2329296 32.3821271,37.2104045 32.3958447,37.1866279 C32.4594447,37.0815106 32.5217976,36.9763933 32.5866447,36.8725274 C32.6577271,36.7561475 32.7313035,36.641019 32.8061271,36.5271419 C32.9071388,36.3744715 33.0106447,36.2205497 33.1216329,36.0741363 C33.1503153,36.0365944 33.1428329,36.0028067 33.1191388,35.9765274 C33.0954447,35.9527508 33.0567859,35.9377341 33.01688,35.9377341 C33.3860094,35.5785832 33.8249741,35.2719911 34.2601976,35.006695 L34.2601976,34.994181 C34.2103153,35.0117006 34.1392329,34.9704045 34.1766447,34.9178458 C34.2240329,34.8527732 34.2601976,34.782695 34.3038447,34.7151196 C34.3125741,34.6938458 34.3200565,34.6713207 34.3275388,34.6500469 C34.31008,34.6300246 34.2901271,34.6100022 34.2714212,34.5912313 C34.1529506,34.6688179 34.0245035,34.7439017 33.9234918,34.8352536 C33.7464094,34.9954324 33.6079859,35.3245497 33.3386212,35.3207955 C33.3211624,35.3207955 33.2687859,35.3182927 33.2263859,35.3045274 C33.1939624,35.2982704 33.1665271,35.2895106 33.1478212,35.278248 C33.1515624,35.2719911 33.1540565,35.2669855 33.1577976,35.2607285 C33.1615388,35.2532201 33.16528,35.2469631 33.1690212,35.2394547 C33.1727624,35.2331978 33.1765035,35.2281922 33.1789976,35.2219352 C33.1914682,35.1994101 33.2026918,35.1781363 33.2151624,35.1568626 C33.2263859,35.1355888 33.2388565,35.1143151 33.25008,35.0930413 C33.2600565,35.0755218 33.2687859,35.0592536 33.2787624,35.0417341 C33.2962212,35.0104492 33.31368,34.9779128 33.3311388,34.9466279 C33.3436094,34.9241028 33.3573271,34.9028291 33.3697976,34.8790525 C33.4009741,34.8239911 33.4333976,34.770181 33.4658212,34.7151196 C33.4807859,34.6900916 33.4957506,34.6625609 33.5107153,34.637533 C33.5381506,34.5924827 33.5630918,34.546181 33.5905271,34.5011307 C33.6266918,34.4398123 33.5880329,34.3897564 33.5344094,34.3684827 C33.6715859,34.189533 33.8399388,34.0393654 34.0419624,33.9254883 L34.0195153,33.9254883 C34.3038447,33.7815777 34.5869271,33.6076335 34.8712565,33.4474547 C34.9111624,33.4111642 34.9523153,33.3761251 34.9934682,33.341086 C34.5694682,33.4837453 34.1903624,33.6764603 33.8149976,33.9254883 C33.8149976,33.9254883 33.71648,33.965533 33.6890447,33.9918123 C33.6890447,33.9918123 33.6042447,34.0256 33.50448,33.9254883 C33.4945035,33.9117229 33.4870212,33.8942034 33.4870212,33.8704268 C33.5605976,33.7202592 33.7838212,33.6476782 33.9309741,33.498762 C34.0057976,33.498762 34.0793741,33.498762 34.0793741,33.5725944 C36.45128,31.713019 39.7123388,32.1597676 42.4546212,31.192438 C42.6765976,31.0447732 42.8985741,30.895857 43.1205506,30.7456894 C43.4921741,30.5980246 43.7877271,30.2251084 44.2329271,30.0036112 C44.8265271,29.5568626 45.27048,29.0362816 45.4924565,28.292952 C45.4924565,28.2178682 45.41888,28.1427844 45.41888,28.1427844 C44.4549035,29.1839464 43.3437741,30.0036112 42.1578212,30.5980246 C40.6014918,31.416438 38.8967624,31.2675218 37.2668565,31.4902704 C37.3404329,31.3413542 37.4888329,31.3413542 37.6359859,31.3413542 C37.6359859,31.1186056 37.7856329,31.0447732 37.9327859,30.895857 L38.1560094,30.895857 C38.2295859,30.895857 38.2295859,30.7456894 38.3044094,30.7456894 C38.4515624,30.7456894 38.6747859,30.671857 38.5999624,30.671857 C38.3779859,30.375276 37.9327859,30.895857 37.5624094,30.671857 C37.7108094,30.5241922 37.6359859,30.3001922 37.7856329,30.2251084 L38.0811859,30.2251084 C38.0811859,30.0774436 38.2295859,29.9285274 38.2295859,29.9285274 C39.3419624,29.2590302 40.3795153,28.7384492 41.4170682,28.1427844 C41.1950918,28.1427844 41.0454447,28.3667844 40.8234682,28.2178682 C40.9718682,28.2178682 40.8234682,27.9951196 40.9718682,27.9951196 C41.7874447,27.7723709 42.4546212,27.3256223 43.2701976,27.0290413 C42.9733976,27.0290413 42.7501741,27.2517899 42.4546212,27.0290413 C42.6017741,26.9539575 42.6765976,26.8050413 42.8985741,26.8050413 L42.8985741,26.5810413 C42.8985741,26.5072089 42.9733976,26.5072089 43.0469741,26.5072089 C42.9733976,26.5072089 42.8985741,26.4333765 42.8985741,26.4333765 C42.9733976,26.2844603 43.1953741,26.3595441 43.3437741,26.2093765 C43.2701976,26.2093765 43.1205506,26.2093765 43.1205506,26.1355441 C43.3437741,25.8389631 43.7141506,25.7638793 44.0845271,25.6887955 C44.0109506,25.5398793 43.7877271,25.6887955 43.7877271,25.5398793 C43.7877271,25.4672983 43.8625506,25.4672983 43.9361271,25.4672983 L43.7877271,25.4672983 C43.6393271,25.3922145 43.7141506,25.2432983 43.7141506,25.1682145 C44.1581035,24.6476335 44.1581035,23.9781363 44.3813271,23.3849743 C44.3065035,23.3849743 44.2329271,23.3849743 44.2329271,23.3098905 C43.4921741,24.1270525 42.3062212,24.4261363 41.1950918,24.7227173 L40.8234682,24.7227173 C40.4530918,24.8716335 39.9343153,24.8716335 39.5639388,24.6476335 C39.2671388,24.4987173 39.1187388,24.2772201 38.8231859,24.0532201 C38.2295859,23.6815553 37.6359859,23.3849743 36.9700565,23.1609743 C35.1169271,22.5653095 33.1902212,22.2687285 31.2635153,22.3438123 C32.0778447,21.8970637 32.9782212,21.8582704 33.8573976,21.5992313 C35.1169271,21.2275665 36.30288,20.7820693 37.6359859,20.8559017 C37.4152565,20.7820693 37.1184565,20.8559017 36.8952329,20.8559017 C35.8589271,20.7820693 34.8201271,21.0786503 33.7089976,21.3026503 C32.9682447,21.4503151 32.3010682,21.7481475 31.5590682,21.8970637 C31.1151153,22.0447285 30.8931388,22.4914771 30.3743624,22.4163933 L30.3743624,22.1948961 C31.1151153,21.3026503 32.0042682,20.4091531 33.1902212,20.3353207 C34.5245741,20.1113207 35.7841035,20.3353207 37.1184565,20.4829855 C38.0811859,20.5580693 38.9703388,20.7820693 39.9343153,21.0035665 C40.3046918,21.0035665 40.3795153,21.5992313 40.6763153,21.6730637 C41.1202682,21.8232313 41.5642212,21.6730637 42.0094212,21.9708961 C42.0094212,21.8232313 41.9358447,21.6730637 42.0094212,21.5241475 C42.3062212,21.2275665 42.6765976,21.5992313 42.9733976,21.4503151 C43.5657506,21.0786503 42.4546212,20.4091531 42.1578212,19.8885721 C42.1578212,19.8147397 42.2326447,19.7409073 42.2326447,19.7409073 C42.8249976,20.2614883 43.2701976,20.8559017 44.0109506,21.2275665 C44.3813271,21.3752313 45.27048,21.5992313 45.12208,21.1524827 C44.7517035,20.3353207 44.0109506,19.6658235 43.4173506,18.9212425 L43.4173506,18.6246615 C43.2701976,18.6246615 43.2701976,18.5495777 43.1953741,18.4757453 L43.1953741,18.1791642 C42.8985741,18.0289966 42.9733976,17.7324156 42.8249976,17.5084156 C42.6017741,17.1367508 42.7501741,16.6161698 42.6017741,16.1706726 C42.4546212,15.7251754 42.3797976,15.3522592 42.3062212,14.9055106 C42.0829976,13.6428514 41.7874447,12.5266056 41.6390447,11.3365274 C41.4906447,9.92370056 42.4546212,8.80745475 43.1205506,7.54354413 C43.6393271,6.65129832 44.2329271,5.75905251 45.1969035,5.16338771 C45.41888,4.2711419 46.0112329,3.52781229 46.6048329,2.78448268 C47.1959388,2.05867263 48.1798682,1.61567821 48.8919388,1.29657207 C49.9269976,0.832303911 50.8610447,0.541979888 50.8610447,0.541979888 L-0.000249411765,0.541979888 L-0.000249411765,39.8971531 L36.0185506,39.8971531 C37.4302212,38.8785162 38.8393976,38.3942257 40.8085035,37.4193877 C41.7388094,36.9601251 43.8662918,35.9790302 44.5870918,35.2557229" id="Fill-45" fill="#293172" mask="url(#mask-6)"></path>
                    </g>
                    <g id="Group-50" transform="translate(59.858824, 0.000000)">
                        <mask id="mask-8" fill="white">
                            <use xlink:href="#path-7"></use>
                        </mask>
                        <g id="Clip-49"></g>
                        <path d="M47.9924353,0.541729609 L5.80443529,0.541729609 C5.80443529,0.541729609 5.88424706,0.555494972 6.20474118,0.726936313 C6.54768235,0.912143017 6.99163529,1.14990838 7.26972941,1.29757318 C7.81344706,1.58164022 8.3422,1.93953966 8.68264706,2.4864 C8.83104706,2.7091486 9.05302353,3.15589721 8.90462353,3.45247821 C8.75622353,3.82539441 8.68264706,4.42105922 8.31227059,4.56872402 C7.86707059,4.79147263 7.27471765,4.79147263 6.75594118,4.71764022 C6.45914118,4.71764022 6.16234118,4.64255642 5.86678824,4.56872402 C6.97791765,5.01422123 8.01547059,5.53480223 8.75622353,6.57596425 C8.83104706,6.72488045 9.1266,6.79996425 9.4234,6.79996425 C9.49822353,6.79996425 9.49822353,6.94888045 9.49822353,7.02396425 C9.34982353,7.17162905 9.20142353,7.24546145 9.275,7.46946145 L9.49822353,7.46946145 C9.8686,7.32054525 9.79377647,6.57596425 10.3125529,6.79996425 C10.6841765,7.02396425 10.8313294,7.54454525 10.6093529,7.91621006 C10.3125529,8.21279106 10.0157529,8.43679106 9.7202,8.65828827 C9.64537647,8.80720447 9.64537647,9.03120447 9.7202,9.17886927 C9.94217647,9.47795307 10.0157529,9.77453408 10.0905765,10.0723665 C10.3125529,10.5929475 10.3873765,11.1873609 10.6093529,11.7079419 C10.9061529,12.8229363 11.2029529,13.9391821 11.1281294,15.0554279 C11.1281294,15.6498413 10.8313294,16.1704223 11.0533059,16.7660872 C11.2029529,17.3592492 11.5720824,17.8072492 11.8688824,18.3265788 C12.1656824,18.7733274 12.4624824,19.0711598 12.6844588,19.516657 C13.1284118,20.261238 13.9439882,21.0045676 13.5736118,21.8968134 C13.3516353,22.416143 12.5360588,22.343562 12.0172824,22.640143 C11.5720824,23.0118078 11.9437059,23.6074726 12.1656824,23.9791374 C12.5360588,24.6486346 11.7204824,25.0941318 11.2029529,25.3181318 C11.3501059,25.5408804 11.6469059,25.467048 11.7204824,25.6147128 C11.7953059,25.9876291 12.1656824,26.2103777 11.9437059,26.5820425 C11.6469059,27.0287911 10.7577529,27.2515397 11.2029529,27.9210369 C11.4985059,28.4416179 11.3064588,29.0197631 11.1281294,29.5578637 C10.9061529,30.2261095 10.3125529,30.5239419 9.79377647,30.6716067 C9.34982353,30.8205229 8.83104706,30.8205229 8.38584706,30.7466905 C8.23744706,30.6716067 8.08904706,30.5990257 7.94189412,30.5990257 C6.68111765,30.4488581 5.42158824,30.0784447 4.16205882,30.0784447 C3.79168235,30.1510257 3.42005882,30.2261095 3.12450588,30.3750257 C2.78904706,30.6215508 2.491,30.8893497 2.22662353,31.170914 C2.22412941,31.1746682 2.22038824,31.1771709 2.21789412,31.1796737 C2.16302353,31.2397408 2.1094,31.2998078 2.05702353,31.3611263 C2.0246,31.3986682 1.99217647,31.4362101 1.961,31.4750034 C1.9398,31.5000313 1.9186,31.5263106 1.89864706,31.5513385 C1.68165882,31.8228916 1.48711765,32.1107128 1.31502353,32.4085453 C1.3038,32.4273162 1.29257647,32.4460872 1.28135294,32.4661095 C1.26264706,32.4998972 1.24394118,32.5336849 1.22523529,32.5699754 C0.980811765,33.0217296 0.797494118,33.4822436 0.662811765,33.9339978 C0.160247059,35.6371486 0.379729412,37.0987799 0.733894118,37.4529251 C0.832411765,37.5517855 3.17937647,38.2788469 4.81427059,39.0084112 C5.58245882,39.3525453 6.11869412,39.6165899 6.56389412,39.8969028 L47.9924353,39.8969028 L47.9924353,0.541729609 Z" id="Fill-48" fill="#E00914" mask="url(#mask-8)"></path>
                    </g>
                    <path d="M68.1724659,14.8997542 C68.4692659,14.9735866 68.9132188,14.9735866 68.9132188,15.1225028 C68.7660659,15.7169162 67.8756659,15.8658324 67.4317129,16.4614972 L67.2084894,16.4614972 C66.9865129,16.609162 67.0600894,16.9820782 66.8381129,16.9820782 C66.6148894,16.9069944 66.3929129,16.9820782 66.1721835,17.0559106 C66.4677365,17.353743 66.8381129,17.577743 67.2833129,17.5014078 C67.3568894,17.5014078 67.5052894,17.650324 67.5052894,17.7992402 C67.5052894,17.7992402 67.5788659,17.7992402 67.6536894,17.7254078 C67.7285129,17.7254078 67.8020894,17.7254078 67.8020894,17.7992402 L67.8020894,18.098324 C67.5788659,18.394905 67.2084894,18.2459888 66.9129365,18.3198212 C67.5052894,18.4699888 68.0976424,18.4699888 68.6164188,18.3198212 C69.0616188,18.170905 68.6164188,17.4288268 68.9132188,17.0559106 C68.7660659,17.0559106 68.9132188,16.833162 68.7660659,16.833162 C68.9132188,16.6842458 69.0616188,16.4614972 69.2100188,16.3864134 C69.3584188,16.3864134 69.5803953,16.312581 69.6539718,16.1636648 C69.6539718,16.016 69.3584188,15.9409162 69.4319953,15.792 C69.8771953,15.495419 70.2475718,15.047419 70.0991718,14.6019218 C70.0255953,14.3791732 69.4319953,14.3791732 69.0616188,14.230257 C68.6912424,14.0813408 68.2460424,14.230257 67.8020894,14.3040894 C67.4317129,14.3040894 67.0600894,14.526838 66.69096,14.6019218 C66.1721835,14.750838 65.7269835,15.047419 65.2817835,15.3452514 C65.80056,15.1225028 66.3193365,15.047419 66.9129365,14.8997542 C67.3568894,14.8997542 67.7347482,14.7896313 68.1724659,14.8997542" id="Fill-51" fill="#9D9C9B"></path>
                </g>
            </g>
        </g>
    </g>
</svg>