<?xml version="1.0" encoding="UTF-8"?>
<svg width="75px" height="39px" viewBox="0 0 75 39" version="1.1" xmlns="http://www.w3.org/2000/svg" xmlns:xlink="http://www.w3.org/1999/xlink">
    <!-- Generator: sketchtool 52.6 (67491) - http://www.bohemiancoding.com/sketch -->
    <title>28CA947A-7E81-431C-A645-2C075363E10A</title>
    <desc>Created with sketchtool.</desc>
    <g id="Symbols" stroke="none" stroke-width="1" fill="none" fill-rule="evenodd">
        <g id="Mecene-Ricard-blanc" fill="#FFFFFF">
            <g id="Mecene">
                <path d="M31.15,8.79 C32.10467,9.15140297 32.9856668,9.68338952 33.75,10.36 C33.783203,9.87953036 33.8911681,9.40718304 34.07,8.96 C33.5580771,8.17085455 32.8743675,7.50765622 32.07,7.02 C31.0325109,6.34733008 29.8744975,5.88208715 28.66,5.65 C28.2897692,6.4606918 28.0339898,7.31889913 27.9,8.2 C29.0004561,8.15699014 30.0967607,8.35849161 31.11,8.79 L31.15,8.79 Z" id="Shape"></path>
                <path d="M32.28,5.62 C33.1348414,6.43851391 33.8151668,7.42158423 34.28,8.51 C34.5504069,8.06652414 34.9075367,7.68218453 35.33,7.38 C34.9790214,6.32126487 34.4915849,5.31277541 33.88,4.38 C33.2378946,3.48157579 32.4700517,2.68005556 31.6,2 C30.8907563,2.53547587 30.2640602,3.17228002 29.74,3.89 C30.674205,4.31460993 31.5349514,4.88506538 32.29,5.58 L32.28,5.62 Z" id="Shape"></path>
                <path d="M34.91,3.83 C35.3155578,4.90384129 35.5941172,6.02143489 35.74,7.16 C36.2242366,6.92593201 36.7451972,6.77708613 37.28,6.72 C37.27988,5.59141949 37.1659706,4.46572658 36.94,3.36 C36.7084751,2.26119255 36.3942471,1.18145176 36,0.13 C35.1357818,0.26759451 34.2945765,0.52332092 33.5,0.89 C33.5,0.89 34.41,2.66 34.87,3.83 L34.91,3.83 Z" id="Shape"></path>
                <path d="M43.78,8.79 C42.8290683,9.15905091 41.949361,9.69025874 41.18,10.36 C41.1681949,9.8797043 41.0699594,9.40546374 40.89,8.96 C41.4019229,8.17085455 42.0856325,7.50765622 42.89,7.02 C43.9180799,6.35021918 45.0657142,5.88505383 46.27,5.65 C46.640917,6.4581818 46.8870519,7.31796827 47,8.2 C45.8995439,8.15699014 44.8032393,8.35849161 43.79,8.79 L43.78,8.79 Z" id="Shape"></path>
                <path d="M42.68,5.62 C41.8251586,6.43851391 41.1448332,7.42158423 40.68,8.51 C40.4060768,8.05956914 40.0375816,7.67401394 39.6,7.38 C39.9627998,6.32609674 40.4495454,5.31903676 41.05,4.38 C41.7091918,3.48289273 42.4900128,2.6818781 43.37,2 C44.0735119,2.54197848 44.6993464,3.17790704 45.23,3.89 C44.295795,4.31460993 43.4350486,4.88506538 42.68,5.58 L42.68,5.62 Z" id="Shape"></path>
                <path d="M40.06,3.83 C39.6382378,4.90065546 39.3494139,6.01900834 39.2,7.16 C38.7229971,6.92548481 38.2085173,6.77655644 37.68,6.72 C37.6810507,5.59575344 37.7881923,4.47411455 38,3.37 C38.2338712,2.26958581 38.5446336,1.18692946 38.93,0.13 C39.7942182,0.26759451 40.6354235,0.52332092 41.43,0.89 C41.43,0.89 40.52,2.66 40.06,3.83 Z" id="Shape"></path>
                <path d="M32.45,14.62 C33.6171082,14.084976 34.8987308,13.847893 36.18,13.93 C35.5341433,13.6723095 34.9682228,13.2478691 34.54,12.7 C33.5639871,12.5749818 32.5760129,12.5749818 31.6,12.7 C30.6037671,12.8513346 29.6500942,13.2089619 28.8,13.75 C29.1927207,14.5662277 29.6976055,15.3235549 30.3,16 C30.9520137,15.4359843 31.6789001,14.9648542 32.46,14.6 L32.45,14.62 Z" id="Shape"></path>
                <path d="M31,11.83 C32.0849958,11.7573086 33.1739761,11.8896146 34.21,12.22 C33.9616647,11.7915884 33.8113928,11.3134507 33.77,10.82 C32.8695084,10.3270783 31.8925631,9.98903495 30.88,9.82 C29.8837481,9.64689678 28.8625131,9.68093795 27.88,9.92 C27.9010765,10.8098376 28.0492417,11.6920937 28.32,12.54 C29.1624008,12.1414424 30.0707662,11.9007934 31,11.83 Z" id="Shape"></path>
                <path d="M37.48,16.07 C39.104295,16.1078768 40.5875418,17.0016281 41.38,18.42 C42.2178989,18.0553486 43.0018618,17.5775687 43.71,17 C42.1614563,15.1639629 39.8818784,14.1044838 37.48,14.1044838 C35.0781216,14.1044838 32.7985437,15.1639629 31.25,17 C31.9523929,17.593558 32.7372469,18.0819864 33.58,18.45 C34.3648238,17.0242633 35.8527609,16.1276858 37.48,16.1 L37.48,16.07 Z" id="Shape"></path>
                <path d="M42.48,14.62 C41.3132739,14.0837692 40.0313441,13.8466293 38.75,13.93 C39.4051296,13.6739629 39.9811611,13.2497002 40.42,12.7 C41.3960129,12.5749818 42.3839871,12.5749818 43.36,12.7 C44.3562329,12.8513346 45.3099058,13.2089619 46.16,13.75 C45.7703697,14.5656334 45.2688708,15.3229303 44.67,16 C44.0075917,15.440132 43.2746885,14.9694602 42.49,14.6 L42.48,14.62 Z" id="Shape"></path>
                <path d="M43.93,11.83 C42.8516005,11.7581602 41.7693299,11.8904755 40.74,12.22 C40.9776821,11.7869697 41.1272271,11.3111446 41.18,10.82 C42.0804916,10.3270783 43.0574369,9.98903495 44.07,9.82 C45.0662519,9.64689678 46.0874869,9.68093795 47.07,9.92 C47.0369386,10.8086543 46.8890444,11.689297 46.63,12.54 C45.7643346,12.1406578 44.8316527,11.9066395 43.88,11.85 L43.93,11.83 Z" id="Shape"></path>
                <path d="M2.22,25 L2.22,21.81 L3.6,21.81 C4.05809695,21.767106 4.51544002,21.8993067 4.88,22.18 C5.25999721,22.4836175 5.48125078,22.9436036 5.48125078,23.43 C5.48125078,23.9163964 5.25999721,24.3763825 4.88,24.68 C4.50638444,24.9386423 4.0513748,25.0523947 3.6,25 L2.22,25 Z M2.22,25.71 L3.67,25.71 C4.341678,25.7731691 5.00908198,25.5519102 5.51,25.1 C6.01533892,24.6436554 6.29360755,23.9876103 6.27047435,23.3071085 C6.24734114,22.6266067 5.92516276,21.9909734 5.39,21.57 C4.86007648,21.2233943 4.23184425,21.0584395 3.6,21.1 L0.46,21.1 L0.46,21.81 L1.46,21.81 L1.46,28 L0.46,28 L0.46,28.71 L3.18,28.71 L3.18,28 L2.18,28 L2.18,25.7 L2.22,25.71 Z" id="Shape"></path>
                <path d="M7.05,25.61 C7.2163467,24.4984432 8.17106508,23.6759687 9.295,23.6759687 C10.4189349,23.6759687 11.3736533,24.4984432 11.54,25.61 L7.05,25.61 Z M11.22,27.18 C10.8105647,27.8908775 10.0396133,28.3149007 9.22,28.28 C8.06978841,28.2469463 7.13171705,27.3477812 7.05,26.2 L12.2,26.2 L12.2,26 C12.2274536,25.2067039 11.9285353,24.4368283 11.3729523,23.8699068 C10.8173692,23.3029853 10.0536888,22.9885765 9.26,23 C7.81981417,23.0445941 6.62580351,24.12969 6.44407804,25.5590604 C6.26235257,26.9884308 7.14685559,28.3377821 8.53006567,28.7413335 C9.91327575,29.1448849 11.3846015,28.4828463 12,27.18 L11.22,27.18 Z" id="Shape"></path>
                <path d="M14.24,24.26 C14.533567,23.5299405 15.2651811,23.0731869 16.05,23.13 L16.05,23.79 C15.5341131,23.7839352 15.0404235,23.9995272 14.6942342,24.3820569 C14.3480448,24.7645866 14.1826396,25.2772761 14.24,25.79 L14.24,28.05 L15.24,28.05 L15.24,28.71 L12.64,28.71 L12.64,28.05 L13.64,28.05 L13.64,23.79 L12.64,23.79 L12.64,23.13 L14.28,23.13 L14.28,24.26 L14.24,24.26 Z" id="Shape"></path>
                <path d="M18.75,24.11 C19.1031178,23.3969903 19.8452908,22.9611109 20.64,23 C21.4296168,23.0014567 22.1627795,23.4096091 22.58,24.08 C22.8023374,24.5374803 22.912055,25.0414955 22.9,25.55 L22.9,28.05 L23.83,28.05 L23.83,28.71 L21.23,28.71 L21.23,28.05 L22.23,28.05 L22.23,25.83 C22.2639756,25.3413021 22.1709631,24.852125 21.96,24.41 C21.6223394,23.9412111 21.0663654,23.6802437 20.49,23.72 C19.9868794,23.7235413 19.5082048,23.9374944 19.17,24.31 C18.8636781,24.7272434 18.7310511,25.2469978 18.8,25.76 L18.8,28.09 L19.73,28.09 L19.73,28.75 L17.13,28.75 L17.13,28.09 L18.13,28.09 L18.13,23.79 L17.13,23.79 L17.13,23.13 L18.8,23.13 L18.8,24.13 L18.75,24.11 Z" id="Shape"></path>
                <path d="M27,28.21 C26.0870129,28.2303053 25.2531055,27.6943432 24.8923676,26.8553998 C24.5316298,26.0164565 24.716294,25.042518 25.3590912,24.3938505 C26.0018883,23.745183 26.9741079,23.5516727 27.8162959,23.904769 C28.6584839,24.2578654 29.2020048,25.0868661 29.19,26 C29.1690154,27.2040176 28.2037771,28.1780708 27,28.21 Z M27,28.9 C28.6123986,28.8613876 29.8904032,27.5269163 29.8593104,25.9143552 C29.8282176,24.301794 28.4997206,23.0175802 26.887032,23.0411527 C25.2743434,23.0647252 23.9839483,24.387219 24,26 C24.0051881,26.7867703 24.3255131,27.5386339 24.8893225,28.0874084 C25.4531319,28.6361828 26.2133768,28.936074 27,28.92 L27,28.9 Z" id="Shape"></path>
                <path d="M33.36,28.23 C32.4373608,28.2339214 31.6041366,27.6790056 31.2520911,26.8261619 C30.9000456,25.9733181 31.0992252,24.9922362 31.75598,24.3441995 C32.4127348,23.6961627 33.3963906,23.5101105 34.244454,23.8735206 C35.0925174,24.2369307 35.6362498,25.0774956 35.62,26 C35.6253351,26.602847 35.389586,27.1828383 34.9651742,27.611006 C34.5407623,28.0391737 33.9628706,28.2800236 33.36,28.28 L33.36,28.23 Z M35.59,28.74 L37.23,28.74 L37.23,28.08 L36.3,28.08 L36.3,21.08 L34.64,21.08 L34.64,21.74 L35.64,21.74 L35.64,24.41 C35.1832785,23.5219393 34.2582821,22.9739373 33.26,23 C31.6462553,23.0592101 30.3689141,24.3851698 30.37,26 C30.396706,26.5722373 30.5650763,27.1288903 30.86,27.62 C31.4190681,28.4157278 32.3181703,28.904129 33.29,28.94 C34.2391776,28.9491299 35.1190561,28.4441562 35.59,27.62 L35.59,28.8 L35.59,28.74 Z" id="Shape"></path>
                <path d="M47.22,28.75 L45.72,28.75 L43.37,25.46 L43.66,25.46 C44.2164754,25.516237 44.7775912,25.4157903 45.28,25.17 C45.814318,24.8405272 46.1397748,24.2577324 46.14,23.63 C46.1637482,23.1132254 45.9589384,22.6121728 45.58,22.26 C45.1553671,21.9106091 44.6056103,21.7514689 44.06,21.82 L42.53,21.82 L42.53,28 L43.46,28 L43.46,28.71 L40.79,28.71 L40.79,28 L41.79,28 L41.79,21.81 L40.79,21.81 L40.79,21.1 L44.1,21.1 C44.8134593,21.0274583 45.5279482,21.2275152 46.1,21.66 C46.6593739,22.1477264 46.9742346,22.8579936 46.96,23.6 C46.9821637,24.2378187 46.7406031,24.8566 46.2921721,25.3107074 C45.843741,25.7648148 45.228047,26.0141394 44.59,26 L46.21,28 L47.21,28 L47.21,28.71 L47.22,28.75 Z" id="Shape"></path>
                <path d="M49.45,28.08 L50.45,28.08 L50.45,28.74 L47.78,28.74 L47.78,28.08 L48.78,28.08 L48.78,23.79 L47.78,23.79 L47.78,23.13 L49.42,23.13 L49.42,28.13 L49.45,28.08 Z M48.76,21.08 L49.45,21.08 L49.45,22.18 L48.76,22.18 L48.76,21.1 L48.76,21.08 Z" id="Shape"></path>
                <path d="M55.85,24.82 L55.19,24.82 C54.7755364,24.1467216 54.0406188,23.7375922 53.25,23.74 C52.4532977,23.7525043 51.7237854,24.1890943 51.3362633,24.8853109 C50.9487412,25.5815274 50.9620831,26.4315986 51.3712633,27.1153109 C51.7804435,27.7990232 52.5232977,28.2125043 53.32,28.2 C54.1335988,28.1976124 54.8747687,27.7319559 55.23,27 L56,27 C55.4282528,28.2326432 54.0994082,28.927092 52.7609907,28.6926932 C51.4225732,28.4582943 50.408818,27.3535828 50.29,26 C50.2878081,25.2255224 50.5852186,24.4802046 51.12,23.92 C51.6632156,23.3369133 52.4230952,23.0040136 53.22,23 C53.9838277,22.9839974 54.7157537,23.3060449 55.22,23.88 L55.22,23.1 L55.88,23.1 L55.88,24.79 L55.85,24.82 Z" id="Shape"></path>
                <path d="M59.33,23.72 C60.5489445,23.769228 61.5043629,24.7848294 61.4791303,26.0045066 C61.4538977,27.2241837 60.4572933,28.1994018 59.2373558,28.1981744 C58.0174182,28.1969469 57.0227783,27.2197255 57,26 C57.0026463,25.3979568 57.244348,24.8216235 57.6719323,24.3977901 C58.0995165,23.9739566 58.6779568,23.737342 59.28,23.74 L59.33,23.72 Z M61.56,28.72 L63.2,28.72 L63.2,28.06 L62.27,28.06 L62.27,23.79 L63.2,23.79 L63.2,23.13 L61.56,23.13 L61.56,24.36 C61.106123,23.509195 60.2141677,22.9840611 59.25,23 C58.2579771,22.9783225 57.3275609,23.479608 56.8,24.32 C56.4775402,24.819366 56.316909,25.4060189 56.34,26 C56.3295179,26.5708682 56.4821613,27.1328732 56.78,27.62 C57.3301511,28.4487118 58.2654808,28.9390056 59.26,28.92 C60.2066591,28.9396663 61.0886005,28.4411776 61.56,27.62 L61.56,28.77 L61.56,28.72 Z" id="Shape"></path>
                <path d="M65.6,24.26 C65.8835383,23.530922 66.6098511,23.0724117 67.39,23.13 L67.39,23.79 C66.8765328,23.7864526 66.3862677,24.0035835 66.0438263,24.3861996 C65.701385,24.7688156 65.5397471,25.2800679 65.6,25.79 L65.6,28.05 L66.53,28.05 L66.53,28.71 L63.93,28.71 L63.93,28.05 L64.93,28.05 L64.93,23.79 L63.93,23.79 L63.93,23.13 L65.6,23.13 L65.6,24.26 Z" id="Shape"></path>
                <path d="M70.58,28.23 C69.6573608,28.2339214 68.8241366,27.6790056 68.4720911,26.8261619 C68.1200456,25.9733181 68.3192252,24.9922362 68.97598,24.3441995 C69.6327348,23.6961627 70.6163906,23.5101105 71.464454,23.8735206 C72.3125174,24.2369307 72.8562498,25.0774956 72.84,26 C72.8453351,26.602847 72.609586,27.1828383 72.1851742,27.611006 C71.7607623,28.0391737 71.1828706,28.2800236 70.58,28.28 L70.58,28.23 Z M72.81,28.74 L74.45,28.74 L74.45,28.08 L73.52,28.08 L73.52,21.08 L71.86,21.08 L71.86,21.74 L72.86,21.74 L72.86,24.41 C72.4032785,23.5219393 71.4782821,22.9739373 70.48,23 C68.8662553,23.0592101 67.5889141,24.3851698 67.59,26 C67.616706,26.5722373 67.7850763,27.1288903 68.08,27.62 C68.6390681,28.4157278 69.5381703,28.904129 70.51,28.94 C71.4591776,28.9491299 72.3390561,28.4441562 72.81,27.62 L72.81,28.8 L72.81,28.74 Z" id="Shape"></path>
                <polygon id="Shape" fill-rule="nonzero" points="26.7 37.93 26.7 33.28 25 37 24.44 37 22.74 33.31 22.74 37.96 22.09 37.96 22.09 31.81 22.74 31.81 24.74 36.15 26.68 31.81 27.33 31.81 27.33 37.93"></polygon>
                <path d="M29.4,36 C29.4,36.93 29.84,37.46 30.65,37.46 C31.0671512,37.4796958 31.4710526,37.3107916 31.75,37 L32.17,37.37 C31.7788834,37.8108521 31.2085762,38.0500131 30.62,38.02 C29.5,38.02 28.77,37.35 28.77,35.85 C28.77,34.35 29.43,33.68 30.51,33.68 C31.59,33.68 32.25,34.47 32.25,35.68 L32.25,36 L29.4,36 Z M31.5,34.83 C31.3271878,34.4315442 30.9343168,34.173705 30.5,34.173705 C30.0656832,34.173705 29.6728122,34.4315442 29.5,34.83 C29.409968,35.0521976 29.3657503,35.2902929 29.37,35.53 L31.6,35.53 C31.6162619,35.2856866 31.5822269,35.0406344 31.5,34.81 L31.5,34.83 Z M30.68,32.83 L30.11,32.83 L30.87,31.52 L31.61,31.52 L30.68,32.83 Z" id="Shape" fill-rule="nonzero"></path>
                <path d="M35.2,38 C34.13,38 33.33,37.28 33.33,35.83 C33.33,34.38 34.14,33.66 35.2,33.66 C35.7374852,33.6352964 36.2542845,33.8695291 36.59,34.29 L36.17,34.69 C35.9374831,34.3744429 35.5613323,34.197652 35.17,34.22 C34.7760509,34.1961108 34.3977711,34.3776851 34.17,34.7 C33.8033787,35.4122577 33.8033787,36.2577423 34.17,36.97 C34.3977711,37.2923149 34.7760509,37.4738892 35.17,37.45 C35.5628169,37.4682177 35.9385119,37.2878841 36.17,36.97 L36.59,37.37 C36.2542845,37.7904709 35.7374852,38.0247036 35.2,38 Z" id="Shape" fill-rule="nonzero"></path>
                <path d="M38,36 C38,36.93 38.44,37.46 39.25,37.46 C39.6774282,37.488998 40.094348,37.3192784 40.38,37 L40.8,37.37 C40.4088834,37.8108521 39.8385762,38.0500131 39.25,38.02 C38.13,38.02 37.4,37.35 37.4,35.85 C37.4,34.35 38.06,33.68 39.14,33.68 C40.22,33.68 40.88,34.47 40.88,35.68 L40.88,36 L38,36 Z M40.1,34.83 C39.9271878,34.4315442 39.5343168,34.173705 39.1,34.173705 C38.6656832,34.173705 38.2728122,34.4315442 38.1,34.83 C38.009968,35.0521976 37.9657503,35.2902929 37.97,35.53 L40.2,35.53 C40.225911,35.2877372 40.2020913,35.0427348 40.13,34.81 L40.1,34.83 Z M39.28,32.83 L38.71,32.83 L39.47,31.52 L40.21,31.52 L39.28,32.83 Z" id="Shape" fill-rule="nonzero"></path>
                <path d="M44.9,37.93 L44.9,35.33 C44.9376282,35.0430893 44.8491296,34.7539458 44.6573608,34.5372471 C44.465592,34.3205483 44.1893572,34.1975431 43.9,34.2 C43.6106428,34.1975431 43.334408,34.3205483 43.1426392,34.5372471 C42.9508704,34.7539458 42.8623718,35.0430893 42.9,35.33 L42.9,37.93 L42.28,37.93 L42.28,33.7 L42.9,33.7 L42.9,34.16 C43.1800573,33.8447867 43.5784669,33.6600695 44,33.65 C44.3992404,33.6320486 44.7887714,33.7763194 45.08,34.05 C45.3859704,34.3640255 45.5456704,34.7923119 45.52,35.23 L45.52,37.94 L44.9,37.93 Z" id="Shape" fill-rule="nonzero"></path>
                <path d="M49.42,37.93 L49.42,37.53 C49.1074515,37.866243 48.657356,38.0396404 48.2,38 C47.7592145,38.0460555 47.3204505,37.8961445 47,37.59 C46.7854838,37.3558984 46.6706886,37.0473863 46.68,36.73 C46.68,35.99 47.2,35.51 48.14,35.51 L49.41,35.51 L49.41,35.11 C49.41,34.49 49.1,34.18 48.33,34.18 C47.9143956,34.1271384 47.5044356,34.3127807 47.27,34.66 L46.85,34.27 C47.2013356,33.8126092 47.7671071,33.5733904 48.34,33.64 C49.47,33.64 50.03,34.13 50.03,35.05 L50.03,37.92 L49.42,37.93 Z M49.42,35.93 L48.23,35.93 C47.59,35.93 47.29,36.19 47.29,36.68 C47.29,37.17 47.59,37.4 48.29,37.4 C48.6286026,37.4410351 48.9690417,37.3396277 49.23,37.12 C49.3932913,36.9137593 49.4687407,36.6514827 49.44,36.39 L49.42,35.93 Z" id="Shape" fill-rule="nonzero"></path>
                <path d="M52.72,37.93 C52.4170394,37.9570754 52.1182252,37.8447908 51.9080658,37.6249018 C51.6979063,37.4050127 51.5992507,37.1014261 51.64,36.8 L51.64,34.2 L51.11,34.2 L51.11,33.73 L51.64,33.73 L51.64,32.41 L52.26,32.41 L52.26,33.73 L53.16,33.73 L53.16,34.2 L52.26,34.2 L52.26,36.78 C52.26,37.17 52.44,37.4 52.84,37.4 L53.17,37.4 L53.17,37.93 L52.72,37.93 Z" id="Shape" fill-rule="nonzero"></path>
            </g>
        </g>
    </g>
</svg>