<?xml version="1.0" encoding="UTF-8"?>
<svg width="50px" height="50px" viewBox="0 0 50 50" version="1.1" xmlns="http://www.w3.org/2000/svg" xmlns:xlink="http://www.w3.org/1999/xlink">
    <!-- Generator: sketchtool 52.6 (67491) - http://www.bohemiancoding.com/sketch -->
    <title>1131FBEC-E70A-4ACF-A8E7-C9E9660BC308</title>
    <desc>Created with sketchtool.</desc>
    <g id="Symbols" stroke="none" stroke-width="1" fill="none" fill-rule="evenodd">
        <g id="RS-Pinterest-blanc" fill="#FFFFFF">
            <path d="M17.5706432,48.8775696 C17.3128456,48.8392382 15.8915235,48.3285006 15.882307,48.291224 C15.8817622,48.2890207 15.8812193,48.2868206 15.8806783,48.2846235 C6.58398754,44.6408934 0,35.5902508 0,25 C0,11.1911765 11.1941176,0 25,0 C38.8058824,0 50,11.1911765 50,25 C50,38.8088235 38.8058824,50 25,50 C22.4130208,50 19.9177463,49.6070536 17.5706432,48.8775696 Z M17.5706432,48.8775696 C17.5928978,48.8808786 17.6064817,48.8806671 17.6097378,48.8763267 C17.6887175,48.7710457 17.7582521,48.6671461 17.8167647,48.5797059 C18.8638235,47.0355882 19.6844118,45.3120588 20.3020588,43.5532353 C20.7020588,42.4120588 21.0167647,41.2414706 21.3197059,40.0708824 L22.2167647,36.6885294 C24.2844118,39.0591176 27.7226471,39.9502941 30.7344118,39.0297059 C31.3579412,38.8414706 31.9755882,38.6179412 32.5726471,38.3591176 C33.7402941,37.8561765 34.8344118,37.1973529 35.7726471,36.3355882 C38.4579412,33.8885294 39.9226471,30.8032353 40.5991176,27.2973529 C41.4814706,22.7414706 40.6814706,18.4914706 37.8020588,14.8385294 C36.0520588,12.6179412 33.5844118,11.1591176 30.9461765,10.2414706 C27.3697059,8.99147059 23.3520588,8.84147059 19.7344118,10.0061765 C18.6961765,10.3414706 17.6579412,10.7973529 16.7079412,11.3355882 C13.3226471,13.2591176 10.7138235,16.3591176 9.65205882,20.1267647 C9.36970588,21.1297059 9.19911765,22.1797059 9.09911765,23.215 C8.85794118,25.7297059 9.41088235,28.2179412 10.555,30.4532353 C10.7344118,30.8091176 10.9608824,31.1326471 11.1285294,31.4914706 C11.5344118,32.3414706 12.1461765,33.1855882 12.8932353,33.7591176 C13.2402941,34.0297059 13.6667647,34.2620588 14.1226471,34.2326471 C14.7520588,34.1885294 14.9108824,33.5826471 15.0844118,33.0620588 C15.2755882,32.4855882 15.3402941,31.8767647 15.4667647,31.2885294 C15.5785294,30.7473529 15.5932353,30.4267647 15.2579412,29.9473529 C12.6020588,26.1767647 13.5167647,20.0738235 16.7873529,17.015 C19.7520588,14.2502941 23.1167647,13.4385294 26.8844118,13.9738235 C30.2402941,14.4502941 33.2344118,16.6532353 34.5461765,19.815 C35.0844118,21.1120588 35.2579412,22.8708824 35.2726471,24.2502941 C35.3020588,26.2326471 34.9902941,28.0120588 34.2197059,29.8679412 C33.5608824,31.4532353 32.5726471,32.9885294 31.1902941,34.0355882 C29.1491176,35.5738235 24.8697059,36.2414706 24.0079412,33.0414706 C23.7961765,32.2532353 23.7697059,31.2297059 23.9285294,30.4326471 C24.3344118,28.4208824 25.1020588,26.5120588 25.5667647,24.5208824 C25.8108824,23.4591176 25.9755882,22.3914706 25.6844118,21.3091176 C25.3432353,20.0297059 24.5491176,19.2032353 23.2226471,19.0238235 C21.8108824,18.8297059 20.4873529,19.2708824 19.6667647,20.3679412 C17.955,22.6591176 17.7402941,25.2797059 18.5785294,27.9767647 C18.7579412,28.5561765 18.8226471,29.0561765 18.6726471,29.6561765 C17.8667647,32.9326471 17.1608824,36.2297059 16.3226471,39.4944118 C15.7491176,41.7120588 15.555,43.9885294 15.6638235,46.2708824 C15.6932353,46.9061765 15.7079412,47.5444118 15.8520588,48.165 C15.8610643,48.203478 15.8705509,48.2435005 15.8806783,48.2846235 C16.4346412,48.5017428 16.9982358,48.6996643 17.5706432,48.8775696 Z" id="Combined-Shape"></path>
        </g>
    </g>
</svg>