<?xml version="1.0" encoding="UTF-8"?>
<svg xmlns="http://www.w3.org/2000/svg" xmlns:xlink="http://www.w3.org/1999/xlink" width="50px" height="50px" viewBox="0 0 50 50" version="1.1">
  <!-- Generator: Sketch 52.6 (67491) - http://www.bohemiancoding.com/sketch -->
  <title>RS-Deezer-BLANC</title>
  <desc>Created with Sketch.</desc>
  <g id="RS-Deezer-BLANC" stroke="none" stroke-width="1" fill="none" fill-rule="evenodd">
    <rect id="Rectangle-4" fill="#FFFFFF" opacity="0" x="0" y="0" width="50" height="50"></rect>
    <path d="M41.9352636,7.62830666 C42.3978706,4.94705082 43.0766247,3.26099894 43.8285043,3.25776975 L43.8301709,3.25776975 C45.2322628,3.26260311 46.3688322,9.1098469 46.3688322,16.3291615 C46.3688322,23.5483719 45.2305961,29.4004907 43.8269417,29.4004907 C43.2515216,29.4004907 42.7205809,28.4068389 42.2929741,26.7417246 C41.617345,32.8369699 40.2152532,37.0272036 38.5922225,37.0272036 C37.3363816,37.0272036 36.2092914,34.5102092 35.4526201,30.5406018 C34.9359503,38.0900226 33.63563,43.4460967 32.1158291,43.4460967 C31.1620733,43.4460967 30.2924847,41.323688 29.6487308,37.8678337 C28.8745594,45.0017312 27.0862153,50.0003031 25.0004734,50.0003031 C22.9148358,50.0003031 21.1233666,45.0032937 20.3523203,37.8678337 C19.7132539,41.323688 18.8437694,43.4460967 17.8851178,43.4460967 C16.3654211,43.4460967 15.0682257,38.0900226 14.5484309,30.5406018 C13.7917597,34.5102092 12.6678987,37.0272036 11.4088285,37.0272036 C9.78736038,37.0272036 8.38371645,32.8386366 7.70810819,26.7417246 C7.28366812,28.4117347 6.74953988,29.4004907 6.17407806,29.4004907 C4.77040288,29.4004907 3.63219806,23.5483719 3.63219806,16.3291615 C3.63219806,9.1098469 4.77040288,3.25776975 6.17407806,3.25776975 C6.92758262,3.25776975 7.60159713,4.948655 8.06896454,7.62830666 C8.81769825,3.0049453 10.0338202,0 11.4088285,0 C13.0414426,0 14.4562428,4.24976535 15.1255177,10.4206882 C15.7804175,5.92936928 16.7739652,3.06614359 17.8867845,3.06614359 C19.4461689,3.06614359 20.7720103,8.6975944 21.2632633,16.553017 C22.1868105,12.5253884 23.5236937,9.99876895 25.0037026,9.99876895 C26.4837116,9.99876895 27.8205947,12.5270551 28.7425795,16.553017 C29.2353949,8.6975944 30.5595696,3.06614359 32.1190583,3.06614359 C33.2302108,3.06614359 34.222196,5.92936928 34.880325,10.4206882 C35.5479332,4.24976535 36.9627335,0 38.5953475,0 C39.9656683,0 41.1865091,3.00655989 41.9352636,7.62830666 Z M0,15.0435287 C0,11.8163216 0.645409121,9.19945161 1.44183062,9.19945161 C2.23825211,9.19945161 2.88366227,11.8163216 2.88366227,15.0435287 C2.88366227,18.2706316 2.23825211,20.8875225 1.44183062,20.8875225 C0.645409121,20.8875225 0,18.2706316 0,15.0435287 Z M47.1163367,15.0435287 C47.1163367,11.8163216 47.7616531,9.19945161 48.5581163,9.19945161 C49.3545794,9.19945161 50,11.8163216 50,15.0435287 C50,18.2706316 49.3545794,20.8875225 48.5581163,20.8875225 C47.7616531,20.8875225 47.1163367,18.2706316 47.1163367,15.0435287 Z" id="Shape-Copy-5" fill="#FFFFFF"></path>
  </g>
</svg>
