<?xml version="1.0" encoding="UTF-8"?>
<svg xmlns="http://www.w3.org/2000/svg" xmlns:xlink="http://www.w3.org/1999/xlink" width="50px" height="50px" viewBox="0 0 50 50" version="1.1">
  <!-- Generator: Sketch 58 (84663) - https://sketch.com -->
  <title>RS-Threads-BLANC</title>
  <desc>Created with Sketch.</desc>
  <g id="RS-Threads-BLANC" stroke="none" stroke-width="1" fill="none" fill-rule="evenodd">
    <rect id="Rectangle-4" fill="#FFFFFF" opacity="0" x="0" y="0" width="50" height="50"></rect>
    <g id="Threads_(app)_logo" transform="translate(3.000000, 0.000000)" fill="#FFFFFF" fill-rule="nonzero">
      <path d="M33.4731771,23.1740365 C33.2578125,23.0708073 33.0390625,22.9714583 32.8174479,22.8763281 C32.4315104,15.7651563 28.5458333,11.6940104 22.0213281,11.6523438 C21.9917708,11.6521615 21.9623698,11.6521615 21.9328125,11.6521615 C18.0303125,11.6521615 14.7846615,13.3179427 12.7869792,16.3491406 L16.3752604,18.810625 C17.8676042,16.5464323 20.2096875,16.06375 21.9345313,16.06375 C21.9544531,16.06375 21.9744531,16.06375 21.9941667,16.0639323 C24.1424479,16.0776302 25.7635417,16.7022396 26.8127604,17.9203125 C27.5763021,18.8071094 28.0869792,20.0325521 28.3398438,21.5791146 C26.4351563,21.2553906 24.3752604,21.1558594 22.1731771,21.2821094 C15.969974,21.6394271 11.9820573,25.2572656 12.2498958,30.284375 C12.3858073,32.834375 13.6561719,35.028125 15.8268229,36.4611979 C17.6620833,37.6726563 20.0257813,38.2651042 22.4823698,38.1309896 C25.7265625,37.953125 28.2716146,36.7153646 30.0471354,34.4520833 C31.3955729,32.7333333 32.2484375,30.5059896 32.625,27.6994792 C34.1710938,28.6325521 35.3169271,29.8604167 35.9497396,31.3364583 C37.0257813,33.8455729 37.0885417,37.96875 33.7242188,41.3302083 C30.7765625,44.275 27.2333333,45.5489583 21.8785156,45.5882813 C15.9385938,45.5442708 11.4463021,43.6393229 8.52554688,39.9263021 C5.79049479,36.4494792 4.37700521,31.4276042 4.32427083,25 C4.37700521,18.5723438 5.79049479,13.5504167 8.52554688,10.0736198 C11.4463021,6.36065104 15.9385156,4.45572917 21.8784375,4.41158854 C27.8614583,4.45606771 32.4320313,6.37015625 35.4645833,10.1010417 C36.9515625,11.930625 38.0726563,14.2314583 38.8117188,16.9141406 L43.0166667,15.7922396 C42.1208333,12.4901563 40.7111979,9.64471354 38.7929688,7.28489583 C34.9052083,2.50173958 29.2192708,0.0508197917 21.893099,0 L21.863776,0 C14.5525,0.0506432292 8.93023438,2.51088542 5.15320313,7.31231771 C1.79216146,11.585 0.0584375,17.5301302 0,24.9824219 L0,25 L0,25.0175781 C0.0584375,32.4697917 1.79216146,38.4151042 5.15320313,42.6877604 C8.93023438,47.4890625 14.5525,49.9494792 21.863776,50 L21.893099,50 C28.3932292,49.9549479 32.975,48.253125 36.7494792,44.4820313 C41.6877604,39.5484375 41.5390625,33.3643229 39.9114583,29.5679688 C38.74375,26.8455729 36.5174479,24.6344271 33.4731771,23.1740365 Z M22.2501302,33.7257812 C19.5313802,33.8789062 16.706875,32.6585938 16.5676042,30.0447917 C16.464375,28.1067708 17.9468229,25.9442708 22.4169792,25.6866667 C22.9289063,25.6571354 23.43125,25.6427083 23.9247396,25.6427083 C25.5484375,25.6427083 27.0674479,25.8004427 28.4484375,26.1023438 C27.9333333,32.5351562 24.9119792,33.5796875 22.2501302,33.7257812 Z" id="Shape"></path>
    </g>
  </g>
</svg>
