<?xml version="1.0" encoding="UTF-8"?>
<svg width="50px" height="50px" viewBox="0 0 50 50" version="1.1" xmlns="http://www.w3.org/2000/svg" xmlns:xlink="http://www.w3.org/1999/xlink">
    <!-- Generator: sketchtool 52.6 (67491) - http://www.bohemiancoding.com/sketch -->
    <title>7CEC457B-0C3E-46B8-8378-B590D8165DE6</title>
    <desc>Created with sketchtool.</desc>
    <defs>
        <polygon id="path-1" points="0.000344827586 0.000517241379 49.0844828 0.000517241379 49.0844828 21.5965517 0.000344827586 21.5965517"></polygon>
    </defs>
    <g id="Symbols" stroke="none" stroke-width="1" fill="#FFFFFF" fill-rule="evenodd">
        <g id="RS-Soundcloud">
            <g id="Page-1" transform="translate(0.000000, 14.000000)">
                <path d="M25.2244828,21.587931 C25.2244828,21.587931 42.6451724,21.5965517 42.7589655,21.5965517 C46.2537931,21.5965517 49.0848276,18.8586207 49.0848276,15.4810345 C49.0848276,12.1 46.2537931,9.36206897 42.7589655,9.36206897 C41.8917241,9.36206897 41.0658621,9.53275862 40.3124138,9.83793103 C39.8089655,4.32413793 35.027931,0 29.1968966,0 C27.7710345,0 26.377931,0.270689655 25.152069,0.731034483 C24.6744828,0.910344828 24.5451724,1.09310345 24.5417241,1.45 L24.5417241,20.8655172 C24.5468966,21.237931 24.8468966,21.5517241 25.2244828,21.587931 M21.7193103,20.9586207 L22.0882759,15.8827586 L21.7193103,3.24827586 C21.7106897,2.90172414 21.3175862,2.62068966 20.8417241,2.62068966 C20.3658621,2.62068966 19.9727586,2.90344828 19.9641379,3.24827586 L19.6331034,15.8793103 L19.9641379,20.9586207 C19.9727586,21.3017241 20.3658621,21.5844828 20.8417241,21.5844828 C21.3175862,21.5844828 21.7106897,21.3051724 21.7193103,20.9586207 M16.7124138,21.0241379 L17.1796552,15.8810345 L16.7124138,4.86206897 C16.702069,4.55862069 16.3555172,4.31896552 15.927931,4.31896552 C15.4951724,4.31896552 15.1503448,4.55862069 15.14,4.86206897 L14.7262069,15.8810345 L15.1417241,21.0224138 C15.1503448,21.3258621 15.4951724,21.5637931 15.927931,21.5637931 C16.3555172,21.5637931 16.702069,21.3293103 16.7124138,21.0241379 M11.702069,21.1017241 L12.2710345,15.8810345 L11.702069,4.94137931 C11.6865517,4.68448276 11.3831034,4.48275862 11.0124138,4.48275862 C10.6382759,4.48275862 10.3348276,4.68448276 10.3210345,4.94137931 L9.81586207,15.8810345 L10.3210345,21.1034483 C10.3348276,21.3568966 10.6382759,21.5586207 11.0124138,21.5586207 C11.3831034,21.5586207 11.6865517,21.3586207 11.702069,21.1017241 M6.68137931,21.1896552 L7.36241379,15.8775862 L6.68137931,7.66034483 C6.66068966,7.45172414 6.40551724,7.28793103 6.09689655,7.28793103 C5.78482759,7.28793103 5.52965517,7.45172414 5.51241379,7.66034483 L4.90896552,15.8775862 L5.51241379,21.1896552 C5.52965517,21.3965517 5.78482759,21.5603448 6.09689655,21.5603448 C6.40551724,21.5603448 6.66068966,21.3982759 6.68137931,21.1896552 M1.65034483,19.2810345 L2.4537931,15.8431034 L1.65034483,12.2913793 C1.62793103,12.1862069 1.4262069,12.1051724 1.17965517,12.1051724 C0.929655172,12.1051724 0.727931034,12.1862069 0.708965517,12.2913793 L0.000344827586,15.8431034 L0.708965517,19.2810345 C0.727931034,19.387931 0.929655172,19.4689655 1.17965517,19.4689655 C1.4262069,19.4689655 1.62793103,19.387931 1.65034483,19.2810345" id="Fill-1" ></path>
            </g>
        </g>
    </g>
</svg>