<?xml version="1.0" encoding="UTF-8"?>
<svg width="51px" height="51px" viewBox="0 0 51 51" version="1.1" xmlns="http://www.w3.org/2000/svg" xmlns:xlink="http://www.w3.org/1999/xlink">
    <!-- Generator: Sketch 58 (84663) - https://sketch.com -->
    <title>TikTok</title>
    <desc>Created with Sketch.</desc>
    <g id="Page-1" stroke="none" stroke-width="1" fill="none" fill-rule="evenodd">
        <g id="STYLE-GUIDE-Picto-Logo-Fonts" transform="translate(-1175.000000, -8043.000000)" fill="#FFFFFF" fill-rule="nonzero">
            <g id="TikTok" transform="translate(1175.000000, 8043.000000)">
                <path d="M39,-3.55271368e-15 C45.627417,-4.77015043e-15 51,5.372583 51,12 L51,39 C51,45.627417 45.627417,51 39,51 L12,51 C5.372583,51 -2.74108918e-15,45.627417 -3.55271368e-15,39 L-3.55271368e-15,12 C-4.36433818e-15,5.372583 5.372583,-2.33527693e-15 12,-3.55271368e-15 L39,-3.55271368e-15 Z M31.604,9.917 L26.466,9.918 L26.466,28.536 C27.246,38.484 17.904,36.978 17.178,31.884 C16.806,29.226 18.126,27.708 20.526,26.91 C21.3333586,26.6467779 22.1598068,26.4461837 22.998,26.31 L22.998,26.31 L22.998,21.048 C12.3,21.42 10.254,31.014 13.59,36.468 C18.768,44.946 31.68,41.256 31.68,29.412 L31.68,29.412 L31.68,20.1 C34.212,21.6 36.39,22.44 38.88,22.2 L38.88,22.2 L38.88,17.244 C34.602,16.974 32.13,14.334 31.602,9.9 L31.604,9.917 Z M31.602,9.9 L31.604,9.917 L31.626,9.918 L31.602,9.9 Z" id="Combined-Shape"></path>
            </g>
        </g>
    </g>
</svg>