<?xml version="1.0" encoding="UTF-8"?>
<svg width="50px" height="50px" viewBox="0 0 50 50" version="1.1" xmlns="http://www.w3.org/2000/svg" xmlns:xlink="http://www.w3.org/1999/xlink">
    <!-- Generator: sketchtool 52.6 (67491) - http://www.bohemiancoding.com/sketch -->
    <title>EBB023EB-1637-4A85-BA8B-4D35E2C5487F</title>
    <desc>Created with sketchtool.</desc>
    <g id="Symbols" stroke="none" stroke-width="1" fill="none" fill-rule="evenodd">
        <g id="RS-Youtube" fill="#FFFFFF">
            <path d="M19.8378222,31.2395833 L19.8357536,17.0895833 L33.3457449,24.1895833 L19.8378222,31.2395833 Z M49.4994001,14.6395833 C49.4994001,14.6395833 49.0112118,11.1708333 47.5114807,9.64166667 C45.6104423,7.63541667 43.4797898,7.62708333 42.5034132,7.50833333 C35.5053577,7 25.0093087,7 25.0093087,7 L24.9886227,7 C24.9886227,7 14.4946423,7 7.49658682,7.50833333 C6.52021017,7.62708333 4.38955773,7.63541667 2.48645071,9.64166667 C0.986719623,11.1708333 0.500599892,14.6395833 0.500599892,14.6395833 C0.500599892,14.6395833 0,18.7145833 0,22.7895833 L0,26.6104167 C0,30.6854167 0.500599892,34.7604167 0.500599892,34.7604167 C0.500599892,34.7604167 0.986719623,38.2291667 2.48645071,39.7583333 C4.38955773,41.7625 6.88635141,41.7 7.99925531,41.9104167 C11.9999173,42.2958333 24.9989657,42.4166667 24.9989657,42.4166667 C24.9989657,42.4166667 35.5053577,42.4 42.5034132,41.8916667 C43.4797898,41.7729167 45.6104423,41.7625 47.5114807,39.7583333 C49.0112118,38.2291667 49.4994001,34.7604167 49.4994001,34.7604167 C49.4994001,34.7604167 50,30.6854167 50,26.6104167 L50,22.7895833 C50,18.7145833 49.4994001,14.6395833 49.4994001,14.6395833 Z" id="Fill-2"></path>
        </g>
    </g>
</svg>