<svg width="12" height="12" viewBox="0 0 12 12" fill="none" xmlns="http://www.w3.org/2000/svg">
<path d="M4.66586 0C7.23755 0 9.33171 2.09417 9.33171 4.66586C9.33171 5.78311 8.93985 6.80741 8.2819 7.61118L12 11.3293L11.3293 12L7.61118 8.2819C6.80741 8.93985 5.78311 9.33171 4.66586 9.33171C2.09417 9.33171 0 7.23755 0 4.66586C0 2.09417 2.09417 0 4.66586 0ZM4.66586 0.933171C2.59903 0.933171 0.933171 2.59903 0.933171 4.66586C0.933171 6.73269 2.59903 8.39854 4.66586 8.39854C6.73269 8.39854 8.39854 6.73269 8.39854 4.66586C8.39854 2.59903 6.73269 0.933171 4.66586 0.933171Z" fill="white"/>
</svg>
